<?xml version="1.0" encoding="utf-8"?>
<!DOCTYPE svg PUBLIC "-//W3C//DTD SVG 1.0//EN" "http://www.w3.org/TR/2001/REC-SVG-20010904/DTD/svg10.dtd">
<svg version="1.0" xmlns="http://www.w3.org/2000/svg" width="365px" height="319px" viewBox="0 0 365 319" preserveAspectRatio="xMidYMid meet">
   <defs>
      <radialGradient id="rg0" gradientUnits="userSpaceOnUse" cx="50.146484%" cy="40.039062%" r="17.138672%" >
         <stop offset="0%" style="stop-color:rgb(255,29,237);"></stop>
         <stop offset="34%" style="stop-color:rgb(254,96,239);"></stop>
         <stop offset="36%" style="stop-color:rgb(254,119,239);"></stop>
         <stop offset="68%" style="stop-color:rgb(254,201,246);"></stop>
         <stop offset="74%" style="stop-color:rgb(255,203,246);"></stop>
         <stop offset="100%" style="stop-color:rgb(0,0,0);"></stop>
      </radialGradient>
      <radialGradient id="rg1" gradientUnits="userSpaceOnUse" cx="58.447266%" cy="37.304688%" r="22.314453%" >
         <stop offset="7%" style="stop-color:rgb(254,2,160);"></stop>
         <stop offset="27%" style="stop-color:rgb(253,2,152);"></stop>
         <stop offset="50%" style="stop-color:rgb(253,1,128);"></stop>
         <stop offset="57%" style="stop-color:rgb(253,2,153);"></stop>
         <stop offset="88%" style="stop-color:rgb(254,4,182);"></stop>
         <stop offset="100%" style="stop-color:rgb(254,16,186);"></stop>
      </radialGradient>
   </defs>
 <g fill="#fec3f6">
  <path d="M189.3 274.8 c0.7 -6.9 5.3 -26.8 6.5 -28 0.4 -0.4 3.6 -1.1 7 -1.4 3.4 -0.4 6.2 -1 6.2 -1.3 0 -0.9 5.5 -2.8 10.5 -3.7 6.1 -1 11.3 -4 11.7 -6.6 0.2 -1.3 1.1 -2.4 2.2 -2.6 1.1 -0.3 3.8 -2.2 5.9 -4.3 2.3 -2.2 5 -3.9 6.3 -3.9 1.4 0 2.5 -0.8 2.9 -2 0.3 -1.1 1.5 -2 2.6 -2 1 0 1.9 -0.7 1.9 -1.5 0 -0.9 0.9 -1.5 2.5 -1.5 1.5 0 2.5 -0.6 2.5 -1.5 0 -0.8 0.8 -1.9 1.9 -2.4 1 -0.6 2.1 -2.3 2.4 -3.9 0.4 -1.8 1.4 -3.1 2.6 -3.5 1.2 -0.3 2.4 -1.3 2.7 -2.4 0.4 -1 1.5 -2.7 2.6 -3.9 2.9 -3.3 5.8 -9.5 5.8 -12.6 0 -1.6 0.9 -3.6 2 -4.5 1.2 -1.1 2 -3 2 -4.8 0 -1.8 0.8 -3.7 2 -4.8 1.2 -1 2 -2.9 2 -4.7 0 -3.3 1.5 -4 16.3 -6.6 10.4 -1.8 12.7 -1.8 12.7 0.1 0 0.8 -0.7 1.5 -1.6 1.5 -1.1 0 -1.4 0.5 -1 1.6 0.4 1 -0.7 2.8 -3.3 5.1 -3.9 3.4 -4.5 6.3 -1.4 6.3 1.1 0 1.4 0.6 0.9 2.3 -0.3 1.2 -0.6 2.5 -0.6 2.9 0 0.4 -0.8 0.9 -1.7 1.2 -1 0.3 -1.9 1.7 -1.9 3 -0.2 2.7 -4 8.6 -5.5 8.6 -0.6 0 -0.6 0.7 0.1 1.9 0.5 1.1 0.6 2.2 0.1 2.5 -0.4 0.3 -1.1 2.4 -1.5 4.6 -0.3 2.2 -1.3 4.3 -2.1 4.6 -0.8 0.4 -1.5 1 -1.5 1.6 0 0.5 -2.7 3.5 -6 6.7 -4.6 4.5 -5.8 6.2 -5.3 7.9 0.4 1.7 -0.1 2.4 -2.1 3.2 -1.4 0.5 -2.6 1.5 -2.6 2.3 0 0.7 -1.5 1.7 -3.2 2.2 -2.4 0.7 -3.2 1.5 -3 2.8 0.2 1.2 -0.7 2.1 -2.7 2.8 -1.7 0.6 -3.1 1.5 -3.1 2.1 0 0.5 -0.5 0.6 -1 0.3 -0.7 -0.4 -0.9 0.2 -0.5 1.8 0.6 2 0.2 2.6 -2 3.1 -1.6 0.4 -3.3 0.2 -4.1 -0.5 -1.1 -0.9 -2.2 -0.8 -4.9 0.7 -1.9 1 -3.6 2.1 -3.6 2.4 -0.1 0.3 -0.3 1.5 -0.4 2.8 -0.4 3.5 -2.1 4.9 -4.4 3.5 -1.4 -0.9 -2.5 -0.8 -4.9 0.7 -1.6 1 -3.3 2.3 -3.6 2.9 -0.4 0.6 -1.9 1.1 -3.3 1.1 -1.7 0 -2.7 0.7 -3 2.1 -0.3 1.2 -1.1 1.8 -1.9 1.5 -0.8 -0.3 -1.4 0 -1.4 0.8 0 2.6 -4.4 5.1 -9.2 5.1 -2.5 0 -4.9 -0.3 -5.3 -0.7 -0.4 -0.4 -1.5 0.3 -2.5 1.5 -1.5 1.8 -2.1 2 -4.3 1 -1.4 -0.6 -3.4 -0.9 -4.5 -0.6 -2.1 0.5 -3.6 4.9 -2.1 5.9 0.5 0.3 0.9 1.4 0.9 2.5 0 1.4 -0.7 1.9 -3 1.9 -2 0 -3 0.5 -3 1.5 0 0.8 -0.7 1.5 -1.6 1.5 -1.5 0 -1.6 -0.9 -1.1 -6.2z"/>
  <path d="M168 273 c-0.8 -1.1 -1.9 -2 -2.5 -2 -0.6 0 -2.6 -1.1 -4.5 -2.4 -2.7 -1.8 -3.8 -2.1 -5.2 -1.3 -1.3 0.9 -2.2 0.7 -4.1 -1.1 -2.9 -2.7 -3.2 -2.7 -6.8 -0.1 -3.2 2.2 -4.9 1.8 -4.9 -1.1 0 -2.4 -1.8 -3.6 -3.3 -2.1 -1.9 1.9 -2.9 1.2 -2.3 -1.4 0.4 -1.4 0.4 -3 0.1 -3.5 -0.8 -1.2 -5.5 0.6 -7.1 2.8 -1.3 1.6 -1.3 1.6 -1.4 0 0 -1 -0.4 -1.8 -1 -1.8 -0.5 0 -1 -0.7 -1 -1.5 0 -0.8 -0.7 -1.5 -1.6 -1.5 -2.2 0 -7.5 -4 -6.8 -5.1 1 -1.6 -0.7 -4.9 -2.6 -4.9 -0.9 0 -2 -0.8 -2.3 -1.9 -0.3 -1.1 -1.4 -1.9 -2.8 -1.9 -6 -0.3 -12.9 -4.4 -12.9 -7.7 0 -1.2 -0.7 -2.8 -1.6 -3.6 -0.9 -0.7 -1.3 -2.1 -1 -3.4 0.5 -1.9 0.2 -2.1 -1.7 -1.8 -1.4 0.3 -3.3 -0.5 -5 -1.9 -2.1 -1.9 -2.7 -3.2 -2.7 -6.6 0 -2.3 -0.4 -4.2 -0.8 -4.2 -0.5 0 -1.7 -1.6 -2.7 -3.5 -1.3 -2.3 -2.3 -3.1 -3 -2.5 -0.9 0.7 -1.2 -0.4 -1.4 -3.8 -0.2 -2.6 -0.3 -5.3 -0.4 -5.9 0 -1.3 -0.3 -1.4 -2.9 -1.7 -0.9 -0.1 -1.3 -2 -1.3 -5.6 -0.1 -5.5 -0.1 -5.5 -3.2 -5.5 -4 -0.1 -5.1 -1.1 -3.5 -3.3 2.2 -3.1 2.5 -4.5 1.4 -6.3 -0.7 -1 -1.6 -3.6 -2.1 -5.9 -0.8 -3.6 -0.7 -4 1 -4 1 0 1.9 -0.4 1.9 -1 0 -0.5 -0.4 -1 -1 -1 -0.5 0 -1 -0.4 -1 -1 0 -1.7 9 -1 18 1.3 l8.5 2.2 0.3 6.8 c0.2 3.7 0.7 6.7 1.2 6.7 0.6 0 1 1.5 1 3.4 0 1.9 0.5 3.8 1.1 4.1 0.6 0.4 0.9 2.5 0.7 4.8 -0.2 2.9 0.2 4.2 1.2 4.5 2.5 0.7 4 3.4 4 6.9 0 2.7 0.4 3.3 2.1 3.3 1.1 0 3.4 0.8 5 1.7 2.4 1.4 2.9 2.4 2.9 5.5 0 2 0.5 4 1 4.3 0.6 0.3 1 1.4 1 2.4 0 2.7 5.6 4.9 10.8 4.4 4 -0.5 4.2 -0.4 4.2 2.1 0 1.5 0.8 3 2 3.6 1.2 0.6 2 2.1 2 3.5 0 2.2 0.5 2.4 5.3 2.7 4.3 0.2 5.4 0.7 6.2 2.6 0.8 1.7 1.8 2.2 4.6 2.2 2.8 0 4.1 0.6 5.3 2.5 1.4 2.2 2.4 2.5 7.6 2.5 3.2 0 6.2 0.5 6.5 1 0.3 0.6 1.9 1 3.5 1 3.2 0 3.1 -0.1 6.4 14 2 8.4 2 12 0.1 12 -0.8 0 -1.5 -0.7 -1.5 -1.5 0 -2 -1 -1.9 -3.5 0.5 -2.1 2 -2.1 2 -3.5 0z"/>
  <path d="M294.2 148.4 c-15.8 -3.5 -16.2 -3.6 -16.2 -7.9 0 -3.3 0.2 -3.5 3.3 -3.5 3.2 0 3.3 -0.1 2.9 -3.5 -0.3 -2.2 -1.2 -4 -2.3 -4.6 -1.4 -0.7 -1.9 -2.1 -1.9 -5.4 0 -2.5 -0.4 -4.5 -0.9 -4.5 -1.4 0 -4.1 -5.9 -4.1 -8.9 0 -4.9 -1.1 -7.1 -3.5 -7.1 -2.7 0 -3.5 -1.6 -3.6 -7.8 0 -2.6 -0.3 -4.1 -0.6 -3.4 -0.2 0.6 -2 1.2 -3.8 1.2 -3.1 0 -3.5 -0.3 -4.5 -3.9 -0.8 -3.3 -1.5 -4 -3.8 -4.3 -2.1 -0.2 -2.9 -1.1 -3.7 -3.5 -0.7 -2.6 -1.4 -3.3 -3.5 -3.3 -2.6 0 -5 -2.6 -6 -6.5 -0.4 -1.5 -1.7 -2.2 -5 -2.6 -2.4 -0.3 -4.6 -1.1 -4.8 -1.7 -0.2 -0.7 -1.8 -1.2 -3.5 -1.2 -1.8 0 -4.1 -0.7 -5.1 -1.5 -1.1 -0.8 -2.6 -1.5 -3.3 -1.5 -1.4 0 -9.3 -7.4 -9.3 -8.8 0 -0.4 -1.5 -0.6 -3.4 -0.4 -1.8 0.2 -4.3 -0.1 -5.5 -0.7 -1.5 -0.8 -2.1 -0.9 -2.1 -0.1 0 0.7 -1.5 1 -3.7 0.8 l-3.8 -0.3 -1.7 -8 c-1.8 -8.8 -2.3 -19.5 -0.9 -19.5 0.5 0 1.1 0.7 1.5 1.5 0.7 2 3.2 1.9 4.8 -0.3 2.1 -2.9 3.7 -3.4 5.4 -1.8 0.9 0.9 2 1.4 2.5 1.1 0.5 -0.4 0.9 -0.2 0.9 0.4 0 0.5 1.8 1.2 4 1.6 2.2 0.4 4 1.1 4 1.6 0 0.5 1.1 0.7 2.5 0.3 1.5 -0.4 2.5 -0.2 2.5 0.4 0 3.4 7.2 5.6 9.8 3 0.8 -0.8 1.6 -0.5 3.1 1.3 1.1 1.3 2 2.8 2.1 3.2 0 0.4 0.9 0.3 2 -0.3 2.3 -1.2 4 -0.6 4 1.5 0 0.7 1.4 1.9 3 2.7 1.7 0.7 3 1.8 3 2.4 0 1.4 5 5.8 7.5 6.4 1.1 0.3 2.4 1.6 3 2.8 0.7 1.5 1.5 2 2.9 1.6 2.8 -0.9 6.6 1.6 8.8 5.9 1.2 2.5 2.4 3.7 3.3 3.3 0.9 -0.3 2.9 1.2 5.2 3.9 2.8 3.4 4 4.2 5 3.4 1 -0.9 1.8 -0.6 3.3 1.2 1.9 2.3 2.1 2.3 3.4 0.7 2 -2.6 2.6 -2.2 2.6 1.7 0 2.6 -0.9 4.5 -3.6 7.5 -1.9 2.1 -4.5 4.2 -5.6 4.6 -1.5 0.4 -1.7 0.9 -0.9 1.7 0.6 0.6 1.1 1.9 1.1 2.9 0 1.3 0.8 1.8 3 1.8 2.3 0 3.5 0.7 4.9 3.1 1.8 2.9 2 2.9 2.5 1.1 1.2 -3.7 7.3 -8.2 11.1 -8.2 3.9 0 4.3 0.7 1.8 2.5 -1.4 1 -1.5 1.6 -0.5 2.8 1.3 1.6 0.1 6.7 -1.7 6.7 -0.5 0 -1.2 1.2 -1.6 2.7 -0.5 2.3 -0.1 3.3 2.7 5.8 1.9 1.6 4.3 3.5 5.4 4.2 1.9 1.1 1.9 1.1 -0.1 2.7 -1.1 0.8 -1.6 1.6 -1.1 1.6 0.5 0 0.3 0.6 -0.3 1.4 -1 1.1 -0.9 2.1 0.3 4.4 1.4 2.6 1.4 3.1 0.1 4.2 -1.9 1.6 -1.9 3.5 0.1 5.5 0.9 0.9 1.4 1.9 1 2.2 -0.3 0.3 0.1 1.1 1 1.8 2 1.4 2.6 7.5 0.7 7.5 -0.7 0 -1.3 0.5 -1.3 1 0 0.6 0.7 1 1.5 1 0.8 0 1.5 0.7 1.5 1.5 0 2.1 -4.2 1.8 -17.8 -1.1z"/>
  <path d="M59 148.5 c0 -0.8 0.7 -1.5 1.6 -1.5 1 0 1.4 -0.6 1.1 -1.4 -0.3 -0.8 0.5 -2.5 1.7 -3.7 1.9 -1.9 2.2 -2.8 1.5 -5.2 -0.7 -2.4 -0.4 -3.3 1.2 -4.6 l2 -1.6 -2.1 -2.8 -2.1 -2.7 2.5 -2.4 c1.4 -1.3 2.6 -2.8 2.6 -3.3 0 -0.6 1.1 -2.7 2.5 -4.8 1.9 -2.7 2.3 -4 1.5 -5 -0.6 -0.7 -0.8 -2.3 -0.6 -3.6 0.3 -1.3 0.5 -3 0.5 -3.8 0.1 -0.8 0.8 -1.1 2.1 -0.8 1.6 0.4 2 0 2 -1.8 0 -1.2 0.7 -2.8 1.5 -3.5 1.3 -1 1.3 -1.5 0.3 -2.1 -0.9 -0.6 -0.5 -1.4 1.5 -2.9 1.5 -1.2 2.7 -2.7 2.7 -3.5 0 -0.7 0.9 -1.5 2 -1.8 1.5 -0.4 2 -1.4 2 -3.9 0 -3.2 0.4 -3.6 6.5 -6.6 6.2 -3 6.4 -3.3 5.5 -5.7 -0.7 -2 -0.6 -3.2 0.6 -5 1.4 -2.2 4.4 -2.5 4.4 -0.4 0 0.5 1 0.4 2.3 -0.2 3.1 -1.4 3.1 -5.9 0 -7.5 -2.2 -1 -2.2 -1.1 1.8 -3.7 4.3 -2.9 6.9 -3.3 8.6 -1.6 1.3 1.3 4.5 -3.3 3.7 -5.4 -0.3 -0.8 0.2 -2 1.1 -2.7 1.3 -1.1 2 -1.1 4.1 0.1 2.3 1.2 2.7 1.1 3.5 -0.4 0.6 -0.9 1.7 -1.7 2.4 -1.7 0.8 0 1.5 -0.4 1.5 -1 0 -0.5 0.5 -0.9 1.1 -0.7 0.6 0.1 1.9 -1.3 2.8 -3.1 1.2 -2.4 2.1 -3.1 3.5 -2.8 1.1 0.3 2.6 0 3.3 -0.6 2.1 -1.7 9.6 -2.5 15.3 -1.5 1.9 0.3 3.5 -0.6 6.8 -3.9 2.4 -2.4 4.8 -4.1 5.3 -3.8 0.5 0.3 2.1 0.7 3.4 1 1.8 0.3 2.5 0 2.5 -1.1 0 -0.8 0.7 -1.5 1.6 -1.5 1.4 0 1.6 0.9 1 7.3 -1.1 10.4 -2.6 16.7 -4 16.7 -0.8 0 -2.8 1.3 -4.6 2.9 -2.3 2 -4.8 3 -8.3 3.4 -5.4 0.7 -7.5 1.9 -8.8 5.4 -0.6 1.6 -1.7 2.3 -3.6 2.3 -6 0 -10.3 1.2 -10.3 2.9 -0.1 2.9 -2.6 5.1 -5.8 5.1 -1.7 0 -3.4 0.5 -3.7 1 -0.3 0.6 -1.5 1 -2.6 1 -1.4 0 -1.9 0.7 -1.9 3 0 2.4 -0.5 3.1 -2.7 3.6 -3.3 0.8 -6.3 3.2 -6.3 5 0 0.8 -1.1 1.6 -2.5 2 -1.5 0.4 -2.5 1.3 -2.5 2.4 0 1 -0.5 2 -1.1 2.2 -0.6 0.2 -1.4 2.7 -1.7 5.6 -0.3 4 -0.9 5.3 -2.4 5.8 -3.5 1.1 -5.8 3.8 -5.8 6.7 0 3.9 -2.9 8.6 -5.7 9.3 -1.9 0.5 -2.3 1.3 -2.3 4.4 0 2.2 -0.4 4.2 -1 4.5 -0.5 0.3 -1 1.7 -1 2.9 0 1.3 -0.7 2.9 -1.5 3.6 -0.8 0.7 -1.5 2.3 -1.5 3.5 0 1.2 -0.7 2.8 -1.5 3.5 -0.8 0.7 -1.5 2.7 -1.5 4.6 0 3.7 -0.8 4.1 -13.4 6.3 -8.5 1.6 -12.6 1.4 -12.6 -0.4z"/>
 </g>
 <g fill="#feaaf4">
  <path d="M170.3 252.4 c-0.3 -0.8 -1.2 -1.3 -2 -1 -0.8 0.4 -2.8 -0.2 -4.3 -1.1 -2.4 -1.4 -3.4 -1.5 -5.5 -0.5 -2.1 1 -3.2 0.9 -5.5 -0.3 -1.6 -0.8 -3.3 -2.3 -3.9 -3.2 -0.5 -1 -1.8 -1.8 -2.8 -1.9 -1 0 -3.1 -0.1 -4.6 -0.2 -1.7 -0.1 -2.6 -0.6 -2.2 -1.2 1.3 -2.2 -1.7 -4 -6.6 -4 -4.5 0 -4.9 -0.2 -4.9 -2.5 0 -1.4 -0.8 -2.9 -1.9 -3.5 -1.1 -0.5 -2.1 -2.2 -2.3 -3.7 l-0.3 -2.8 -2.6 2.8 c-2.7 2.8 -6.1 3.7 -5.8 1.5 0.4 -3.4 -1.4 -4.8 -7.4 -5.7 -0.4 0 -0.3 -1 0.3 -2 0.8 -1.6 0.6 -2.3 -1.1 -3.5 -1.8 -1.2 -2 -1.9 -1.1 -4.4 0.9 -2.6 0.7 -3.1 -1.8 -4.6 -2.2 -1.2 -2.9 -1.3 -3.3 -0.4 -0.7 2 -4.6 -3 -4 -5.1 0.6 -2.4 -1.3 -6.1 -3.3 -6.1 -2.2 0 -3.8 -4.3 -2.5 -6.8 0.8 -1.5 0.7 -2.3 -0.4 -3.2 -0.9 -0.8 -1.2 -2.2 -0.8 -4.1 0.3 -1.8 0.1 -2.9 -0.6 -2.9 -0.6 0 -1.1 -1.2 -1.1 -2.6 0 -1.5 -0.7 -3.2 -1.6 -3.9 -1.5 -1.1 -1.5 -1.4 0.1 -3.9 1.8 -2.6 1.8 -2.7 -0.3 -3.3 -1.2 -0.3 -1.9 -0.9 -1.6 -1.4 1.1 -1.8 8.1 -0.8 15.9 2.4 l8 3.3 0.3 4.1 c0.2 2.3 1 4.7 1.8 5.3 0.7 0.7 1.4 2 1.4 3 0 1 0.7 2.3 1.5 3 0.8 0.7 1.5 1.9 1.5 2.6 0 0.8 0.7 1.4 1.5 1.4 0.8 0 1.5 0.6 1.5 1.3 0 0.7 2 2.6 4.5 4.1 3.6 2.3 4.5 3.4 4.5 5.7 0 1.6 0.4 2.9 1 2.9 1.9 0 5 3.4 6.1 6.7 0.8 2.7 1.8 3.5 5.2 4.4 6.1 1.6 9.1 3.2 12.6 6.3 1.2 1.1 2.1 1.4 2.6 0.7 0.3 -0.6 2.2 -1.1 4 -1.1 3.8 0 5.5 2 5.5 6.4 0 1.6 0.6 2.6 1.4 2.6 1.8 0 7.6 14.6 7.6 19 0 3.2 -1.6 4.1 -2.7 1.4z"/>
  <path d="M196.2 247.3 c0.3 -2.9 2.4 -9 5.3 -15 l4.8 -10.3 3.9 0 c2.9 0 3.8 -0.4 3.8 -1.6 0 -2.5 3.1 -4.3 7.3 -4.4 2.9 0 4.9 -0.9 8.1 -3.5 2.4 -1.9 4.7 -3.5 5.1 -3.5 0.9 0 5.5 -5.2 5.5 -6.2 0 -0.5 0.7 -0.8 1.5 -0.8 1.1 0 1.5 -1.1 1.5 -4 0 -3.1 0.4 -4 1.7 -4 1.7 0 6.3 -4.5 6.3 -6.2 0 -0.4 0.9 -0.8 1.9 -0.8 1.6 0 2 -0.8 2.3 -3.7 0.3 -3.5 0.6 -3.8 3.5 -4.1 2.9 -0.3 3.2 -0.7 3.5 -4 0.3 -3.5 0.5 -3.7 8.8 -7 8.9 -3.6 18.3 -5.2 19.4 -3.4 0.3 0.6 -0.3 1.4 -1.4 1.7 -1.7 0.5 -1.9 0.9 -0.9 2.1 0.9 1.1 0.8 1.9 -0.7 3.7 -1.1 1.2 -2.3 2.5 -2.9 2.9 -0.5 0.4 -0.9 2 -0.7 3.5 0.2 2.1 -0.4 3.5 -2.3 5.1 -2.1 1.8 -2.4 2.6 -1.5 3.7 0.9 1.1 0.7 2.1 -1 4.5 -1.2 1.7 -2.3 3.7 -2.4 4.5 -0.1 0.8 -1.5 2.8 -3 4.4 -1.5 1.6 -2.6 3.1 -2.5 3.3 0.8 0.7 -3 5 -3.9 4.4 -1.2 -0.7 -2.3 1.9 -1.6 3.7 0.3 0.8 -0.5 1.8 -1.8 2.4 -1.4 0.6 -2.3 1.9 -2.3 3.4 0 2.4 -0.6 2.6 -3.6 1.4 -1.2 -0.4 -1.8 0.1 -2.3 2 -0.5 2.1 -1 2.4 -2.1 1.5 -1 -0.9 -1.5 -0.7 -2 0.9 -0.4 1.3 -1.5 2.1 -2.9 2.1 -1.3 0 -4 1.7 -6.3 3.9 -2.1 2.1 -4.8 4 -5.9 4.3 -1.1 0.2 -2 1.3 -2.2 2.6 -0.4 2.7 -5.8 5.6 -12.2 6.7 -2.5 0.4 -5.4 1.2 -6.5 1.8 -1.1 0.6 -2.3 1 -2.7 0.9 -0.5 -0.1 -0.8 0.3 -0.8 0.8 0 0.6 -1.8 1 -3.9 1 -2.2 0 -4.3 0.5 -4.6 1 -0.4 0.6 -1.5 0.8 -2.6 0.5 -1.2 -0.4 -2.1 -0.1 -2.5 0.9 -1.3 3.4 -2.6 1.5 -2.2 -3.1z"/>
  <path d="M79 145 c0 -0.5 0.8 -1.4 1.8 -2 1.1 -0.8 1.3 -1.3 0.5 -1.6 -1.5 -0.6 -0.6 -3.2 2 -6.1 1.1 -1.2 1.7 -2.9 1.4 -3.7 -0.3 -0.8 0.3 -2.2 1.3 -3.1 1 -0.9 1.6 -2.4 1.3 -3.4 -0.2 -0.9 0.3 -2.3 1.1 -3.1 1.1 -0.9 1.3 -1.6 0.6 -2.5 -1.4 -1.7 0.7 -7.6 2.4 -6.9 2.6 1 7.1 -5.4 6.1 -8.6 -0.4 -1.2 0.1 -2.6 1.4 -3.9 1 -1 1.7 -2.1 1.5 -2.4 -0.3 -0.2 0.8 -0.7 2.4 -1 2.7 -0.5 3 -1 3.4 -5.8 0.3 -2.8 1.1 -5.5 1.8 -5.9 0.7 -0.4 0.9 -1.3 0.6 -1.9 -0.5 -0.7 0.4 -1.6 2.3 -2.2 1.7 -0.6 3.1 -1.7 3.1 -2.3 0 -1.8 3 -4.2 6.3 -5 1.8 -0.4 2.8 -1.3 2.6 -2.4 -0.3 -3.3 0.1 -4.2 2.1 -4.2 1.1 0 2.7 -1.1 3.6 -2.5 1.5 -2.2 1.8 -2.3 3.7 -1 1.8 1.3 2.2 1.2 3.3 -0.3 0.8 -0.9 1.4 -2.8 1.4 -4.1 0 -1.9 0.4 -2.2 2.4 -1.7 1.9 0.5 2.5 0.1 3 -1.9 0.7 -2.6 3 -2.5 5.3 0.2 1.3 1.6 3.3 0.9 3.3 -1.1 0 -1.8 3.3 -4.6 5.3 -4.6 0.9 0 1.7 -0.4 1.7 -0.8 0 -0.4 1.5 -0.6 3.3 -0.5 2.4 0.3 4 -0.3 6.6 -2.7 1.8 -1.6 4 -3 4.7 -3 0.8 0 1.4 -0.7 1.4 -1.5 0 -0.8 0.7 -1.5 1.5 -1.5 2.2 0 1.9 6 -0.9 16.5 -4 14.6 -4.7 15.8 -10.3 17.3 -4.7 1.3 -9.3 3.2 -10.3 4.2 -1.6 1.6 -7.1 5 -8 5 -1.8 0 -4 2.7 -4 4.9 0 1.4 -0.6 2.1 -2 2.1 -1.1 0 -2 0.6 -2 1.3 0 0.8 -1.1 1.9 -2.5 2.5 -1.5 0.7 -2.5 2 -2.5 3.2 0 1.5 -0.7 2 -2.5 2 -2 0 -2.5 0.5 -2.5 2.4 0 1.3 -0.3 3.8 -0.6 5.5 -0.6 2.6 -1.1 3.1 -3.5 3.1 -2.6 0 -2.9 0.3 -2.9 3.5 0 3.2 -0.2 3.5 -3 3.5 -3 0 -3 0.1 -3 5.4 0 5.2 -0.1 5.5 -2.7 5.8 -2.5 0.3 -2.8 0.7 -3.1 4.6 -0.3 4.1 -0.6 4.4 -5 6.4 -12.9 5.6 -25.2 8.5 -25.2 5.8z"/>
  <path d="M271.3 142.2 c-3.6 -1.4 -4.3 -2.1 -4.3 -4.3 0 -2 -0.7 -3 -3 -3.9 -1.8 -0.7 -3 -2 -3 -3.1 0 -1 -0.4 -2.1 -1 -2.4 -0.5 -0.3 -1 -2.1 -1 -3.8 0 -2 -0.8 -3.9 -2 -5 -1.1 -0.9 -2 -2.4 -2 -3.2 0 -0.8 -0.5 -1.5 -1 -1.5 -2.5 0 -6.7 -5.7 -7.6 -10.4 -0.6 -3.2 -1.6 -5.3 -2.9 -6 -1 -0.6 -2.5 -1.7 -3.3 -2.3 -0.7 -0.7 -1.8 -1.3 -2.3 -1.3 -0.5 0 -0.9 -0.9 -0.9 -2 0 -1.6 -0.7 -2 -3 -2 -2.2 0 -4.1 -1 -6.5 -3.4 -1.9 -1.9 -4.7 -3.6 -6.2 -3.8 -2 -0.2 -2.9 -0.9 -3.1 -2.5 -0.3 -1.8 -1 -2.3 -3.2 -2.3 -2 0 -3.5 -0.8 -4.6 -2.5 -0.9 -1.4 -2.5 -2.5 -3.6 -2.5 -2.5 0 -5.8 -1.7 -8.2 -4.2 -3.9 -4.2 -7 -19.1 -4.6 -22.8 0.8 -1.2 1 -1.1 1 0.7 0 1.2 0.5 2.5 1 2.8 0.6 0.3 1 -0.1 1 -0.9 0 -2 3.6 -2 7 -0.1 1.4 0.7 2.9 1 3.5 0.5 1.2 -1 6.5 -0.1 6.5 1.2 0 1.7 8.2 8.9 9.6 8.4 0.8 -0.3 1.4 -0.2 1.4 0.2 0 0.4 1 1.3 2.2 2.1 1.9 1.2 2.4 1.1 3.8 -0.7 1.9 -2.3 4 -1.3 4 1.9 0 2 2.9 3.4 4.3 2 1.2 -1.2 5.7 1.6 5.7 3.6 0 0.8 0.8 2.5 1.9 3.8 1.6 2.1 2 2.2 3.7 1.1 1.2 -0.9 2.7 -1.1 4.2 -0.5 2.6 1 2.8 2.2 0.7 3.9 -2.1 1.8 -0.3 4.5 3.1 4.5 2.3 0 2.8 0.5 3.1 2.9 0.2 1.7 0.8 3.7 1.3 4.5 0.8 1.4 0.9 1.4 1 -0.1 0 -2.3 1.8 -3.2 3.5 -1.8 0.8 0.7 2.7 0.9 4.9 0.4 2.9 -0.5 3.6 -0.3 3.6 1 0 1.1 0.9 1.6 2.8 1.6 4.1 0 7.2 2.6 7.2 6.1 0 2.6 -0.2 2.8 -1.9 1.7 -1.5 -0.9 -2.4 -0.8 -4.5 0.5 -3.3 2.2 -3.3 3.4 0 6.8 2.6 2.7 2.6 2.8 0.7 4 -1.8 1.1 -1.9 1.4 -0.6 4 0.8 1.5 2.3 3.1 3.3 3.4 1.6 0.5 1.8 1 1 2.5 -1.8 3.5 -1.1 5.8 2.6 8 3.3 2.1 3.4 2.3 1.8 4.1 -1.5 1.7 -1.5 1.9 1 4.2 l2.6 2.5 -2.2 0.7 c-1.3 0.5 -3.9 1.1 -5.8 1.5 -3.2 0.7 -3.3 0.8 -1.3 1.5 1.3 0.4 2 1.1 1.7 1.6 -0.8 1.4 -8.4 0.8 -13.1 -0.9z m3.6 -43.1 c0.8 -0.5 1 -1.4 0.6 -2.1 -0.5 -0.8 -0.1 -1.8 1 -2.6 1.7 -1.2 1.6 -1.4 -0.9 -2.5 -3.1 -1.5 -3.7 -1 -3.8 2.7 -0.1 5.7 0.3 6.3 3.1 4.5z"/>
 </g>
 <g fill="#fd93f2">
  <path d="M164.4 236.5 c-0.4 -1 -1.4 -1.3 -3 -0.9 -1.9 0.5 -2.4 0.2 -2.4 -1.3 0 -1 0.5 -2.4 1.1 -3 0.8 -0.8 0.8 -1.7 -0.1 -3.3 -1.1 -2 -1.3 -2 -2.9 -0.6 -2.5 2.3 -5.4 2 -8.1 -0.9 -1.3 -1.4 -2.9 -2.5 -3.6 -2.5 -0.6 0 -1.7 -0.7 -2.4 -1.5 -0.9 -1.1 -1.6 -1.3 -2.3 -0.6 -0.7 0.7 -1.6 0.6 -2.8 -0.5 -0.9 -0.8 -2.6 -1.6 -3.8 -1.7 -1.4 -0.1 -2.2 -1 -2.7 -3 -0.7 -3.3 -4.5 -7.7 -6.6 -7.7 -1.1 0 -1.4 -0.8 -1.2 -2.9 0.3 -2.4 -0.3 -3.3 -4.1 -5.7 -2.5 -1.5 -4.5 -3.4 -4.5 -4.1 0 -0.7 -0.7 -1.3 -1.5 -1.3 -0.8 0 -1.5 -0.5 -1.5 -1.2 0 -0.6 -0.7 -1.9 -1.6 -2.9 -0.8 -0.9 -1.6 -2.3 -1.8 -3.1 -0.1 -0.7 -1 -2.5 -2 -4.1 -1.1 -1.6 -1.6 -3.7 -1.3 -5.3 0.3 -1.6 0 -2.8 -0.9 -3.1 -2.5 -0.9 -1.5 -2.3 1.8 -2.3 3.4 0 13.2 5.3 22.8 12.4 13.4 9.8 33 33.2 33 39.3 0 1.3 0.6 2.3 1.3 2.3 1.8 0 3.7 4.3 3.7 8 0 3.1 -1.7 4.1 -2.6 1.5z"/>
  <path d="M207 224.7 c0 -4.3 2.6 -8.6 12.2 -20.3 11.9 -14.5 37.2 -32.4 45.8 -32.4 3.1 0 4.1 1.4 1.6 2.3 -0.9 0.4 -1.2 1.4 -0.9 2.5 0.8 3.3 -1.4 6.3 -4.5 6 -2.4 -0.3 -2.7 0 -2.7 2.7 0 3.7 -1.3 5.8 -3.1 5.1 -0.8 -0.3 -1.4 -0.1 -1.4 0.4 0 1.7 -6 7.1 -7.1 6.4 -0.8 -0.5 -1 0.6 -0.5 3.9 0.6 4.2 0.5 4.5 -1.2 4 -1.5 -0.3 -2.3 0.3 -3.3 2.5 -0.7 1.7 -1.7 2.8 -2.1 2.6 -0.4 -0.3 -0.8 0 -0.8 0.5 0 0.6 -0.5 1.1 -1.1 1.1 -0.7 0 -3.2 1.6 -5.5 3.6 -3 2.4 -5.4 3.5 -7.6 3.5 -4.8 0.1 -7.7 1.7 -7.1 4.1 0.4 1.1 -0.2 2.4 -1.3 3.3 -1.6 1.2 -2.2 1.2 -4.2 -0.1 -2.2 -1.4 -2.5 -1.4 -3.8 0.3 -1.2 1.6 -1.3 1.5 -1.4 -2z"/>
  <path d="M258 136.2 c-12.6 -6.3 -22 -13.2 -32.5 -23.7 -10.8 -10.7 -17.4 -19.9 -23.8 -32.9 -5.7 -11.5 -6.4 -21.3 -1.1 -14 2.3 3.1 7 5.7 8.6 4.8 0.6 -0.4 2.3 0.8 3.9 2.7 2.5 3 3 3.3 4.8 2.2 3.1 -1.9 5.5 -1.7 4.6 0.5 -1.6 3.8 -1.1 4.7 2.5 4.7 2 0 3.5 0.5 3.5 1.2 0 2.2 5.1 5.9 8.1 5.8 2.3 0 3 0.5 3.2 2.3 0.2 1.2 0.7 2.2 1.2 2.2 0.5 0 1.5 0.6 2.2 1.3 0.8 0.6 2.3 1.7 3.3 2.3 1.1 0.6 2.2 2 2.4 3 0.1 1 1 2.7 1.9 3.7 1.2 1.3 1.3 2 0.4 2.9 -0.9 0.9 -0.4 1.8 1.8 4 1.6 1.5 3.4 2.8 3.9 2.8 0.5 0 1.2 1.1 1.5 2.4 0.3 1.4 1.5 2.8 2.6 3.1 1.7 0.5 2 1.2 1.5 3.9 -0.5 2.3 -0.2 3.6 0.9 4.5 0.8 0.7 1.3 1.8 1 2.5 -0.3 0.8 0.7 1.8 2.5 2.5 3.2 1.4 4.4 3.2 3.5 5.6 -0.4 0.9 0 1.5 1 1.5 0.9 0 1.6 0.5 1.6 1 0 2.3 -7.8 0.9 -15 -2.8z"/>
  <path d="M103 136.1 c0 -0.5 0.7 -1.2 1.6 -1.5 1.3 -0.5 1.5 -1.5 1 -4.4 -0.5 -3.4 -0.3 -4 2.3 -5.5 2.2 -1.3 3 -1.4 3.4 -0.5 0.3 0.7 0.6 -0.1 0.6 -1.7 0.1 -2.1 -0.6 -3.4 -2 -4.4 l-2.2 -1.3 2.7 -1.7 c1.5 -1 3.8 -1.6 5.1 -1.3 2.3 0.4 2.5 0.2 2.5 -3.8 0 -4.2 0.1 -4.2 2.9 -3.7 2.6 0.5 2.9 0.3 3.5 -2.4 0.3 -1.7 0.3 -4.1 0 -5.3 -0.3 -1.4 0.1 -2.7 1 -3.5 1.1 -0.9 1.6 -1 1.6 -0.2 0 0.6 0.7 1.1 1.5 1.1 0.8 0 1.5 -0.9 1.5 -2 0 -1.2 1 -2.5 2.4 -3.1 1.3 -0.6 2.7 -2 2.9 -3 0.3 -1.3 1.1 -1.7 2.1 -1.3 1.2 0.4 1.6 0 1.6 -1.6 0 -2.2 2.6 -5.5 4.4 -5.5 1 -0.1 6.4 -3.2 7.6 -4.5 1.2 -1.3 5.1 -3 6.8 -3 1 0 2.7 -0.6 3.7 -1.4 1.1 -0.8 2.5 -1.2 3.2 -0.9 0.7 0.3 1.6 -0.2 1.9 -1.1 1.1 -2.8 2.4 -1.7 2.4 1.9 0 10.6 -20.6 39.5 -37.6 52.6 -9.2 7.1 -21.5 13.9 -25.1 13.9 -1.8 0 -3.3 -0.4 -3.3 -0.9z"/>
 </g>
 <g fill="#fd69f0">
  <path d="M179 234.8 c-1.4 -4.8 -9.2 -20.9 -12.1 -25 -1.1 -1.4 -1.9 -4.2 -1.9 -6.1 0 -3.2 0.3 -3.5 3.8 -4.1 7.4 -1.2 8.9 -0.8 10.1 2.4 0.8 2.6 1.5 3 4.5 3 2.8 0 4.4 -0.9 8 -4.5 2.5 -2.5 4.6 -4.9 4.6 -5.5 0 -1.1 6.9 -1.4 9.4 -0.4 2.9 1.1 1.8 6.3 -2.8 13.3 -5.3 7.9 -11.9 21 -13.6 26.9 -1.2 4 -1.5 4.2 -5 4.2 -3.5 0 -3.8 -0.2 -5 -4.2z"/>
  <path d="M107.8 160.7 c-6.3 -2.8 -6.8 -3.3 -6.8 -6.1 0 -3 0.4 -3.3 8.8 -6.9 4.9 -2 10.5 -3.7 12.5 -3.7 l3.7 0 0 5 c0 3.6 -0.4 5.2 -1.5 5.6 -1 0.4 -1.5 2 -1.5 5 l0 4.4 -4.2 -0.1 c-2.5 -0.1 -7.2 -1.4 -11 -3.2z"/>
  <path d="M250.2 159.5 c-0.6 -1.4 -1.6 -2.5 -2.2 -2.5 -1.5 0 -1.2 -6.2 0.4 -8.2 1.8 -2.5 6.8 -2.3 13.8 0.4 5.3 2.1 5.8 2.5 5.8 5.4 0 2.7 -0.5 3.3 -5.3 5.2 -7.2 3 -11.1 2.9 -12.5 -0.3z"/>
  <path d="M181.4 98 c-2.9 -0.4 -5.7 -1.1 -6.3 -1.4 -1.8 -1.1 -1.3 -9.3 0.8 -13.4 1 -2 2.4 -5.6 3.1 -8 1.3 -4 1.5 -4.2 5.2 -4.2 2.9 0 3.8 0.4 3.8 1.6 0 0.9 1.6 5.4 3.6 10 2.5 5.8 3.4 9.4 3.2 12.1 -0.3 3.7 -0.4 3.8 -4.3 3.9 -2.2 0.1 -6.3 -0.2 -9.1 -0.6z"/>
 </g>
 <g fill="#fd51f0">
  <path d="M177.4 207.6 c-1.4 -0.4 -2.3 -1.4 -2.1 -2 0.9 -2.3 -0.7 -3.4 -4.1 -2.9 -2.3 0.4 -3.2 1 -2.8 1.9 0.4 0.9 -0.2 1.4 -1.8 1.4 -1.6 0 -3.3 -1.4 -5.6 -4.7 -8.1 -11.2 -30.7 -30.2 -42.2 -35.4 -3.6 -1.6 -4.1 -6 -0.6 -5.1 2 0.5 2.1 0.2 1.5 -3.7 -0.4 -3.4 -0.2 -4.3 1.4 -5.1 2.7 -1.5 2.6 -5.4 -0.1 -4.7 -1.6 0.4 -2 0 -2 -1.9 0 -1.3 0.4 -2.4 0.9 -2.4 2.4 0 20.1 -12.9 27.7 -20.2 9.6 -9.3 15.8 -17 21.8 -27.5 2.9 -5.2 4.7 -7.2 6.1 -7.3 1.6 0 2.1 0.6 2 2.7 0 1.5 0.6 2.8 1.3 2.9 0.6 0.1 1.3 0.3 1.5 0.4 0.1 0.2 1.8 0.4 3.7 0.6 1.9 0.2 4.4 0.4 5.5 0.6 1.5 0.2 2 -0.2 1.9 -1.9 0 -1.7 0.5 -2.3 2 -2.3 1.5 0.1 3.6 2.5 7.6 8.8 3.5 5.5 9.5 12.7 16.5 19.8 11.3 11.3 17.6 16.1 30.2 23 4.8 2.5 7.3 4.5 7.3 5.7 0 0.9 -0.6 1.7 -1.3 1.7 -0.7 0 -1.8 0.9 -2.5 2 -0.7 1.2 -0.8 2 -0.2 2 0.6 0 1.6 1.1 2.2 2.5 0.7 1.5 1.7 2.4 2.5 2.1 0.8 -0.4 1.3 0.3 1.3 1.7 0 1.7 -1.2 2.8 -5.1 4.5 -10.3 4.8 -25.2 15.8 -35.2 26.1 -5.4 5.6 -10.6 10.1 -11.6 10.1 -0.9 0 -2.3 0.6 -3 1.3 -0.8 0.6 -0.6 0 0.3 -1.4 1.5 -2.4 1.5 -2.7 0.1 -3.3 -2.2 -0.8 -3.6 -0.8 -3.2 0.2 0.1 0.4 -2 2.9 -4.8 5.6 -4.5 4.5 -5.4 5 -9.7 5 -2.6 0.1 -5.9 -0.3 -7.4 -0.8z m17.9 -23.4 c0.7 -3.3 4.1 -5.2 9.3 -5.2 4.3 0 7.3 -3.1 7.4 -7.4 0 -3.6 2.6 -6.6 5.7 -6.6 1.2 0 2.3 -0.4 2.3 -1 0 -0.5 0.7 -1 1.5 -1 0.8 0 1.5 -0.4 1.5 -1 0 -0.5 0.5 -1 1.1 -1 0.6 0 1.7 -0.7 2.5 -1.5 1.4 -1.3 1.3 -1.5 -0.4 -1.5 -1.6 0 -2.1 -1 -2.6 -6 l-0.7 -6 -3.4 0 c-2.8 0 -3.5 -0.4 -3.5 -1.9 0 -1 -0.7 -2.4 -1.5 -3.1 -0.8 -0.7 -1.5 -1.8 -1.5 -2.5 0 -0.6 -0.9 -2.2 -2 -3.5 -1.1 -1.3 -2 -2.8 -2 -3.3 0 -2.3 -3.4 -4.7 -6.7 -4.7 -2.3 0 -3.3 -0.5 -3.3 -1.6 0 -2.3 -2.5 -4.4 -5.5 -4.4 -1.4 0 -3.6 -0.9 -4.8 -2 -1.2 -1.2 -2.3 -1.6 -2.5 -1 -0.2 0.5 -1.2 1 -2.2 1 -0.9 0 -2.3 0.7 -3 1.5 -0.7 0.8 -2.1 1.5 -3.1 1.5 -1 0 -2.1 0.5 -2.4 1 -0.3 0.6 -1.5 1 -2.5 1 -1.1 0 -2.4 0.9 -3 2 -0.6 1.1 -2.1 2 -3.5 2 -1.5 0 -2.6 0.7 -3 2 -0.3 1.1 -1.7 2.3 -3 2.6 -1.8 0.4 -2.5 1.4 -2.7 3.7 -0.3 2.8 -0.7 3.2 -3.4 3.5 -3.6 0.3 -3.7 0.8 -5 16.3 -0.6 7.4 -0.6 7.6 1.7 8.2 1.3 0.4 3.8 0.7 5.5 0.7 2.9 0 3.2 0.4 3.9 3.6 1 5.8 2.5 7.3 7.7 8 2.6 0.4 4.9 1.3 5.2 2 0.3 0.8 1.9 1.4 3.6 1.4 1.6 0 3 0.4 3 0.8 0 0.5 1.3 0.7 2.9 0.4 3.9 -0.5 9.1 1.8 9.1 4 0 2.9 2.7 2 3.3 -1z"/>
 </g>
 <g fill="#fd27ee">
  <path d="M180.7 303.8 c-1 -0.8 -2 -3.4 -2.4 -6.2 l-0.6 -4.9 5.2 0.6 c6.8 0.8 7.4 1.3 6.5 5 -1.2 5.9 -5 8.2 -8.7 5.5z"/>
  <path d="M187 190.7 c0 -0.9 0.5 -1.9 1 -2.2 1.6 -1 1.2 -1.9 -1.4 -3.1 -2.1 -1 -2.5 -0.9 -2.9 0.7 -0.7 2.7 -3.2 2.4 -5.5 -0.6 -1.1 -1.4 -2.2 -2.1 -2.4 -1.5 -0.5 1.6 -4.7 -0.1 -5.4 -2.2 -0.5 -1.6 -0.8 -1.8 -1.5 -0.7 -0.5 0.8 -0.9 0.9 -0.9 0.3 0 -0.7 -1.7 -1.5 -3.7 -1.9 -4.3 -0.8 -5.9 -2.6 -6.8 -7.5 -0.4 -2.6 -1.1 -3.6 -2.6 -3.7 -1 -0.1 -1.9 0.3 -1.9 0.8 0 0.5 -1.1 0.2 -2.4 -0.7 -1.4 -0.8 -2.9 -1.4 -3.3 -1.2 -0.4 0.2 -0.9 -0.9 -1.1 -2.4 -0.2 -1.6 -0.8 -2.8 -1.4 -2.8 -0.6 0 -0.8 -0.3 -0.5 -0.7 0.4 -0.3 0.2 -1.2 -0.4 -2 -0.9 -1 -0.7 -1.3 0.7 -1.4 1.1 0 1.4 -0.3 0.7 -0.6 -1.8 -0.7 -1.6 -2.3 0.3 -4.4 1.5 -1.7 1.5 -1.9 -1 -3 -3.3 -1.5 -3.3 -3.5 -0.1 -4.3 1.6 -0.4 2.2 -1.1 1.9 -2.1 -0.4 -0.8 -0.1 -1.5 0.5 -1.5 0.6 0 1.1 -1.3 1.1 -2.9 0 -2.6 0.3 -2.9 3.2 -2.7 2.7 0.1 3.3 -0.3 3.4 -1.9 0.2 -3.9 0.4 -4.3 2.8 -4.9 1.4 -0.3 2.8 -1.5 3.1 -2.6 0.6 -1.9 1.6 -2.4 4.3 -2.1 0.6 0.1 1.7 -0.9 2.3 -2.3 0.7 -1.6 1.8 -2.3 3 -2.1 1 0.2 2.3 -0.3 2.9 -1 0.6 -0.8 1.7 -1.2 2.5 -0.9 0.7 0.3 2 -0.4 2.8 -1.6 0.9 -1.3 2 -1.8 3.1 -1.4 1.1 0.4 1.6 0.1 1.6 -1 0 -0.9 0.7 -1.6 1.6 -1.6 2.2 0 8.4 3 8.4 4.1 0 1.4 2.2 1 4.1 -0.7 1.7 -1.5 1.9 -1.4 2.5 1 0.3 1.4 1 2.6 1.5 2.6 0.5 0 0.9 0.9 0.9 2.1 0 1.8 0.4 2 3 1.4 2.4 -0.5 3.4 -0.2 5 1.7 1.1 1.2 1.9 2.8 2 3.4 0 0.6 0.9 2.1 2 3.4 1.1 1.3 2 2.9 2 3.5 0 0.7 0.7 1.8 1.5 2.5 0.8 0.7 1.5 2.2 1.5 3.3 0 1.9 0.1 1.9 1.9 0.3 1.1 -1 2.4 -1.5 3 -1.2 0.5 0.3 1.2 0 1.4 -0.6 0.6 -1.5 1 1.4 0.7 5.3 -0.1 2.1 0.4 2.8 2.6 3.3 1.9 0.5 2.4 1 1.6 1.8 -0.6 0.6 -0.8 1.6 -0.5 2.3 0.2 0.7 -0.4 1.5 -1.4 1.8 -1.2 0.3 -1 0.5 0.8 0.6 3.4 0.1 4.3 3.2 1.8 6 -1.1 1.1 -1.9 2.5 -1.9 3 0 0.6 -0.7 0.8 -1.5 0.5 -0.8 -0.4 -1.5 -0.1 -1.5 0.5 0 0.6 -0.7 1.1 -1.5 1.1 -2.1 0 -1.9 2.6 0.2 3.4 1.5 0.6 1.5 0.8 0.3 1.6 -0.8 0.5 -1.7 0.5 -2 0.1 -0.3 -0.4 -1.5 -1.3 -2.6 -1.9 -1.7 -0.9 -2.5 -0.8 -3.7 0.6 -1.1 1.2 -1.3 2.2 -0.7 3.2 1.1 1.7 1.4 5.7 0.3 4.7 -0.9 -0.9 -4.3 2.2 -4.3 4 0 0.9 -1.2 1.2 -4.2 0.9 -6.6 -0.6 -10.5 2.1 -9.6 6.5 0.2 0.9 -0.7 1.4 -2.7 1.5 -1.6 0.1 -4.2 0.4 -5.7 0.9 -2.2 0.5 -2.8 0.4 -2.8 -0.8z"/>
 </g>
 <g fill="#fd07be">
  <path d="M185 297.4 c-1.9 -0.7 -4.3 -1.3 -5.2 -1.3 -1.3 -0.1 -1.8 -1.4 -2.3 -5.8 -0.4 -3.2 -1.4 -10.4 -2.4 -16 l-1.7 -10.3 3.2 0 c2.1 0 3.7 0.6 4.3 1.7 0.7 1.4 1.2 1.5 2.4 0.4 0.9 -0.7 3.4 -1.1 5.9 -0.9 3.9 0.3 4.3 0.5 4.2 2.8 -0.3 5.1 -3.7 29.5 -4.3 30.1 -0.3 0.3 -2.2 0 -4.1 -0.7z"/>
  <path d="M59.5 162.5 c-6.6 -1.2 -12.8 -2.6 -13.7 -3 -3.4 -1.4 -3.4 -7.6 0 -9.4 0.9 -0.5 4.3 -1.2 7.6 -1.6 l5.8 -0.8 -0.3 4.1 -0.4 4 5.2 -0.5 c4.4 -0.5 5.6 -0.2 8.2 1.8 2 1.6 3 3.3 3 5.2 0.1 3.2 0.7 3.2 -15.4 0.2z"/>
  <path d="M301 161.2 c0 -3.5 1.3 -4.2 7.8 -4.2 3.6 0 4.3 -0.3 3.4 -1.2 -0.7 -0.7 -1.2 -2.7 -1.2 -4.6 l0 -3.4 4.3 0.7 c7.6 1.3 10.5 4.2 8.8 8.9 -1 2.5 -3.3 3.2 -15.6 5.2 -2.2 0.3 -4.8 0.8 -5.7 1.1 -1.4 0.3 -1.8 -0.2 -1.8 -2.5z"/>
  <path d="M296 147.4 c0 -1.9 0.4 -2.4 1.8 -2 0.9 0.2 3.2 0.7 5 1.1 5.3 1.1 4.1 3.5 -1.8 3.5 -4.7 0 -5 -0.2 -5 -2.6z"/>
  <path d="M176 31.3 c0 -4.3 1.1 -7.3 2.6 -7.3 1 0 1.4 1.4 1.4 5 0 4.3 -0.3 5 -2 5 -1.5 0 -2 -0.7 -2 -2.7z"/>
  <path d="M179.3 18.3 c-2.5 -0.9 -0.9 -10.7 2 -12.5 1.9 -1.2 5.4 -0.9 6.6 0.6 0.6 0.8 1.4 3.6 1.8 6.3 0.5 4.6 0.4 5 -1.8 5.6 -2.8 0.8 -6.8 0.8 -8.6 0z"/>
 </g>
 <g fill="#fd03a7">
  <path d="M181 270.2 c-1.4 -0.2 -2.9 -1 -3.3 -1.8 -0.4 -0.8 -1.4 -1.4 -2.2 -1.4 -0.8 0 -1.9 -1.8 -2.5 -4.2 -1.7 -6.8 -5.9 -19.9 -8 -25 l-2 -4.8 3.6 0 c5.6 0 7.4 1.5 7.4 6 0 4 0 4 4 4 2.2 0 4 0.5 4 1 0 1.9 4.8 1.1 5.5 -0.9 0.6 -2.1 6.6 -6.1 9.1 -6.1 1 0 1.4 -1.3 1.4 -4.6 0 -5.6 1.7 -7.3 7.3 -7.4 2 0 3.7 0.2 3.7 0.5 0 0.3 -1.5 3.6 -3.4 7.3 -4.3 8.7 -7.9 18.7 -10.2 28.7 -1 4.4 -1.9 8.1 -2 8.3 -0.1 0.1 -1.3 -0.2 -2.6 -0.9 -2 -0.9 -3.1 -0.8 -4.9 0.3 -1.3 0.8 -3.5 1.3 -4.9 1z"/>
  <path d="M157.1 222.9 c-1.7 -2.8 -3.1 -5.2 -3.1 -5.5 0 -0.6 5.6 -0.5 7.4 0.2 1.2 0.4 1.6 2 1.6 5.5 0 6.5 -1.8 6.4 -5.9 -0.2z"/>
  <path d="M135 195.8 c-16.2 -14.3 -34.7 -24.1 -55.2 -29.2 -8.1 -2.1 -11.9 -3.6 -8.9 -3.6 0.7 0 -0.1 -1.2 -1.8 -2.6 -3.1 -2.6 -3.2 -2.6 -8.1 -1 -2.7 0.9 -6.3 1.6 -7.9 1.6 -2.5 0 -3 -0.4 -2.8 -2 0.2 -1.1 1.6 -3.4 3.3 -5.1 2.6 -2.7 2.7 -3.2 1.3 -4.3 -1.4 -1 0.5 -1.5 11 -3.3 11.9 -2 25.7 -5.9 34.3 -9.7 l3.7 -1.6 0.6 5.4 c0.4 3 0.4 6.3 0 7.5 -0.5 1.8 -0.2 2.1 1.9 2.1 3.5 0 3.4 2.6 -0.1 3.5 l-2.8 0.7 2.8 1.4 c2.7 1.4 3.7 3.4 1.7 3.4 -0.5 0 -1 0.5 -1 1 0 0.6 0.9 1 2.1 1 3.2 0 5.9 1.9 5.9 4 0 1.3 0.7 2 2 2 1.1 0 2 0.7 2 1.5 0 3 3 7.5 5 7.5 1.1 0 2 0.4 2 0.8 0 0.5 1.1 1.5 2.5 2.2 1.9 1 2.5 2.1 2.5 4.7 0 3.1 0.2 3.3 3.3 3.3 4.3 0 6.7 2.6 6.7 7.1 0 5.7 -1.1 6 -6 1.7z"/>
  <path d="M242 185.1 c0 -1.6 0.3 -4.3 0.6 -6 0.6 -2.7 1.1 -3.1 3.9 -3.1 3 0 3.3 -0.3 3.9 -4 0.3 -2.2 1 -4 1.4 -4 0.5 0 1.5 -1.1 2.2 -2.5 0.7 -1.4 2.2 -2.5 3.2 -2.5 1.9 0 2.4 -1.5 0.8 -2.5 -2 -1.2 -0.9 -2.7 3 -4.3 l4.1 -1.5 -3.1 -1.3 c-4.8 -2 -4 -3.1 4.4 -5.8 1.3 -0.4 1.6 -1.1 1 -2.4 -0.4 -0.9 -0.9 -3.5 -1.2 -5.6 -0.4 -3.5 -0.2 -3.8 1.4 -3.1 5.3 2.1 18.6 6.4 23.4 7.4 3 0.7 6.4 1.6 7.5 2.1 1.1 0.5 5 1.2 8.8 1.5 5.4 0.5 6.7 1 6.7 2.4 0 0.9 1.3 3 3 4.6 l3 2.9 -2.8 1.8 c-1.9 1.3 -3.7 1.7 -6 1.3 -3.7 -0.7 -7.5 0.2 -6.7 1.5 0.3 0.5 -0.4 1.2 -1.7 1.4 -23.3 4.7 -39.7 11 -54 20.7 -3.1 2.2 -5.9 3.9 -6.2 3.9 -0.4 0 -0.6 -1.3 -0.6 -2.9z"/>
  <path d="M174.1 42.8 c0.4 -2.4 0.8 -4.6 0.9 -5 0 -0.5 0.7 -0.8 1.5 -0.8 1.1 0 1.5 1.2 1.5 5 0 4.6 -0.2 5 -2.4 5 -2.2 0 -2.3 -0.2 -1.5 -4.2z"/>
  <path d="M177.3 22.9 c0.9 -9.8 1.3 -11.2 2.6 -9.1 0.9 1.4 3.2 1.7 7.2 0.8 2.4 -0.5 2.7 -0.3 3.3 3.2 1.6 9.9 -0.2 12.6 -9.1 13.8 l-4.9 0.6 0.9 -9.3z"/>
 </g>
 <g fill="#fd0298">
  <path d="M180.7 249.8 c-0.9 -0.5 -1.7 -1.6 -1.7 -2.4 0 -1.1 -1 -1.4 -3.7 -1.2 l-3.8 0.3 -0.5 -4.5 c-0.4 -4 -0.9 -4.6 -3.5 -5.4 -3.9 -1.1 -8.5 -8.9 -7.8 -12.9 0.5 -2.5 -0.2 -3.2 -2.9 -2.8 -0.4 0 -2.6 -2.6 -4.8 -5.8 -2.2 -3.3 -6.5 -8.7 -9.6 -12 -4 -4.3 -5.4 -6.6 -5 -7.9 0.9 -2.6 -2.5 -5.5 -5.5 -4.8 -1.4 0.4 -3.2 -0.1 -4.4 -0.9 -1.7 -1.4 -1.8 -1.8 -0.6 -3.7 1.1 -1.8 1.1 -2.2 -0.2 -3 -0.9 -0.5 -2.3 -1.5 -3.1 -2.3 -0.8 -0.8 -2.1 -1.3 -2.8 -1 -1.4 0.6 -4.8 -5.1 -4.8 -8 0 -0.9 -0.9 -1.5 -2.3 -1.5 -3 0 -4 -1 -2.6 -2.6 0.8 -0.9 0.5 -1.6 -1.2 -2.5 -1.9 -1 -2.5 -0.9 -3.5 0.6 -1.2 1.6 -1.3 1.6 -1.9 -0.6 -0.3 -1.3 -0.7 -3.7 -0.8 -5.4 -0.3 -4.4 2.3 -4.3 12.3 0.5 19.5 9.5 38.9 25.4 50 41.2 5.7 8.1 14.1 24 16 30.6 0.7 2.3 1.6 4.2 2 4.2 0.4 0 1.3 -1.9 1.9 -4.2 2.1 -7 11 -23.5 17.1 -31.7 11.9 -15.8 28.6 -29.6 47.4 -38.9 10.1 -5 12.1 -4.9 12.1 0.9 0 2.7 -0.4 3.5 -2.1 3.7 -1.2 0.2 -2.7 1.4 -3.4 2.8 -0.7 1.3 -1.7 2.4 -2.1 2.4 -0.4 0 -1.1 1.4 -1.4 3.2 -0.6 2.3 -0.3 3.5 0.8 4.3 1.4 1 1.2 1.4 -1.5 3 -3.1 1.8 -3.2 1.8 -4.9 -0.3 -1.7 -2.2 -1.7 -2.2 -2.4 1.7 -0.4 2.7 -1.5 4.5 -3.8 6.1 -11.2 8.2 -22.8 20.9 -30.3 33.1 -2 3.2 -4.4 5.9 -5.3 5.9 -2.7 0.1 -5.1 2.6 -5.1 5.4 0 1.4 0.5 2.6 1.1 2.6 0.7 0 0.9 1 0.4 2.7 -0.9 3.6 -1.4 4.1 -2.5 2.3 -0.7 -1.2 -1.4 -1.1 -4.5 0.6 -2.1 1 -4.2 2.9 -4.8 4.2 -0.6 1.3 -1.9 2.2 -3.3 2.2 -1.2 0 -2.9 0.6 -3.6 1.4 -1 0.9 -2 1.1 -3.1 0.4z"/>
  <path d="M266.9 156.3 c-0.1 -0.5 0 -1.8 0.1 -3.1 0.1 -2 -0.1 -2.1 -2.4 -1.1 -3.1 1.4 -8.2 -0.2 -19.6 -6.4 -11.1 -6 -17.7 -10.7 -26.2 -18.6 -8.1 -7.6 -8.3 -8.2 -4.6 -13 2.4 -3.2 2.4 -8.1 0 -8.1 -4.2 0 -8 -9.8 -5 -12.8 2.3 -2.3 4.3 -1.1 8.8 4.9 9.7 13.1 26.5 26.9 42.9 35.1 6.4 3.2 7.7 4.3 9.3 8 1.5 3.2 1.8 5 1.1 6.8 -0.6 1.7 -0.5 3.3 0.4 5 0.6 1.3 1.1 2.5 1 2.6 -1 0.7 -5.7 1.3 -5.8 0.7z"/>
  <path d="M97 153.5 c-0.7 -0.9 -1 -1.8 -0.7 -2.2 0.4 -0.3 0.2 -1.2 -0.3 -1.8 -0.6 -0.7 -0.8 -2 -0.4 -2.9 0.5 -1.2 1 -1.3 2.6 -0.5 2.8 1.5 3.7 -0.1 3.1 -5.4 l-0.5 -4.2 5.9 -2.9 c8.2 -4 20.9 -12.4 27.1 -18 5 -4.6 5.2 -4.7 5.2 -2.2 0 1.9 0.5 2.6 2 2.6 1.3 0 2.5 1.4 3.9 4.5 1.1 2.6 2.7 4.5 3.5 4.5 2.8 0 1.7 1.7 -3.6 6.3 -12.5 10.5 -33.2 21.7 -40.1 21.7 -2 0 -3.9 0.5 -4.2 1 -0.9 1.4 -2.1 1.2 -3.5 -0.5z"/>
  <path d="M274.2 91.2 l-5.4 -2.4 5.3 -2.4 c2.8 -1.4 5.4 -2.3 5.6 -2 0.2 0.2 0.3 2.4 0.1 4.8 l-0.3 4.4 -5.3 -2.4z"/>
  <path d="M301.2 92.1 c-0.8 -0.5 -1.2 -2.3 -1 -4.8 l0.3 -4 5.8 2.8 5.9 2.7 -4.7 2.1 c-2.6 1.2 -4.8 2.1 -4.9 2.1 0 0 -0.7 -0.4 -1.4 -0.9z"/>
  <path d="M288.1 73.8 c0 -0.7 0.6 -2.8 1.2 -4.6 l1.2 -3.2 1.6 4.5 1.7 4.5 -2.9 0 c-1.7 0 -2.9 -0.5 -2.8 -1.2z"/>
  <path d="M175.2 38.8 c0.8 -6.4 2.6 -13.5 2.7 -10.9 0.1 1.1 0.4 1.1 1.6 0.1 0.8 -0.7 2.1 -1 2.9 -0.7 0.8 0.3 2.2 -0.3 3.1 -1.3 2.4 -2.6 5.3 -1.4 6 2.4 0.2 1.7 0.9 5.8 1.5 9 0.5 3.3 1 6.1 1 6.3 0 0.2 -1.8 0.3 -4 0.3 -2.2 0 -4 -0.4 -4 -0.9 0 -0.5 -1 -1.3 -2.2 -1.7 -1.6 -0.5 -2.7 -0.1 -3.9 1.5 -0.9 1.1 -2.6 2.1 -3.6 2.1 -1.8 0 -1.9 -0.5 -1.1 -6.2z"/>
 </g>
 <g fill="#fd0285">
  <path d="M144 127.5 c-0.5 -0.6 -1.6 -2.8 -2.5 -4.7 -1.1 -2.7 -1.9 -3.5 -3.3 -3.1 -1 0.2 -2.4 -0.3 -3.1 -1.1 -0.9 -1.1 -1 -1.6 -0.2 -1.6 0.6 0 1.1 -0.8 1.1 -1.8 0 -1 2.5 -4.2 5.6 -7.2 6.5 -6.5 15.7 -19.6 20.8 -29.8 2.7 -5.4 4.2 -7.2 5.4 -7 1.3 0.2 1.8 1.5 2 5.1 0.4 5.5 -0.9 7.7 -4.5 7.7 -2.2 0 -2.4 0.2 -1.3 1.5 0.7 0.8 2.1 1.5 3.1 1.5 1.1 0 1.9 0.5 1.9 1.1 0 0.6 1.2 2.6 2.6 4.4 l2.6 3.4 -5.6 8.5 c-6.1 9.4 -19.7 24.3 -22.1 24.3 -0.8 0 -2 -0.6 -2.5 -1.2z"/>
  <path d="M208.5 116.8 c-6.6 -7.5 -14.9 -20.2 -19 -29.1 -1.9 -4.2 -3.5 -7.8 -3.5 -8.1 0 -1 7.1 -0.6 9.2 0.5 1.9 1 2 0.9 1.5 -1.2 -0.3 -1.3 -1.1 -4.6 -1.7 -7.3 -0.7 -2.6 -2.1 -5.7 -3.1 -6.7 -1 -1 -1.9 -2.5 -1.9 -3.2 0 -2.5 -2.5 -6.7 -4 -6.7 -0.8 0 -2.1 -0.9 -2.8 -2 -1.9 -3.2 -2.8 -2.4 -4.2 3.7 -2 8.7 -2.5 9.3 -7.1 9.3 -3.5 0 -4 -0.3 -3.4 -1.7 0.3 -1 1.7 -5.8 3 -10.6 1.3 -4.9 3.6 -10.8 5 -13.3 1.4 -2.4 2.3 -4.4 2 -4.4 -0.4 0 0.1 -0.7 1 -1.7 1.4 -1.4 1.8 -1.4 2.6 -0.2 0.5 0.8 0.9 2 0.9 2.7 0 0.6 0.9 1.2 1.9 1.2 1.1 0 2.6 0.7 3.5 1.5 0.8 0.8 2.3 1.5 3.4 1.5 1.5 0 2.1 0.9 2.6 3.8 2 12.5 8.8 30.6 16.1 42.5 4.2 6.8 4.3 7.2 2.4 8.5 -1.8 1.3 -1.8 1.4 0.3 4.3 1.2 1.6 3.1 2.9 4.3 2.9 2 0 2.1 0.4 1.7 5.8 -0.2 3.4 -1.1 6.8 -2.3 8.4 -1 1.5 -1.9 3.2 -1.9 3.8 0 2.1 -2 0.8 -6.5 -4.2z"/>
  <path d="M288.1 104.6 c-2.1 -5 -7 -10.7 -10.2 -11.8 -0.7 -0.2 -1.2 -1.9 -1.2 -3.6 0 -2.5 0.9 -4 4.2 -6.8 2.3 -2 5.1 -5.4 6.2 -7.5 2.6 -5.2 4.3 -5 7.2 0.7 0.9 1.7 3.2 4.5 5.1 6.2 2 1.7 3.6 4 3.6 5.1 0 1 0.7 2.1 1.5 2.5 2.1 0.8 1.9 2.4 -0.5 3.1 -3.9 1.2 -8.4 6 -11 11.8 l-2.6 5.8 -2.3 -5.5z"/>
  <path d="M175 85.5 c0 -6.4 1.7 -9.5 5.1 -9.5 l2.8 0 -1.4 3.9 c-2 5.6 -4.4 10.1 -5.5 10.1 -0.6 0 -1 -2 -1 -4.5z"/>
 </g>
 <g fill="#fe0071">
  <path d="M168.6 95.6 c-1.4 -1.9 -2.6 -4 -2.6 -4.6 0 -0.6 -0.5 -0.8 -1 -0.5 -0.6 0.4 -2.3 -0.4 -3.9 -1.8 -2.6 -2.1 -2.7 -2.6 -1.6 -4.8 0.8 -1.3 2.3 -2.6 3.6 -2.9 3.2 -0.8 4.7 -3.5 3.1 -6 -1.8 -3 2.2 -13.3 4.8 -12.5 2.3 0.7 3.2 -0.9 5 -8.7 l1.3 -5.8 3.9 0 c2.6 0 4.1 0.6 5 1.9 0.6 1 1.7 1.7 2.4 1.4 1.1 -0.4 2.1 1.2 5.2 8.9 0.7 1.6 1.6 2.8 2.1 2.8 0.5 0 1.2 1.9 1.6 4.3 0.4 2.3 1.3 5.1 2 6.2 0.7 1.1 1.1 3.8 1 6 -0.3 5.4 -0.4 5.7 -1.3 5.1 -0.5 -0.3 -1.5 0.6 -2.2 1.9 -1.8 3.3 -2.9 3.1 -3.6 -0.4 -0.7 -3.2 -3.3 -4.9 -4.5 -2.9 -0.8 1.3 -3.9 -4.7 -3.9 -7.7 0 -0.8 -0.4 -1.5 -1 -1.5 -0.5 0 -1 0.6 -1 1.4 0 0.8 -0.6 2.1 -1.3 2.8 -2.1 2.1 -3.7 5.4 -3.7 7.8 0 2.2 -4.4 11.5 -5.9 12.4 -0.5 0.3 -2.1 -1 -3.5 -2.8z"/>
 </g>
</svg>