<?xml version="1.0" encoding="utf-8"?>
<!DOCTYPE svg PUBLIC "-//W3C//DTD SVG 1.0//EN" "http://www.w3.org/TR/2001/REC-SVG-20010904/DTD/svg10.dtd">
<svg version="1.0" xmlns="http://www.w3.org/2000/svg" width="323px" height="341px" viewBox="0 0 323 341" preserveAspectRatio="xMidYMid meet">
 <g fill="#3bb86a">
  <path d="M56.4 326.5 c-6.9 -2.9 -10.8 -11.8 -8.9 -20.2 0.7 -2.9 1 -5.3 0.7 -5.3 -0.2 0 0 -0.6 0.6 -1.2 0.8 -1 2 -4.9 2.7 -8.8 0 -0.3 0.6 -1.5 1.3 -2.7 0.7 -1.3 1 -2.3 0.7 -2.3 -0.3 0 0.4 -1.8 1.5 -4 1.1 -2.2 1.7 -4 1.3 -4 -0.4 0 -0.2 -0.5 0.5 -1.2 0.7 -0.7 1.2 -1.9 1.2 -2.7 0 -2 14.1 -29.9 20.3 -40.2 19.8 -33.2 44.5 -61.6 80.7 -92.9 20.2 -17.5 22.6 -19.8 21.8 -20.5 -2.2 -2.2 -37.7 16.4 -55.3 28.9 -23.4 16.5 -56.4 51.1 -71 74.5 -0.6 0.9 -2.3 3.6 -4 5.9 l-2.9 4.4 -2.3 -4.8 c-1.3 -2.6 -2.3 -5.5 -2.3 -6.4 0 -0.9 -0.3 -2 -0.8 -2.4 -0.4 -0.4 -0.7 -1.1 -0.8 -1.4 0 -0.4 -0.6 -2 -1.2 -3.5 -0.7 -1.6 -0.9 -3.3 -0.6 -3.8 0.3 -0.6 0.1 -1.5 -0.4 -2.2 -0.5 -0.7 -1 -2.8 -1 -4.7 -0.1 -1.9 -0.5 -5.6 -1 -8.2 -1.1 -5.7 -0.4 -24.8 1 -27.4 0.2 -0.5 0.5 -2.7 0.7 -4.9 0.3 -5.5 5.7 -21.7 9.6 -29 1.8 -3.3 4.6 -8.6 6.4 -11.8 10.4 -19.3 37.2 -46.2 59.9 -60.2 0.9 -0.5 3.8 -2.4 6.4 -4.2 2.7 -1.7 5.9 -3.5 7.1 -3.9 1.2 -0.3 2.9 -1.2 3.7 -1.8 1.6 -1.3 21.7 -10.7 23.5 -11 0.6 -0.1 2 -0.8 3.3 -1.4 1.2 -0.7 2.2 -1 2.2 -0.7 0 0.3 1 -0.1 2.3 -0.9 1.2 -0.8 2.4 -1.5 2.7 -1.4 1.1 0.2 12.6 -3.5 13.8 -4.4 0.7 -0.6 1.5 -0.8 1.9 -0.5 0.3 0.4 1.2 0.2 2 -0.4 0.7 -0.6 1.3 -0.8 1.3 -0.4 0 0.4 0.7 0.2 1.5 -0.5 0.9 -0.7 1.8 -1 2.1 -0.7 0.3 0.3 2.1 -0.1 4 -0.9 1.9 -0.8 3.4 -1.1 3.4 -0.8 0 0.4 0.7 0.1 1.5 -0.6 0.8 -0.7 1.5 -0.9 1.5 -0.5 0 0.4 0.6 0.2 1.3 -0.4 0.8 -0.6 1.6 -0.8 1.9 -0.6 0.3 0.3 1.8 0 3.4 -0.6 1.6 -0.7 4.9 -1.5 7.4 -2 8.9 -1.5 11.5 -2.1 12.5 -2.9 1 -0.7 5.6 -1.7 12 -2.6 3.6 -0.5 6.9 -1.2 7.3 -1.4 0.1 -0.2 1 -0.3 2 -0.5 0.9 -0.1 2.5 -0.5 3.4 -0.9 0.9 -0.4 2.1 -0.5 2.6 -0.2 0.4 0.2 2.6 0 4.8 -0.5 2.1 -0.6 5.4 -1.1 7.3 -1.3 3.8 -0.3 4.2 0.3 6 9.9 0.7 3.3 1.4 7 1.7 8.3 0.2 1.3 0.6 4.4 0.9 7 0.2 2.6 0.7 6.1 1 7.7 0.9 3.9 1 58.4 0.2 65.5 -0.4 3 -0.9 7.6 -1.2 10.2 -0.3 2.6 -0.9 5.8 -1.4 7 -0.4 1.3 -0.9 4.3 -1 6.7 -0.1 2.5 -0.5 4.9 -0.9 5.5 -0.3 0.6 -0.7 1.7 -0.8 2.6 -0.7 4.7 -1.7 8.7 -2.5 10.1 -0.4 0.9 -0.6 1.9 -0.2 2.2 0.3 0.4 0 1.3 -0.7 2.2 -0.7 0.9 -1 1.8 -0.7 2.2 0.4 0.3 0.2 1.1 -0.3 1.8 -0.5 0.6 -1.1 2 -1.3 3.1 -0.2 1 -0.7 2.6 -1 3.4 -0.5 1.4 -3 8.9 -3.2 10 -0.1 0.3 -0.5 1.4 -1 2.5 -13 33.2 -34.3 60.5 -60.6 77.8 -12.8 8.3 -31.9 16.6 -42.4 18.4 -3.7 0.6 -6 1.1 -6 1.3 0 0.1 -1.3 0.4 -3 0.6 -1.6 0.2 -4.6 0.6 -6.5 0.9 -8.4 1.5 -32.9 0.7 -40.4 -1.3 -1.7 -0.4 -3.7 -0.8 -4.4 -0.7 -1.7 0 -6.5 8.6 -10.2 18 -1.5 3.8 -3.1 7.9 -3.5 9 -0.5 1.1 -0.9 2.2 -0.9 2.5 -0.8 4.1 -7.3 15 -8.9 15 -0.5 0 -1.5 0.6 -2.1 1.4 -1.5 2 -9.5 2.7 -13.2 1.1z"/>
 </g>
 <g fill="#6ecc80">
  <path d="M51.1 322.6 c-1.4 -1.7 -0.8 -4.6 0.9 -4.6 1.6 0 2.3 2.6 1.3 4.5 -0.9 1.5 -1.1 1.5 -2.2 0.1z"/>
 </g>
 <g fill="#73cc8f">
  <path d="M55.4 326.6 c-3.8 -1.7 -7.1 -5.7 -8.6 -10.8 -3.7 -12.3 15.7 -59.6 38.9 -94.9 11.5 -17.6 37.7 -49.9 40.5 -49.9 0.5 0 -3.2 4.6 -8.2 10.3 -16 17.9 -31.2 38.9 -42.9 59.4 -11.5 20.3 -23.4 48.8 -26.7 64 l-1.7 8.1 2.4 4.8 c2.9 5.8 6.2 8.4 11.6 9.1 9 1.2 14.7 -4.7 20.2 -20.7 4 -11.7 11.8 -27 13.7 -27 0.8 0 5.8 0.7 11.2 1.6 11.3 1.9 29.8 1.4 43.1 -1.1 36.2 -6.9 70 -30.2 91.6 -63.3 1.5 -2.3 3 -4 3.3 -3.7 0.7 0.7 -4 7.6 -12 17.7 -20.6 26 -50.3 44.2 -82.1 50.3 -12.8 2.5 -33.3 3 -45.1 1.1 -8 -1.3 -10.1 -1.4 -10.8 -0.4 -2.9 4.2 -9.1 17.8 -11.9 25.9 -3.9 11.2 -7.6 17 -12.3 19.3 -4.1 1.9 -10 2 -14.2 0.2z"/>
  <path d="M46.2 234.3 c0.1 -0.5 -0.5 -2.4 -1.4 -4.3 -10.7 -24.6 -11.5 -54.6 -2.2 -81.6 3 -8.8 6.3 -15.9 7 -15.1 0.3 0.3 -0.3 2.2 -1.4 4.4 -3.1 5.9 -7.8 21 -9.3 29.3 -1.8 10.1 -1.6 32.6 0.4 41.5 1.9 8.6 7 22.8 8.3 23.2 0.5 0.1 3.1 -3.1 5.7 -7.2 8.5 -13.3 21.8 -29.6 36.1 -44.2 7.6 -7.9 14.1 -14.1 14.4 -13.8 0.3 0.2 -5.8 6.9 -13.4 14.8 -14.6 15 -26 29 -36.3 44.5 -3.4 5 -6.6 9.2 -7.1 9.2 -0.6 0 -0.9 -0.3 -0.8 -0.7z"/>
  <path d="M262.2 169.8 c1.1 -3.5 2.5 -6.7 3.1 -7.3 0.7 -0.7 0.8 -0.5 0.5 0.5 -0.3 0.8 -1.4 4.1 -2.4 7.3 -1 3.1 -2.1 5.7 -2.5 5.7 -0.4 0 0.2 -2.8 1.3 -6.2z"/>
  <path d="M140 157.1 c4.7 -4.4 8.7 -7.7 9 -7.4 0.6 0.6 -15.2 15.2 -16.5 15.2 -0.5 0 2.8 -3.5 7.5 -7.8z"/>
  <path d="M112 159.3 c0 -1.2 14.2 -11.5 14.9 -10.8 0.3 0.4 -0.2 1.1 -1.1 1.6 -0.9 0.5 -3.8 2.6 -6.5 4.7 -5.9 4.7 -7.3 5.5 -7.3 4.5z"/>
  <path d="M266 157.4 c0 -1.9 2.4 -10.1 3.2 -10.9 0.7 -0.7 0.8 -0.3 0.5 1 -0.3 1.1 -1.1 3.9 -1.7 6.3 -0.9 3.6 -2 5.6 -2 3.6z"/>
  <path d="M274.1 109.5 c0 -3.3 0.3 -6.6 0.8 -7.4 1.2 -1.8 1.3 6.7 0.1 10.5 -0.7 2.4 -0.8 1.9 -0.9 -3.1z"/>
  <path d="M130.5 54 c0.8 -1.3 6.5 -4.3 7.1 -3.7 0.5 0.4 -6.1 4.7 -7.2 4.7 -0.3 0 -0.2 -0.5 0.1 -1z"/>
 </g>
 <g fill="#18a455">
  <path d="M233.6 225.7 c1.5 -2 3 -3.4 3.3 -3.1 0.7 0.6 -3.3 5.7 -4.9 6.2 -0.7 0.3 0 -1.1 1.6 -3.1z"/>
  <path d="M242 214.7 c0 -0.4 2.2 -4.7 4.9 -9.5 2.7 -4.8 6.8 -13.2 9.1 -18.7 5.6 -13.6 6.2 -14.7 5.5 -11 -1.6 8.2 -19.3 43.8 -19.5 39.2z"/>
  <path d="M112.5 185 c1 -1.1 2.3 -2 2.8 -2 0.6 0 0.2 0.9 -0.8 2 -1 1.1 -2.3 2 -2.8 2 -0.6 0 -0.2 -0.9 0.8 -2z"/>
  <path d="M128.5 168 c3.3 -3.3 6.4 -6 6.9 -6 0.6 0 -1.6 2.7 -4.9 6 -3.3 3.3 -6.4 6 -6.9 6 -0.6 0 1.6 -2.7 4.9 -6z"/>
  <path d="M101 169.1 c0 -1.3 13.1 -12.4 13.8 -11.7 0.3 0.4 0.3 0.7 0.1 0.9 -0.2 0.1 -3.4 2.9 -7.1 6.1 -3.8 3.2 -6.8 5.3 -6.8 4.7z"/>
  <path d="M264.3 163.8 c0.3 -0.9 0.9 -3.3 1.3 -5.2 0.3 -2 1 -3.6 1.4 -3.6 1 0 -1 8.2 -2.3 9.5 -0.7 0.7 -0.8 0.4 -0.4 -0.7z"/>
  <path d="M146 152 c0 -0.5 8 -7.8 17.9 -16.2 9.8 -8.4 17.5 -15.4 17.1 -15.6 -2.4 -0.9 -38.3 18.1 -51.3 27.1 -3.1 2.2 -6 3.8 -6.2 3.5 -1.5 -1.4 25 -17.3 43.1 -25.9 12.5 -5.9 16.8 -7.1 16.2 -4.6 -0.4 1.7 -36.8 33.1 -36.8 31.7z"/>
  <path d="M268.3 147.9 c0.3 -0.9 1.5 -7.6 2.7 -15 2.9 -18.3 4 -23.3 3.4 -15.4 -0.9 9.7 -4.5 29.9 -5.6 31 -0.8 0.7 -0.9 0.5 -0.5 -0.6z"/>
  <path d="M48 136.1 c0 -2.4 8.7 -17.6 14.8 -25.8 15.3 -20.5 39.2 -41.1 63.2 -54.3 3.8 -2.1 7 -3.4 7 -2.9 0 0.5 -2.4 2.1 -5.2 3.5 -14.7 7.4 -36.7 24.3 -49.8 38 -10.8 11.5 -17.9 21.1 -24.6 33.1 -3 5.4 -5.4 9.2 -5.4 8.4z"/>
  <path d="M274.4 76.2 c-0.1 -23.4 -0.4 -29.6 -2.2 -40.2 -3.7 -21.3 -3.4 -20.5 -6.2 -20.8 -4 -0.5 -58.3 10.8 -65 13.5 -0.8 0.3 -2.4 0.8 -3.4 1 -10.7 2 -36.6 11 -51.9 18 -5.4 2.5 -10.1 4.2 -10.5 3.9 -0.3 -0.4 0.4 -0.9 1.6 -1.3 1.2 -0.3 1.9 -1 1.5 -1.6 -0.3 -0.6 -0.1 -0.7 0.5 -0.3 0.6 0.4 3 -0.3 5.3 -1.4 18.5 -9.5 59.1 -21.4 100.4 -29.5 24 -4.7 24.3 -4.7 24.9 -2.7 1.1 4.3 2.7 12.5 4.2 21.7 1.8 11.2 3.3 67.5 1.8 67.5 -0.5 0 -0.9 -12.5 -1 -27.8z"/>
 </g>
</svg>