<?xml version="1.0" encoding="utf-8"?>
<!DOCTYPE svg PUBLIC "-//W3C//DTD SVG 1.0//EN" "http://www.w3.org/TR/2001/REC-SVG-20010904/DTD/svg10.dtd">
<svg version="1.0" xmlns="http://www.w3.org/2000/svg" width="326px" height="410px" viewBox="0 0 326 410" preserveAspectRatio="xMidYMid meet">
   <defs>
      <linearGradient id="lg0" gradientUnits="userSpaceOnUse" x1="49.3865%" y1="4.878049%" x2="49.3865%" y2="92.68293%">
         <stop offset="0%" style="stop-color:rgb(254,96,19);"></stop>
         <stop offset="100%" style="stop-color:rgb(253,68,41);"></stop>
      </linearGradient>
   </defs>
 <g fill="#fe4f1b">
  <path fill="url(#lg0)" d="M180.5 384.3 c-2.1 -0.5 -4 -1.9 -4.1 -3.1 0 -0.4 -0.5 -2.5 -1.2 -4.6 -0.7 -2.6 -0.8 -4.4 -0.2 -5.1 0.6 -0.7 0.7 -1.5 0.3 -1.8 -0.6 -0.7 0.2 -2.9 3.7 -9.7 2 -4 12 -12.8 23 -20.3 17.3 -11.7 32.5 -25.6 39.9 -36.5 5.2 -7.7 11.4 -20.5 12.7 -26.4 0.1 -0.5 0.2 -0.9 0.4 -1 0.2 -0.4 1 -3.8 1.4 -6.3 0.2 -1.1 0.4 -2 0.5 -2 0.4 0 1.2 -4 1.8 -9.5 1.7 -14 -0.7 -41.4 -4.4 -51 -0.3 -0.8 -0.8 -2.3 -1 -3.4 -0.2 -1 -0.9 -3.3 -1.7 -5 -0.7 -1.7 -2.1 -5.1 -3 -7.6 -3.2 -8.7 -3.3 -8.7 -11.3 -1.1 -10.9 10.3 -16.8 11.7 -27.1 6.5 -11.7 -5.9 -31.5 -29.3 -39.3 -46.4 -3 -6.4 -5.1 -11.5 -5 -11.8 0.1 -0.1 -0.6 -1.6 -1.5 -3.3 -0.9 -1.7 -1.8 -4.3 -2 -5.7 -0.3 -1.5 -1 -3.2 -1.5 -3.8 -0.5 -0.7 -1.4 -3.4 -1.9 -6.1 -0.4 -2.6 -1.1 -5.9 -1.5 -7.3 -0.3 -1.4 -0.8 -3.6 -0.9 -5 -0.2 -1.4 -0.6 -3.2 -0.9 -4 -0.6 -1.6 -1.2 -6.9 -2.3 -21.3 -0.5 -5.6 -1.1 -8.6 -1.8 -8.4 -1.8 0.6 -17 18.2 -27 31.2 -9.5 12.4 -18 24.6 -21.6 31.2 -1.1 2.1 -2.9 5.2 -4 6.8 -3.1 5 -6 10.5 -6 11.6 0 0.6 -1.1 2.5 -2.4 4.2 -2.1 3 -7 12.4 -7.1 13.8 0 0.3 -0.7 2.1 -1.6 4 -2.9 5.9 -5.8 13.2 -7.3 18.4 -0.2 0.6 -0.8 2.2 -1.4 3.6 -0.6 1.5 -1.4 4.4 -1.8 6.5 -1 4.6 -1.1 5.2 -1.4 6.2 -0.1 0.4 -0.3 1.2 -0.4 1.7 -0.1 0.6 -0.5 1.7 -0.8 2.5 -3.1 8.1 -4.2 32.7 -2.1 47 1.9 12.9 1.9 13.3 2.7 15.2 0.4 0.9 0.9 2.2 1 3 0.8 3.9 7.8 19.7 9.3 20.9 0.7 0.6 1.3 1.6 1.3 2.2 0 1.5 7.1 9.9 7.8 9.2 0.4 -0.3 0.7 -3.8 0.9 -7.8 0.1 -4 0.4 -8.5 0.6 -10.2 1.1 -8.5 2.1 -13.1 3 -14.3 0.5 -0.7 0.7 -1.5 0.4 -1.9 -0.3 -0.3 0 -1.8 0.8 -3.3 0.8 -1.5 1.6 -3.9 1.9 -5.3 0.2 -1.5 0.8 -3.2 1.3 -3.9 0.4 -0.7 0.8 -1.5 0.9 -1.8 0.4 -2.3 10.2 -21 14.2 -27 10 -15.3 27.7 -33.2 32.7 -33.2 3.4 0 6.6 2.9 6 5.6 -0.2 1.1 -0.4 2.1 -0.5 2.1 -1.1 0 -1.7 20.3 -0.8 23.5 0.3 0.8 0.8 2.9 1.2 4.5 1.9 7.6 12.2 27.8 19.2 37.8 1.9 2.6 3.4 5 3.4 5.3 0 0.3 1.4 2.5 3 4.9 1.7 2.4 3 4.8 3 5.3 0 1.7 -3.7 4.2 -5.6 3.9 -4.6 -0.9 -8 -2.1 -9.4 -3.2 -0.8 -0.7 -2.9 -2 -4.6 -2.8 -5.1 -2.6 -13.9 -11.2 -18.9 -18.6 -2.6 -3.8 -5.3 -6.7 -5.9 -6.5 -1.5 0.6 -8.3 13.3 -9.1 17.1 -0.7 3.2 -1.1 5.4 -2.1 13.3 -1.3 9.7 -0.3 39.7 1.3 42.3 0.4 0.7 0.8 2.8 0.9 4.7 0.2 1.9 0.5 4.4 0.8 5.5 1.6 6.1 2.4 9.5 2.1 9.5 -0.2 0 0.2 1.2 1 2.7 0.8 1.5 1.2 3 0.9 3.5 -0.3 0.5 0 1.6 0.8 2.5 0.7 0.9 1.2 1.8 1.1 2 -0.2 0.1 -0.3 0.4 -0.2 0.6 0 0.1 0.2 1.3 0.5 2.6 0.2 1.4 0.9 3 1.5 3.8 0.6 0.7 0.8 1.3 0.4 1.3 -0.4 0 -0.3 0.6 0.3 1.3 0.7 0.8 0.6 1.7 -0.3 3 -1.6 2.2 -5.1 1.8 -11.4 -1.3 -2.4 -1.2 -5.1 -2.3 -6 -2.5 -3.3 -0.7 -13.4 -6.4 -26.6 -15.1 -17.9 -11.9 -37.1 -32.4 -46.3 -49.5 -3 -5.7 -11 -24.7 -11.9 -28.3 -1.2 -5.2 -2.5 -11.3 -2.8 -13.1 -0.1 -1.1 -0.4 -2 -0.5 -2 -0.1 0 -0.3 -1.6 -0.5 -3.5 -0.2 -1.9 -0.4 -3.5 -0.5 -3.5 -1.6 0 -1.8 -33.7 -0.3 -35.8 0.6 -0.6 0.9 -2.5 0.8 -4.2 -0.1 -1.6 0 -3.4 0.4 -4 0.6 -1.2 1.1 -3.2 1.2 -6 0.2 -2.4 1.7 -9.4 2.6 -11.5 0.3 -0.8 0.8 -2.6 1 -4 0.2 -1.4 0.8 -2.9 1.4 -3.4 0.5 -0.6 0.9 -1.9 0.9 -3.1 0 -1.2 0.4 -2.5 0.9 -3.1 0.5 -0.5 1.8 -3.8 3 -7.4 2.4 -7.4 4.4 -11.7 10.8 -24.5 4 -7.9 7.1 -13.4 15.8 -28 1.1 -1.8 4.7 -7 8 -11.6 22.4 -30.8 48.6 -57.7 79.3 -81.7 23.2 -18 28.3 -20.4 32.2 -15.4 1.4 1.6 1.9 3.4 1.5 4.7 -0.3 1.1 -0.8 2.8 -1 3.8 -0.2 0.9 -0.7 2.2 -1.1 2.9 -0.4 0.6 -0.9 2.3 -1.1 3.7 -1 8.2 -1.8 17.3 -1.7 22.6 0 7.3 1.6 24.9 2.4 26.5 0.1 0.3 0.2 0.8 0.1 1.3 0 0.4 0.8 4 2 8 1.1 3.9 2.3 8.1 2.6 9.2 2.6 10.3 12.1 29.7 20.1 41.5 10 14.7 11.6 15.7 17.5 10.9 3.4 -2.8 11.7 -15.8 11.7 -18.3 0 -2.1 4.4 -5.5 6.9 -5.3 3.9 0.3 13.5 12 24.4 29.7 2.6 4.3 12.1 23 12.2 24 0 0.3 0.6 1.5 1.3 2.8 0.7 1.2 1 2.2 0.6 2.2 -0.3 0 0.1 1.1 1 2.5 0.9 1.3 1.6 3.3 1.6 4.4 0 1.1 0.5 2.3 1 2.6 0.6 0.4 0.8 1.1 0.4 1.6 -0.3 0.5 -0.1 1.6 0.5 2.3 0.7 0.8 1.1 1.8 1 2.2 -0.1 0.5 0 1.2 0.1 1.7 0.1 0.4 0.4 1.2 0.5 1.7 0.1 0.6 0.3 1.1 0.5 1.3 0.3 0.4 1 4.1 1.4 7.2 0.1 1.7 0.7 3.9 1.1 4.9 1.1 2.5 1.1 36.7 0.1 42.6 -0.5 2.5 -1.1 5.6 -1.3 7 -0.3 1.4 -0.6 3.6 -0.8 5 -0.2 1.4 -0.4 2.6 -0.5 2.8 -0.2 0.1 -0.4 0.7 -0.5 1.2 -0.1 0.6 -0.3 1.1 -0.5 1.3 -0.2 0.2 -0.5 1.4 -1.3 5.2 -2.3 9.7 -9.2 24.5 -17.5 37 -9.1 13.9 -35.8 38.1 -48.2 43.8 -0.8 0.4 -4.9 2.5 -9 4.8 -4.1 2.2 -8.2 4.2 -9.1 4.4 -0.9 0.2 -5.4 1.9 -10 3.8 -9.4 3.8 -12.5 4.6 -15.4 4z"/>
 </g>
 <g fill="#fd5a11">
  <path fill="url(#lg0)" d="M177.7 383.8 c-2.5 -2 -3.9 -9.9 -2.6 -15.5 2.2 -10.2 6.9 -15.3 27.4 -29.8 28.5 -20.1 41.9 -35.4 49.6 -56.5 10.3 -28.4 8.9 -59 -4.1 -90.3 -1.7 -4.2 -3.3 -7.7 -3.4 -7.7 -0.1 0 -3 2.7 -6.4 6.1 -7.7 7.5 -13.8 10.4 -19.9 9.5 -20 -2.7 -47.8 -39.1 -58.7 -76.9 -3.3 -11.4 -6.4 -34.2 -5.8 -43.4 0.2 -4 0.1 -7.3 -0.2 -7.3 -1.6 0 -19.5 20.9 -31.4 36.9 -27.1 36.1 -46.1 75 -53.2 108.6 -3.1 14.7 -3.8 36.7 -1.5 48.7 1.9 10.1 5.3 20.4 9.3 28.3 2.7 5.5 10.4 17.5 11.2 17.5 0.3 0 0.6 -3 0.8 -6.8 0.9 -22.7 9.1 -46.5 23.7 -68.7 10.9 -16.6 27.7 -33.5 33.4 -33.5 4.1 0 6.5 3.1 5.6 7.2 -1.6 8.1 -1.7 20.4 0 26.8 2.4 9.4 8.9 22.6 19.4 39.2 9 14.5 10.2 17.3 7.9 19.6 -6 6 -30.1 -9.6 -39.4 -25.4 -1.4 -2.4 -2.9 -4.4 -3.4 -4.4 -1.5 0 -8 13.7 -9.5 20.1 -2.2 9.3 -3 29.5 -1.6 41.5 1.6 13.5 5.2 30.7 9 42.5 4.9 15.1 3.2 16.3 -13.2 9.2 -49.5 -21.4 -83.2 -61.9 -91.2 -109.6 -1.9 -11.6 -2.2 -35.6 -0.5 -47.9 4.8 -34.8 23.5 -76.4 50.7 -112.6 23.5 -31.3 54.8 -61.9 86.8 -84.7 11.3 -8.1 14.8 -9.7 18 -8.5 4.5 1.7 5 4.8 2.4 14.7 -3.3 12.5 -3.4 37.9 -0.1 53.1 5.6 25.7 14.3 45.2 29 65 3.4 4.5 6.1 7.2 7.3 7.2 3.5 0 9.6 -6.8 13.9 -15.5 4.7 -9.4 5.9 -10.8 9.7 -10.8 2 0.1 4 1.4 7.6 5.3 5.9 6.4 15.5 20.6 21.2 31.2 2.3 4.3 4.5 7.5 5 7.1 0.4 -0.5 0.5 -0.3 0.2 0.3 -0.3 0.6 1.2 5.2 3.3 10.2 4.8 11 8.4 23.7 10.5 36.3 2 12.3 2 36.9 0 48.5 -2.1 12.2 -7.5 29.1 -12.8 39.9 -16.1 32.6 -49.6 60.5 -88.3 73.4 -10.1 3.4 -13.2 3.7 -15.7 1.9z m19.3 -4.5 c23.7 -8.9 43.7 -21.9 60.6 -39.5 15.1 -15.7 24.4 -31.5 30.9 -52.3 4.8 -15.4 6.5 -26.4 6.5 -42.9 0 -20.3 -3.3 -38 -10.1 -55.3 -9.8 -24.9 -31.8 -58.3 -38.3 -58.3 -2.9 0 -4.3 1.8 -9 11.3 -4.5 9 -10.1 14.7 -14.5 14.7 -2.5 0 -3.8 -1.1 -8.3 -7.2 -14.7 -19.8 -23.4 -39.3 -29 -65 -1.8 -8.5 -2.2 -13.5 -2.3 -28.3 0 -15.7 0.3 -19.1 2.3 -26.4 2.1 -7.7 2.1 -8.5 0.7 -10.7 -0.9 -1.4 -2.5 -2.4 -4 -2.4 -5.7 0 -38.8 25.5 -60.9 47 -46.9 45.5 -77.4 95.3 -89.2 145.7 -3.5 14.9 -4.5 43.1 -2 58.4 4.2 25.4 16.6 51.1 33.4 69.4 16.8 18.2 40.4 34.3 63.9 43.4 4.5 1.8 5.4 1.9 6.7 0.6 1.2 -1.3 1 -2.6 -1.6 -10.7 -6 -18.8 -9.8 -41.9 -9.8 -60.4 0 -15.8 2.1 -27.1 7.1 -37.1 4.7 -9.8 6.4 -10.5 10.3 -3.9 8.4 14.4 31.4 30.3 37 25.7 0.9 -0.8 1.6 -1.8 1.6 -2.3 0 -0.6 -4.1 -7.6 -9.1 -15.6 -10.4 -16.4 -17 -29.8 -19.3 -38.8 -1.9 -7.3 -2.1 -21 -0.4 -26.5 1 -3.4 0.9 -4.2 -0.7 -5.9 -1 -1.1 -2.6 -2 -3.6 -2 -2.6 0 -12.9 8.9 -20.5 17.8 -21.3 24.7 -35 57.1 -35.5 84.2 -0.2 9.1 -1.9 9.2 -7.5 0.7 -12.3 -18.5 -17.4 -36.5 -17.4 -61.1 0 -22.1 5.7 -46 17.4 -72.7 13.7 -31.1 39.1 -68.9 65.3 -97.1 6.7 -7.3 7.3 -6.7 7.3 5.8 0 19.7 4.1 39.5 12.2 58.4 8.1 19.1 21.8 39 33.8 48.9 15.3 12.7 23.2 12.8 36.2 0.2 3.4 -3.4 6.8 -6.1 7.4 -6.1 0.7 0 2.7 3.5 4.4 7.7 13.2 31.6 14.6 63.5 4.1 92.3 -7.7 21.1 -21.1 36.4 -49.6 56.5 -20.2 14.3 -25.2 19.6 -27.3 29.3 -1.2 5.1 0.1 12.1 2.6 14 2.2 1.7 6.3 0.9 18.2 -3.5z"/>
 </g>
</svg>