<?xml version="1.0" encoding="utf-8"?>
<!DOCTYPE svg PUBLIC "-//W3C//DTD SVG 1.0//EN" "http://www.w3.org/TR/2001/REC-SVG-20010904/DTD/svg10.dtd">
<svg version="1.0" xmlns="http://www.w3.org/2000/svg" width="422px" height="398px" viewBox="0 0 422 398" preserveAspectRatio="xMidYMid meet">
   <defs>
      <radialGradient id="rg0" gradientUnits="userSpaceOnUse" cx="75.829384%" cy="18.090452%" r="49.526066%" >
         <stop offset="8%" style="stop-color:rgb(254,185,18);"></stop>
         <stop offset="74%" style="stop-color:rgb(254,152,28);"></stop>
         <stop offset="100%" style="stop-color:rgb(254,133,31);"></stop>
      </radialGradient>
      <radialGradient id="rg1" gradientUnits="userSpaceOnUse" cx="48.104267%" cy="51.256283%" r="48.104267%" >
         <stop offset="11%" style="stop-color:rgb(253,143,26);"></stop>
         <stop offset="99%" style="stop-color:rgb(254,90,39);"></stop>
         <stop offset="100%" style="stop-color:rgb(254,86,36);"></stop>
      </radialGradient>
   </defs>
 <g fill="#feae18">
  <path fill="url(#rg0)" d="M299.9 229.6 c-0.2 -0.3 -1.6 -0.6 -2.9 -0.8 -4.7 -0.7 -9.1 -4.2 -11.7 -9.2 -3.3 -6.5 -3.6 -11.5 -1.1 -16.3 1.1 -2.1 14.9 -16.8 30.7 -32.8 15.8 -15.9 29.6 -30.3 30.7 -32 2.6 -3.8 5.7 -10.5 6.1 -12.9 0.2 -1.1 0.8 -2.5 1.4 -3.2 0.6 -0.7 1.1 -3 1.2 -5.1 0.1 -2.1 0.5 -4.2 0.8 -4.8 0.6 -1.1 0.4 -6.7 -0.6 -12.5 -0.3 -1.9 -0.7 -4.3 -0.9 -5.2 -0.1 -1 -0.5 -2.1 -0.9 -2.4 -0.4 -0.4 -0.7 -1.4 -0.7 -2.3 0 -3 -6.4 -14.2 -11.2 -19.5 -4.9 -5.5 -17.3 -14.6 -20 -14.6 -0.8 0 -1.8 -0.4 -2.3 -0.8 -2 -1.8 -13.2 -3.6 -21 -3.4 -12 0.2 -15.3 0.9 -23.5 4.9 -6.8 3.3 -9.7 5.9 -30.3 26.7 -17.4 17.6 -23 22.7 -23.9 21.8 -0.7 -0.7 -2.8 -1.2 -4.8 -1.2 -3 0 -3.9 -0.5 -4.8 -2.5 -0.6 -1.4 -1.8 -2.5 -2.6 -2.5 -0.7 0 -1.6 -1.4 -2 -3 l-0.6 -3.1 -7.5 0.7 -7.5 0.7 0 -4.3 c0 -4.3 0.2 -4.5 23.7 -28.4 24.7 -25.1 33.9 -33.1 42 -36.1 2.6 -1 5.7 -2.4 6.8 -3.2 1.1 -0.7 2.9 -1.3 4.2 -1.3 1.2 0 2.4 -0.4 2.8 -0.9 0.3 -0.6 1.3 -1 2.3 -0.9 0.9 0 2.8 -0.3 4.2 -0.7 4.4 -1.1 8.4 -1.6 15 -1.8 3.6 -0.1 7.1 -0.6 7.8 -1.1 0.7 -0.4 2.1 -0.5 3 -0.1 0.9 0.4 3.3 0.7 5.2 0.8 1.9 0 4 0.3 4.5 0.7 0.6 0.4 1.7 0.7 2.5 0.8 2.6 0 9.5 1.4 10.5 2 0.6 0.4 1.6 0.7 2.3 0.8 3 0.5 16.5 7.6 23.8 12.5 9.3 6.2 19.8 16.6 25.4 25 2.2 3.3 4 6.3 4 6.5 0 0.3 0.9 1.7 2 3.2 1.1 1.5 2.2 3.6 2.4 4.7 0.2 1.1 1.3 4.1 2.4 6.6 1.1 2.5 2.2 6.2 2.5 8.1 0.2 2 0.7 4 1 4.5 2.3 3.6 2.7 29 0.6 32.8 -0.3 0.6 -0.6 2.3 -0.7 3.9 -0.1 1.6 -0.6 3.4 -1.2 4.1 -0.5 0.6 -1.1 2.1 -1.3 3.3 -0.2 1.2 -0.6 2.5 -1 2.8 -0.4 0.4 -0.7 1.4 -0.7 2.1 0 2.1 -9.6 18 -14.3 23.8 -8.1 10 -60.2 61.6 -63.7 63.2 -3.9 1.7 -7.5 2.5 -8.1 1.9z"/>
 </g>
 <g fill="#fe881f">
  <path fill="url(#rg1)" d="M155 368.7 c0 -0.8 -0.9 -2.2 -2.1 -3.3 -1.6 -1.5 -2 -2.8 -1.8 -7.1 0.2 -4.5 -0.1 -5.6 -1.9 -6.9 -1.9 -1.3 -2.2 -2.4 -2.2 -8.7 0 -7.2 0 -7.3 3.4 -9.1 7 -3.7 78.7 -78.6 82.9 -86.4 1.5 -2.8 2.4 -5.2 2.1 -5.2 -0.4 0 -0.1 -0.6 0.5 -1.4 0.6 -0.8 1.1 -1.8 1 -2.2 -0.1 -0.5 0 -1.1 0.1 -1.4 0.8 -1.5 0.6 -18.1 -0.1 -18.6 -0.5 -0.3 -0.7 -0.9 -0.4 -1.4 0.3 -0.4 -0.2 -2.1 -1 -3.6 -0.8 -1.6 -1.5 -3.4 -1.5 -4 0 -1.8 -9.3 -11.5 -20.3 -21.3 -15.4 -13.6 -17.6 -17.5 -15.2 -26.9 1.7 -6.5 5.4 -11.6 9.2 -13 3.5 -1.2 10.5 -0.7 13.5 0.9 10.4 5.5 47.7 46.6 47.8 52.6 0 0.6 0.5 2.4 1.2 4 0.6 1.5 1 3.2 0.9 3.7 -0.1 0.4 0.2 1.3 0.8 2 1.9 2.4 3.8 26.6 2.2 29.1 -0.3 0.6 -0.7 2.4 -0.7 4 -0.1 1.7 -0.7 4.2 -1.2 5.6 -0.6 1.5 -0.8 2.9 -0.6 3.2 0.3 0.3 -0.2 1.9 -1 3.6 -0.9 1.7 -1.6 3.4 -1.6 3.8 0 1.7 -5.4 11.2 -9.3 16.5 -6.3 8.3 -79.4 80 -85.7 84 -5.5 3.5 -16.5 8.8 -18.1 8.8 -0.5 0 -0.9 -0.6 -0.9 -1.3z"/>
  <path fill="url(#rg1)" d="M58.8 275.6 c-1 -0.7 -1.8 -2.3 -1.8 -3.5 0 -1.6 -0.8 -2.3 -3 -2.7 -2.2 -0.5 -3 -1.2 -3 -2.8 -0.1 -3.2 -2.4 -5.6 -5.4 -5.6 -2.1 0 -2.6 -0.5 -2.6 -2.4 0 -4.2 -1.1 -5.6 -4.1 -5.6 -1.6 0 -2.9 -0.3 -2.9 -0.6 0 -1.6 8.3 -17 11.2 -20.7 1.7 -2.3 10.4 -11.6 19.3 -20.7 8.8 -9.1 21.5 -22.1 28 -28.8 6.6 -6.8 13.8 -13.3 16 -14.4 4.4 -2.3 11.1 -3.2 12 -1.7 0.4 0.5 1 0.7 1.4 0.4 1.2 -0.7 9.1 6.5 10.3 9.4 0.6 1.4 1.2 3.1 1.3 3.6 0 0.6 0.5 1.8 0.9 2.8 0.5 0.9 0.5 2.5 0.1 3.5 -0.4 0.9 -0.9 2.4 -1 3.3 -0.3 3.2 -5.4 8.9 -30.5 33.9 -22.4 22.4 -32 33.2 -32 35.9 0 0.4 -0.9 1.7 -2 2.9 -1.2 1.2 -1.6 2.2 -1 2.2 0.6 0 0.4 1.5 -0.6 3.8 -0.9 2 -1.7 4.8 -1.8 6.2 -0.1 2.1 -0.6 2.5 -3.6 2.7 -1.9 0.2 -4.3 -0.3 -5.2 -1.1z"/>
  <path fill="url(#rg0)" d="M203.6 246.3 c-0.3 -0.3 -1.8 -0.8 -3.2 -0.9 -4.1 -0.4 -9.7 -4.7 -22.6 -17.2 -10.7 -10.5 -21.8 -22.9 -21.8 -24.6 0 -0.4 -1.2 -2.4 -2.6 -4.5 -1.4 -2.2 -2.6 -4.5 -2.8 -5.3 -0.1 -0.7 -0.4 -1.7 -0.7 -2.3 -0.3 -0.5 -1.2 -3.2 -1.8 -6 -0.7 -2.7 -1.5 -5.7 -1.8 -6.5 -1.1 -2.9 -1.3 -5.6 -1.6 -16.8 -0.1 -6.3 0 -11.5 0.4 -11.8 0.3 -0.2 0.6 -2.2 0.6 -4.4 0 -2.3 0.5 -4.6 1.2 -5.3 0.6 -0.6 1.1 -1.9 1.1 -2.9 0 -2.2 3.3 -8.7 8.1 -15.8 3.9 -6 35.4 -39 37.1 -39 0.7 0 0.8 1.5 0.4 4 -0.7 4.4 0.4 5.1 3.9 2.6 1.1 -0.8 2.5 -1.1 3.3 -0.8 0.8 0.3 2.6 0.5 4.1 0.6 2 0.1 2.8 0.8 3.6 3.4 0.5 1.8 1.4 3.1 2.1 2.8 0.7 -0.3 1.8 0.9 2.4 2.5 1.4 3.4 1.8 3.5 5 1.2 1.4 -1 2.5 -1.3 2.7 -0.6 0.2 0.5 1 1.9 1.7 2.9 1.3 1.7 -0.3 3.6 -17.1 21.2 -14.4 15.1 -19.1 20.7 -21 25 -1.4 3.2 -2.6 6.4 -2.6 7.2 0 0.8 -0.3 2 -0.7 2.5 -0.9 1.3 -0.4 12.9 0.8 18 1.8 7.9 6.9 14.7 22.9 30.1 8.6 8.3 15.3 15.6 14.9 16.2 -0.3 0.6 -0.2 1.3 0.3 1.6 1.4 0.9 0.5 8.5 -1.7 13.7 -1.2 3.1 -8 9.2 -9.2 8.4 -0.5 -0.3 -1.8 -0.1 -2.8 0.4 -1.1 0.6 -2.2 0.7 -2.6 0.4z"/>
 </g>
 <g fill="#fe6225">
  <path fill="url(#rg1)" d="M110.5 375.8 c-1.6 -0.4 -3.2 -0.5 -3.7 -0.2 -0.5 0.3 -1.5 0 -2.3 -0.6 -0.8 -0.6 -1.9 -0.9 -2.4 -0.5 -0.6 0.3 -2.4 -0.1 -4 -1 -1.7 -0.8 -3.4 -1.4 -3.8 -1.4 -0.8 0.2 -3.4 -0.9 -12.9 -5.2 -12.8 -5.7 -28.9 -20.3 -36.5 -32.9 -5.6 -9.2 -9.7 -17.7 -10.3 -21 -0.3 -1.4 -0.5 -2.5 -0.6 -2.5 -0.1 0 -0.3 -1.5 -0.6 -3.3 -0.2 -1.8 -0.8 -4.1 -1.2 -5 -1.8 -3.6 -2 -25.9 -0.3 -34.7 0.6 -3.3 1.2 -6.7 1.3 -7.5 0 -0.8 0.5 -2.1 1.1 -2.7 0.5 -0.7 0.7 -1.3 0.3 -1.3 -0.4 0 0 -1.3 0.9 -2.9 1.9 -3.8 7.2 -5.2 9.2 -2.5 0.7 1 1.3 3 1.3 4.5 0 2.3 0.3 2.6 2.1 2.2 2.5 -0.7 5.8 2.9 5.9 6.2 0 1.5 1 2.4 3.3 3 2.2 0.7 3.2 1.6 3.2 3 0 2.4 2.8 4.7 4.8 3.9 2 -0.7 3.2 1.3 1.7 3.1 -1.2 1.5 -0.8 18.4 0.5 20.5 0.3 0.6 0.9 2.2 1.1 3.7 1 5.1 7.9 17.5 13 23.1 6 6.6 16.4 13.2 24.9 15.7 5.5 1.6 21.3 2.4 25.5 1.3 0.8 -0.3 3.5 -1.1 6 -1.8 2.5 -0.8 4.7 -1.4 5 -1.5 0.3 -0.1 2.2 -1 4.2 -2 3.8 -1.9 6.2 -1.5 4 0.7 -1.5 1.5 -1.6 5.5 -0.2 6.3 0.7 0.4 0.7 1.3 0 2.6 -0.9 1.6 -0.6 2.2 2.5 4 3.8 2.3 4.2 3.4 2 6.3 -2.1 2.7 -1.9 4.4 0.9 7.7 2.4 2.9 2.6 6.9 0.2 6.9 -0.6 0 -2.2 0.6 -3.6 1.3 -2.5 1.3 -10.8 3.4 -16.5 4.1 -1.6 0.3 -3 0.5 -3 0.6 0 0.6 -20.7 0.5 -23 -0.2z"/>
  <path fill="url(#rg1)" d="M66.3 271.3 c-1.8 -0.7 -1.6 -2.3 0.2 -2.3 0.8 0 1.5 0.7 1.5 1.5 0 0.8 -0.1 1.5 -0.2 1.4 -0.2 0 -0.9 -0.3 -1.5 -0.6z"/>
  <path fill="url(#rg1)" d="M68.2 267.2 c-0.7 -0.2 -2.5 -1.5 -3.9 -2.8 -2.6 -2.4 -2.4 -4.4 0.6 -4.4 0.9 0 2.2 -0.5 2.7 -1 0.6 -0.6 1.8 -0.8 2.7 -0.4 1.2 0.4 1.5 1.3 1 3.3 -1.1 4.6 -1.8 5.8 -3.1 5.3z"/>
 </g>
 <g fill="#fd9b09">
  <path fill="url(#rg1)" d="M244.2 293 c15.5 -14.5 22.6 -25.2 27 -40.7 1.8 -6.3 2.2 -10.3 2.2 -20.8 0 -20.1 -4.1 -32 -15.7 -45.5 -9.8 -11.5 -31.8 -33.6 -35.7 -35.9 -4.8 -2.9 -12.8 -2.9 -16.4 0 -6.4 5.1 -9 17 -5.1 23.7 1.1 1.8 7.9 8.7 15.2 15.3 15.3 13.8 17.6 16.6 20.4 24.5 1.7 4.9 2 7.7 1.7 15.9 -0.3 8.8 -0.7 10.8 -3.5 16.5 -3.4 7 -6 10.7 -6.8 9.8 -0.3 -0.3 0.4 -1.7 1.5 -3.1 10 -12.7 10.7 -35.3 1.5 -47.3 -1.4 -1.9 -8.5 -8.8 -15.8 -15.3 -7.3 -6.6 -14.1 -13.5 -15.2 -15.3 -4.2 -7.1 -1.6 -20.4 5.1 -25.7 3.7 -2.9 13.5 -2.9 18.4 0 3.9 2.3 25.9 24.4 35.7 35.9 11.8 13.7 15.7 25.3 15.7 46.5 0 11.5 -0.3 15.4 -2.2 21.8 -2.8 9.7 -6.6 17.4 -12.6 25.4 -5 6.5 -22.1 23.3 -23.9 23.3 -0.6 0 3.3 -4.1 8.5 -9z"/>
  <path fill="url(#rg0)" d="M291.9 227.7 c-8.1 -4.3 -12 -15.7 -8.4 -24.5 1.1 -2.4 11.7 -13.9 31.4 -33.7 27.4 -27.6 30.1 -30.6 33.5 -37.5 3.6 -7.4 6.6 -18.6 6.6 -24.5 0 -1.6 -0.7 -6.1 -1.5 -10 -4.5 -21.4 -20.9 -38.6 -42 -44 -7.6 -1.9 -19.5 -1.9 -27 0 -13.6 3.6 -17.5 6.7 -47.9 38 -49.1 50.5 -50.3 51.9 -53.6 60.9 -1.5 4 -2.3 2.7 -0.9 -1.5 2.3 -6.5 7.6 -13 30.3 -36.6 43.1 -44.8 51.1 -52.6 58.5 -56.6 8.8 -4.8 16.6 -6.7 27.1 -6.7 16.4 0 29.2 5.1 40.5 16.4 19 18.8 22.6 46.7 8.8 69.4 -2.6 4.2 -12.9 15.3 -32.9 35.4 -31 31.2 -32.3 32.9 -30.9 40.6 1.1 6.2 5 11.8 9.8 14.1 5.3 2.6 9 2.6 14.2 0.2 5 -2.3 60.1 -57.7 66.7 -67.1 12.5 -17.7 16.8 -30.5 16.8 -50 0 -25.6 -8.5 -46.3 -26.4 -64.4 -18.6 -18.9 -41.3 -28.6 -66.8 -28.6 -24.7 0 -46.3 7.9 -61.2 22.5 -18.8 18.4 -73.9 74.8 -77.6 79.5 -4.7 6.1 -10.6 17.6 -11.6 22.7 -0.3 1.8 -1 3.3 -1.5 3.3 -1.3 0 2 -10 5.8 -17.1 4.5 -8.8 9.9 -14.7 53.3 -58.4 39.1 -39.4 41.6 -41.5 57 -47.4 11.4 -4.4 21.3 -6.1 35.8 -6.1 20.7 0 35.8 4.6 52.8 16.1 14.1 9.5 26.1 23.3 33.5 38.7 8.4 17.3 10.7 43.5 5.4 61.7 -2.8 9.8 -7.1 18.3 -14.3 28.5 -6.6 9.4 -61.7 64.8 -66.7 67.1 -5.5 2.5 -11.3 2.4 -16.6 -0.4z"/>
  <path fill="url(#rg0)" d="M213.5 215 c-2.1 -2.2 -3.6 -4.2 -3.4 -4.5 0.3 -0.2 2.5 1.6 4.9 4 2.4 2.5 4 4.5 3.4 4.5 -0.5 0 -2.7 -1.8 -4.9 -4z"/>
  <path fill="url(#rg0)" d="M184.2 183.3 c-2.6 -5 -4.3 -11.3 -3.1 -11.3 0.5 0 0.9 0.8 0.9 1.8 0 0.9 1.1 4.1 2.5 7.1 2.9 6.2 2.6 8.2 -0.3 2.4z"/>
  <path fill="url(#rg1)" d="M129.9 171.4 c-5.2 -5.7 -12.8 -6.9 -19.6 -2.9 -2.4 1.3 -4.3 2 -4.3 1.5 0 -1.7 7.9 -5 12 -5 2.2 0 5.5 0.6 7.3 1.4 3.3 1.4 9.9 7.6 8.1 7.6 -0.6 0 -2.1 -1.2 -3.5 -2.6z"/>
 </g>
 <g fill="#fd6e0a">
  <path fill="url(#rg1)" d="M104 375.6 c-35.5 -7.6 -62.4 -33.5 -71.6 -69.1 -2.3 -9.2 -2.5 -11.2 -2.1 -25 0.3 -9.6 1.1 -17.2 2.2 -21 2.1 -7.7 9.3 -22.7 13.6 -28.6 4.6 -6.2 60.6 -63.6 62.7 -64.2 1 -0.2 -4.4 5.7 -11.8 13.2 -48.5 49 -51.6 52.6 -58.6 67.5 -5.3 11.5 -6.7 18.5 -7 34.1 -0.2 12.1 0.1 15.3 2.2 23.5 7.1 28.1 25.2 49.7 51.8 62 11.3 5.3 19.2 7.1 33.1 7.7 14.6 0.6 26.3 -1.5 39.9 -7.3 15 -6.3 21 -11.2 51.1 -41.3 15.3 -15.5 28.4 -28.1 29 -28.1 1.7 0 -54.7 55.9 -61.2 60.6 -7.5 5.5 -20.3 11.5 -30.3 14.4 -9.7 2.8 -33.2 3.6 -43 1.6z"/>
  <path fill="url(#rg1)" d="M108.4 340.5 c-10.7 -2.8 -17.7 -6.7 -25.4 -14.5 -6.6 -6.5 -14.2 -19 -15.5 -25.5 -3.3 -16.4 -2.1 -27.6 4.6 -41.4 3.6 -7.2 23.6 -29.1 45.3 -49.5 16.3 -15.3 19.8 -21.3 17.6 -29.5 -0.5 -2.1 -2 -5.1 -3.2 -6.6 -1.4 -1.8 -1.7 -2.6 -0.7 -2.3 4.9 1.6 7.1 15 3.5 21.6 -0.9 1.8 -13.6 15.2 -28.2 29.8 -15.6 15.6 -28.1 28.9 -30.4 32.4 -14.3 22.3 -11.1 51.1 8 70 14.3 14.2 32.8 19.1 52.2 13.9 4.5 -1.2 10.3 -3.7 13.6 -5.8 5.1 -3.4 37.1 -35.5 68.7 -69.2 9.3 -9.9 12.8 -13 10.8 -9.5 -0.7 1.2 -22 23.6 -51.5 54.2 -4.3 4.5 -7.4 8.4 -7 8.8 0.4 0.4 0 0.6 -0.8 0.4 -0.9 -0.2 -1.4 0.3 -1.2 1.2 0.2 0.8 0 1.2 -0.4 0.8 -0.3 -0.4 -3.5 2 -7 5.4 -8.7 8.3 -13.5 11.4 -22.7 14.3 -10.4 3.3 -20 3.6 -30.3 1z"/>
  <path fill="url(#rg0)" d="M200.5 246.1 c-6.2 -1.6 -10.3 -4.8 -25.1 -19.5 -20.1 -20.1 -25.7 -29.2 -29.9 -48.1 -2 -8.8 -1.8 -31.5 0.3 -35 1 -1.6 1.1 -1.2 0.4 2.5 -0.9 5.7 -0.9 26.5 0.1 30.6 3.1 13.7 7.6 23.5 15.3 33.5 5.8 7.5 29.8 30.6 34.3 32.8 9.7 5 18.9 1.5 22.7 -8.4 2.1 -5.5 1.4 -11.6 -1.6 -15.8 -1.4 -1.8 -1.7 -2.8 -0.9 -2.5 2.3 0.7 4.9 7 4.9 11.8 0 2.5 -0.9 6.3 -1.9 8.5 -2 4.5 -7.3 9.5 -9.9 9.5 -0.9 0 -2.6 0.2 -3.7 0.4 -1.1 0.3 -3.3 0.1 -5 -0.3z"/>
  <path fill="url(#rg0)" d="M200.4 202.7 c-6.6 -6.1 -12.7 -12.7 -13.7 -14.6 -2.4 -4.5 -1.5 -5.1 1.3 -0.7 1.2 2 7.4 8.5 13.7 14.6 6.4 6 11.4 11.2 11.2 11.5 -0.3 0.2 -5.9 -4.6 -12.5 -10.8z"/>
  <path fill="url(#rg0)" d="M180.4 172.4 c-1 -3.9 0.1 -18.3 1.5 -19.7 1 -0.9 1.1 -0.6 0.4 1.8 -0.4 1.7 -0.8 6.9 -0.8 11.8 0 4.8 -0.1 8.7 -0.2 8.7 -0.2 0 -0.6 -1.2 -0.9 -2.6z"/>
 </g>
</svg>