<?xml version="1.0" encoding="utf-8"?>
<!DOCTYPE svg PUBLIC "-//W3C//DTD SVG 1.0//EN" "http://www.w3.org/TR/2001/REC-SVG-20010904/DTD/svg10.dtd">
<svg version="1.0" xmlns="http://www.w3.org/2000/svg" width="329px" height="268px" viewBox="0 0 329 268" preserveAspectRatio="xMidYMid meet">
   <defs>
      <linearGradient id="lg0" gradientUnits="userSpaceOnUse" x1="49.24012%" y1="4.477612%" x2="49.24012%" y2="92.910446%">
         <stop offset="0%" style="stop-color:rgb(0,210,254);"></stop>
         <stop offset="100%" style="stop-color:rgb(0,209,254);"></stop>
      </linearGradient>
   </defs>
 <g fill="#06d1fd">
  <path fill="url(#lg0)" d="M156.5 253.3 c-1.1 -0.3 -2.4 -0.9 -2.9 -1.4 -0.6 -0.5 -1.5 -0.9 -2.2 -0.9 -1.1 0 -19.1 -17.2 -53.5 -51.5 -10.3 -10.2 -19 -18.5 -19.5 -18.5 -1.2 0 -13.5 -12.8 -15.2 -15.7 -0.9 -1.7 -0.9 -2.3 0 -2.3 0.6 0 0.9 -0.3 0.5 -0.6 -0.3 -0.3 0.2 -1.3 1.1 -2.2 1.4 -1.4 3.7 -1.7 11.2 -1.7 8.5 0 9.7 0.2 11.7 2.3 1.2 1.2 2.6 2.2 3 2.2 0.4 0 16.9 16.3 36.7 36.2 19.9 20.1 36.1 35.7 36.3 35.1 0.3 -0.7 1 -1.3 1.7 -1.3 0.6 0 17.1 -16.2 36.5 -36 19.4 -19.8 35.9 -36 36.7 -36 0.8 0 1.7 -0.6 1.9 -1.2 0.6 -1.6 19.2 -1.1 21 0.5 0.6 0.6 0.9 2.4 0.7 4.1 -0.4 2.4 -5.7 8.3 -24.5 27.4 -13.2 13.3 -24.6 24.2 -25.2 24.2 -0.6 0 -8.9 7.8 -18.4 17.4 -12.7 12.8 -18.4 17.8 -21.5 19 -3.9 1.5 -11.7 1.9 -16.1 0.9z"/>
  <path fill="url(#lg0)" d="M163.4 184.6 c-4.4 -3.1 -4.5 -3.3 -10.4 -15.6 -3 -6.3 -6.1 -12.1 -6.8 -12.8 -0.7 -0.8 -1 -1.7 -0.7 -2.2 0.3 -0.5 0.1 -1 -0.4 -1.2 -0.5 -0.1 -1.1 -1 -1.3 -1.8 -0.2 -0.8 -0.9 -2.1 -1.5 -2.8 -0.7 -0.7 -1.6 -2.5 -2 -4 -0.3 -1.5 -1.2 -3.3 -2 -4 -0.7 -0.8 -1.1 -1.8 -0.8 -2.3 0.4 -0.5 0.1 -0.9 -0.6 -0.9 -0.7 0 -1 -0.3 -0.6 -0.6 0.3 -0.4 -1.9 -5.6 -4.9 -11.6 -5.3 -10.5 -5.6 -10.9 -7.3 -9.4 -1 1 -2.1 3 -2.4 4.5 -0.3 1.6 -1.2 3.5 -1.9 4.3 -0.7 0.7 -1.4 1.9 -1.6 2.6 -0.1 0.7 -1.1 2.3 -2.2 3.4 -1.1 1.2 -1.7 2.5 -1.4 3 0.3 0.4 0.1 0.8 -0.5 0.8 -0.5 0 -1.6 1.2 -2.3 2.7 -0.7 1.4 -2.2 3.1 -3.3 3.7 -1.1 0.6 -2.2 1.4 -2.5 1.7 -0.3 0.3 -3.2 1.6 -6.6 2.8 -5.7 2 -7.8 2.1 -43.3 2.1 l-37.3 0 -3.9 -2.7 c-4.2 -3 -6.1 -7.4 -4.8 -11 0.5 -1.3 0.6 -2.3 0.2 -2.3 -0.3 0 0.4 -0.9 1.7 -2 2.2 -1.9 3.5 -2.4 5.3 -2.1 0.4 0 0.7 -0.4 0.7 -0.9 0 -0.6 1.6 -1 3.5 -1 1.9 0 3.5 0.4 3.5 0.9 0 0.6 1.5 0.5 3.7 -0.1 2.1 -0.6 6.2 -0.7 9.3 -0.4 9.8 1.1 18 1.3 18 0.4 0 -0.4 4.5 -0.8 10 -0.8 5.5 0 10 0.3 10 0.8 0 0.9 13.6 0.9 14.6 -0.1 0.4 -0.4 1.4 -0.7 2.3 -0.7 2.2 0 5.3 -3.7 7.5 -8.7 1.1 -2.4 2.3 -4.3 2.8 -4.3 0.5 0 0.7 -0.4 0.3 -0.9 -0.3 -0.5 0.1 -1.6 0.9 -2.4 0.8 -0.8 1.2 -1.7 0.9 -2.1 -0.4 -0.3 -0.1 -0.6 0.6 -0.6 0.7 0 0.9 -0.4 0.6 -1 -0.3 -0.5 -0.2 -1 0.2 -1 0.5 0 2.5 -3.3 4.3 -7.2 3.4 -7.2 8.7 -13.7 11.2 -13.9 0.7 0 2.8 -0.2 4.6 -0.4 1.8 -0.2 3.2 0.1 3.2 0.7 0 0.6 0.3 0.9 0.6 0.6 0.5 -0.5 5.4 3.7 5.4 4.7 0 1.1 6.5 14.1 7.6 15.3 0.8 0.7 1.2 1.8 0.9 2.3 -0.4 0.5 -0.2 0.9 0.4 0.9 1 0 2.7 3.8 2.3 5.3 -0.1 0.4 0.3 0.7 0.9 0.7 0.5 0 0.7 0.5 0.4 1 -0.3 0.6 -0.1 1 0.5 1 0.6 0 0.8 0.5 0.5 1 -0.3 0.6 -0.1 1 0.5 1 0.6 0 0.8 0.5 0.5 1 -0.3 0.6 -0.1 1 0.4 1 0.6 0 1.1 0.7 1.1 1.6 0 0.9 3.4 8.1 7.5 15.9 4.1 7.8 7.2 14.5 6.8 14.9 -0.3 0.3 -0.1 0.6 0.6 0.6 0.7 0 1 0.3 0.8 0.8 -0.3 0.4 0.2 1.3 1 2 1.2 1.2 1.6 0.8 3 -2.7 0.9 -2.3 2 -4.1 2.5 -4.1 0.5 0 0.6 -0.4 0.3 -1 -0.3 -0.5 -0.2 -1 0.3 -1 0.6 0 1.8 -2 2.9 -4.5 1 -2.5 2.1 -4.5 2.6 -4.5 0.4 0 0.7 -0.4 0.7 -0.9 0 -1.5 8.2 -9.1 9.1 -8.5 0.5 0.3 0.9 0.1 0.9 -0.4 0 -0.5 2 -0.9 4.5 -0.7 2.5 0.1 4.5 -0.2 4.5 -0.7 0 -0.6 5.6 -0.8 14.3 -0.4 16.5 0.6 20.6 0.6 30.5 -0.1 5.4 -0.3 7.2 -0.2 7.2 0.8 0 1 0.3 1 1.2 0.1 1.5 -1.5 11.4 -1.6 12.3 -0.1 0.5 0.7 1.3 0.4 2.6 -0.7 1 -0.9 1.6 -2 1.4 -2.4 -0.3 -0.4 0.2 -1 1 -1.4 0.8 -0.3 1.5 -1.2 1.5 -2.1 0 -0.8 0.4 -1.5 1 -1.5 0.5 0 1.2 -1.1 1.6 -2.5 0.3 -1.4 1.1 -2.5 1.7 -2.5 0.6 0 0.7 -0.3 0.4 -0.7 -0.4 -0.3 0.2 -2 1.3 -3.8 1.1 -1.8 1.7 -3.5 1.3 -3.8 -0.3 -0.4 -0.1 -0.7 0.6 -0.7 0.7 0 0.9 -0.5 0.6 -1 -0.4 -0.6 -0.1 -1.7 0.5 -2.5 0.6 -0.8 0.9 -1.9 0.5 -2.5 -0.3 -0.5 -0.3 -1.6 0.2 -2.2 1 -1.7 1.1 -19.8 0.1 -20.4 -0.5 -0.3 -0.8 -2 -0.8 -3.7 0 -1.8 -0.7 -4.3 -1.6 -5.5 -0.8 -1.2 -1.2 -2.2 -0.9 -2.2 0.3 0 -0.6 -2.2 -2.1 -5 -1.5 -2.7 -3.1 -5 -3.6 -5 -0.4 0 -0.8 -0.5 -0.8 -1 0 -1.6 -14 -15 -15.6 -15 -0.8 0 -1.4 -0.4 -1.4 -0.9 0 -0.9 -2.5 -2.1 -5.5 -2.7 -0.5 -0.1 -2.3 -0.8 -4 -1.5 -1.6 -0.7 -3.3 -1.3 -3.7 -1.4 -0.5 -0.2 -0.9 -0.3 -1 -0.5 -1.7 -1.3 -21.6 -2.1 -22.4 -0.9 -0.2 0.5 -1.1 0.6 -1.8 0.3 -0.8 -0.3 -1.7 -0.1 -2.1 0.5 -0.3 0.6 -1.7 1.1 -3 1.1 -1.3 0 -2.7 0.5 -3 1 -0.3 0.6 -1.4 1 -2.4 1 -1 0 -2.8 0.9 -4.1 2 -1.3 1.1 -2.9 2 -3.7 2 -0.7 0 -1.3 0.5 -1.3 1 0 0.6 -0.7 1 -1.5 1 -0.9 0 -1.8 0.7 -2.1 1.5 -0.4 0.8 -1.1 1.5 -1.8 1.5 -0.6 0 -2.2 1.4 -3.6 3.1 -1.4 1.7 -3.5 4 -4.7 5.2 -1.3 1.1 -2.3 2.7 -2.3 3.4 0 0.7 -0.4 1.3 -1 1.3 -0.5 0 -1 0.7 -1 1.5 0 0.8 -0.4 1.5 -1 1.5 -0.5 0 -1.2 1.1 -1.6 2.5 -0.3 1.4 -1 2.5 -1.4 2.5 -0.4 0 -1.5 1.6 -2.5 3.6 -1.8 3.8 -6.4 6.5 -10.1 5.8 -2.3 -0.4 -9.4 -6.9 -9.4 -8.5 0 -0.5 -0.4 -0.9 -0.9 -0.9 -0.5 0 -1.2 -1.1 -1.5 -2.5 -0.4 -1.4 -1.1 -2.5 -1.6 -2.5 -0.6 0 -1 -0.7 -1 -1.5 0 -0.8 -0.9 -1.9 -2 -2.5 -1.1 -0.6 -2 -1.5 -2 -2.1 0 -1.2 -10.8 -11.9 -12 -11.9 -0.4 0 -1.1 -0.7 -1.4 -1.6 -0.3 -0.8 -1 -1.2 -1.6 -0.9 -0.5 0.3 -1 0.1 -1 -0.4 0 -0.6 -0.6 -1.1 -1.4 -1.1 -0.8 0 -2.2 -0.7 -3 -1.6 -0.9 -0.8 -1.6 -1.2 -1.6 -0.8 0 0.3 -0.6 0.1 -1.4 -0.5 -0.8 -0.7 -2.7 -1.4 -4.2 -1.7 -1.6 -0.3 -3.3 -0.9 -3.9 -1.3 -1.2 -1 -1.5 -1 -13 -1.5 -4.9 -0.2 -9.5 0.1 -10.1 0.6 -0.7 0.5 -1.6 0.8 -2 0.7 -0.5 -0.1 -1.2 0 -1.6 0.1 -0.5 0.1 -1.2 0.4 -1.8 0.5 -0.5 0.1 -1.1 0.3 -1.2 0.4 -0.2 0.2 -1.3 0.4 -2.6 0.7 -1.3 0.2 -3 1.1 -3.8 1.9 -0.9 0.8 -2.6 1.8 -4 2.1 -1.3 0.3 -2.4 1 -2.4 1.5 0 0.5 -0.7 0.9 -1.5 0.9 -0.8 0 -1.5 0.5 -1.5 1 0 0.6 -0.5 1 -1.2 1 -1.2 0 -10.8 9 -10.8 10.3 0 0.4 -0.9 1.6 -2 2.7 -1.1 1.1 -2 2.7 -2 3.5 0 0.8 -0.5 1.5 -1.1 1.5 -0.5 0 -0.7 0.5 -0.4 1 0.3 0.6 0.1 1 -0.6 1 -0.7 0 -0.9 0.3 -0.6 0.7 0.4 0.3 0.2 1.2 -0.4 1.9 -0.5 0.7 -1.2 2.5 -1.5 4 -0.3 1.5 -0.8 3.2 -1.2 3.8 -0.9 1.5 -1.2 4.7 -1.3 14.1 0 9.3 0.3 13.1 1.3 14 0.4 0.4 0.4 1.3 0.1 2.1 -0.3 0.8 0.1 1.4 0.8 1.4 0.7 0 0.9 0.3 0.6 0.7 -0.4 0.3 -0.2 1.2 0.4 2 0.6 0.7 0.8 1.3 0.4 1.3 -0.3 0 0.2 1.5 1.2 3.3 3.4 5.7 2.9 6 -8 5.8 -11.2 -0.2 -12.2 -0.5 -12.4 -2.9 -0.1 -0.9 -0.7 -3 -1.4 -4.7 -2.8 -6.8 -3.1 -9.7 -3.1 -24 0.1 -14.6 0.2 -15.6 1.2 -17 0.5 -0.5 1 -2.3 1.1 -4 0.2 -1.6 0.8 -3.3 1.2 -3.6 0.4 -0.3 0.9 -1.6 1 -2.7 0.1 -1.2 0.5 -2.2 0.9 -2.2 0.4 0 0.7 -0.3 0.6 -0.7 -0.4 -1.5 1.3 -5.3 2.3 -5.3 0.6 0 0.7 -0.4 0.4 -1 -0.3 -0.5 -0.1 -1 0.4 -1 0.6 0 1.1 -0.7 1.1 -1.5 0 -0.8 0.5 -1.5 1 -1.5 0.6 0 1 -0.7 1 -1.5 0 -0.8 0.5 -1.5 1 -1.5 0.6 0 1 -0.4 1 -0.9 0 -1.2 13.8 -14.8 15.7 -15.5 0.7 -0.3 1.3 -1 1.3 -1.6 0 -0.5 0.7 -1 1.5 -1 0.8 0 1.5 -0.4 1.5 -0.9 0 -0.5 1.1 -1.2 2.5 -1.5 1.4 -0.4 2.5 -1.1 2.5 -1.7 0 -0.6 0.5 -0.7 1 -0.4 0.6 0.3 1 0.2 1 -0.3 0 -1 5.4 -3.5 7.6 -3.5 0.8 0 1.4 -0.3 1.4 -0.6 0 -0.4 1.2 -0.8 2.6 -0.9 1.4 -0.1 3.1 -0.5 3.6 -0.9 0.6 -0.3 3.2 -0.8 5.7 -1 2.5 -0.2 5.1 -0.9 5.8 -1.4 0.7 -0.7 3.2 -0.9 6 -0.5 2.7 0.3 7.1 0.8 9.8 1 2.8 0.2 6.1 0.7 7.5 1.1 1.4 0.3 3.1 0.7 3.8 0.7 0.6 0.1 1.2 0.6 1.2 1.1 0 0.5 0.6 0.7 1.4 0.4 0.8 -0.3 1.6 -0.2 1.8 0.3 0.2 0.5 1.2 1.1 2.3 1.4 4.2 0.9 6.5 1.9 6.5 2.8 0 0.5 0.4 0.7 0.9 0.4 0.4 -0.3 1.9 0.3 3.1 1.4 1.3 1.1 2.9 2 3.5 2 0.7 0 1.5 0.7 1.9 1.5 0.3 0.8 1 1.5 1.5 1.5 1.7 0 10.1 7.8 16.1 14.9 3.7 4.4 5.7 5.1 6.7 2.4 0.8 -2.1 15 -16.3 16.4 -16.3 0.5 0 1.2 -0.7 1.5 -1.5 0.4 -0.8 1.2 -1.5 2 -1.5 0.8 0 1.4 -0.4 1.4 -1 0 -0.5 0.6 -1 1.3 -1 0.8 0 2.4 -0.9 3.7 -2 2.2 -1.9 3.5 -2.4 5.3 -2.1 0.4 0 0.7 -0.4 0.7 -1 0 -0.5 0.4 -0.8 0.8 -0.5 0.4 0.2 2.7 -0.4 5 -1.4 2.3 -1.1 4.2 -1.6 4.2 -1.3 0 0.3 0.7 0 1.5 -0.7 0.8 -0.6 1.9 -0.9 2.5 -0.5 0.5 0.3 1.5 0.3 2.2 -0.1 0.6 -0.4 2.3 -0.8 3.7 -1 1.4 -0.1 5.6 -0.6 9.4 -1 4.3 -0.4 6.7 -0.3 6.7 0.3 0 0.6 1.5 0.9 3.4 0.6 1.9 -0.2 3.7 0.1 4.1 0.7 0.4 0.6 1.1 0.8 1.6 0.4 0.5 -0.3 1.7 0 2.5 0.7 0.8 0.6 1.7 0.9 2 0.6 0.6 -0.6 6.5 1.2 7.4 2.2 0.8 1 10.4 5.5 11.3 5.3 0.4 -0.1 0.7 0.2 0.7 0.8 0 0.5 0.6 1 1.4 1 0.8 0 1.6 0.7 2 1.5 0.3 0.8 1 1.5 1.5 1.5 1.1 0 5.6 3.6 8.5 6.9 1.2 1.3 3.3 3.7 4.7 5.2 1.5 1.5 2.9 3.5 3.2 4.4 0.4 0.8 1.1 1.5 1.7 1.5 0.6 0 0.9 0.4 0.6 0.8 -0.3 0.5 0.2 1.8 1.2 2.8 3.8 4.4 10.8 20.6 9.6 22.5 -0.3 0.5 -0.2 1.5 0.2 2.1 1.5 2.4 2.7 22.5 1.4 23.3 -0.5 0.3 -0.7 1.9 -0.5 3.5 0.2 1.6 0 3.2 -0.5 3.5 -0.5 0.3 -0.7 1.2 -0.3 2 0.3 0.9 0 2.2 -0.7 3 -0.7 0.8 -0.9 1.5 -0.5 1.5 0.4 0 0.3 0.6 -0.2 1.3 -0.6 0.6 -1.3 2.9 -1.7 5 -0.4 2 -1.1 3.7 -1.7 3.7 -0.6 0 -0.7 0.5 -0.4 1 0.3 0.6 0.1 1 -0.5 1 -0.6 0 -0.9 0.4 -0.5 0.9 0.3 0.5 -0.2 1.7 -1.1 2.5 -0.9 0.9 -1.3 2.4 -1 3.3 0.5 1.2 0.9 1.4 1.8 0.5 1.5 -1.5 11.8 -1.6 11.8 -0.1 0 0.6 0.8 0.8 1.8 0.5 2.1 -0.6 6.1 4.1 6.8 8 0.7 3.7 -5 11.1 -9.1 11.9 -1.6 0.3 -26.3 0.5 -54.8 0.3 -30.9 -0.2 -51.7 0.1 -51.7 0.6 0 0.5 -0.3 0.7 -0.6 0.4 -0.7 -0.7 -4.4 2.8 -4.4 4.1 0 0.5 -0.4 1.1 -0.8 1.3 -1.2 0.5 -7.8 12.9 -8.6 16.1 -0.3 1.5 -1.1 2.7 -1.7 2.7 -0.6 0 -0.7 0.5 -0.4 1 0.3 0.6 0.1 1 -0.5 1 -0.6 0 -0.9 0.4 -0.6 0.9 0.3 0.4 -0.6 2.1 -1.9 3.7 -1.4 1.6 -2.5 3.5 -2.5 4.2 0 0.7 -1.2 1.8 -2.7 2.4 -4.6 1.8 -8.8 1.6 -11.9 -0.6z"/>
 </g>
 <g fill="#c3f2fb">
  <path d="M18 125.9 c0 -0.5 1.6 -0.9 3.5 -0.9 4.6 0 4.6 1.4 0 1.7 -1.9 0.1 -3.5 -0.3 -3.5 -0.8z"/>
  <path d="M30 125.8 c0 -0.4 2.5 -0.8 5.5 -0.8 3 0 5.5 0.4 5.5 0.8 0 0.4 -2.5 0.8 -5.5 0.8 -3 0 -5.5 -0.4 -5.5 -0.8z"/>
  <path d="M56.4 125.9 c-0.3 -0.5 4.1 -0.9 9.7 -0.9 5.6 0 9.9 0.3 9.6 0.7 -1.1 1 -18.7 1.1 -19.3 0.2z"/>
  <path d="M200 125.8 c0 -0.4 5.7 -0.8 12.7 -0.8 6.9 0 12.3 0.3 11.9 0.8 -1 1 -24.6 1.1 -24.6 0z"/>
  <path d="M239 125.8 c0 -0.4 3 -0.8 6.6 -0.8 3.6 0 6.3 0.4 6 0.9 -0.7 1.1 -12.6 1 -12.6 -0.1z"/>
  <path d="M254.8 125.9 c-0.8 -0.5 1 -0.9 4.5 -0.9 3.1 0 5.7 0.3 5.7 0.8 0 1 -8.6 1.1 -10.2 0.1z"/>
  <path d="M296.4 125.9 c-0.3 -0.5 2 -0.9 5.2 -0.9 3.2 0 5.4 0.3 5 0.7 -1 1.1 -9.5 1.3 -10.2 0.2z"/>
  <path d="M92 8.8 c0 -0.4 2 -0.8 4.5 -0.8 5.9 0 5.9 1.5 0 1.6 -2.5 0 -4.5 -0.3 -4.5 -0.8z"/>
  <path d="M224.8 8.9 c-0.8 -0.5 0.8 -0.9 4.1 -0.9 3 0 5.1 0.3 4.7 0.8 -1.1 1 -7.2 1.1 -8.8 0.1z"/>
 </g>
 <g fill="#06c8fa">
  <path fill="url(#lg0)" d="M166.7 252 c-0.7 -2.5 0.9 -3.6 2.9 -1.9 1.3 1 1.7 1 2.4 0 0.8 -1.3 3 -0.7 3 0.8 0 0.6 -5.7 3.1 -7.2 3.1 -0.3 0 -0.8 -0.9 -1.1 -2z"/>
  <path fill="url(#lg0)" d="M182 243 c-1.2 -0.8 -1.2 -1 0.3 -1.6 2.1 -0.8 3.5 0.2 2.1 1.6 -0.5 0.5 -1.5 0.6 -2.4 0z"/>
  <path fill="url(#lg0)" d="M134 233.5 c0 -1.6 1.6 -2 2.4 -0.6 0.3 0.5 -0.1 1.1 -0.9 1.5 -0.9 0.3 -1.5 0 -1.5 -0.9z"/>
  <path fill="url(#lg0)" d="M147 224 c0 -1.2 2.8 -2.5 3.6 -1.7 0.3 0.3 -0.4 1 -1.5 1.7 -1.5 0.7 -2.1 0.7 -2.1 0z"/>
 </g>
 <g fill="#02c7fb">
  <path fill="url(#lg0)" d="M157 253.9 c-1.9 -0.6 -5.1 -2.2 -7 -3.7 -7.2 -5.4 -87 -84.6 -87 -86.4 0 -1 0.9 -2.7 2 -3.8 1.7 -1.7 3.3 -2 11.1 -2 l9 0 38.6 37.8 c21.1 20.7 39.1 37.7 39.8 37.7 1.3 0 13.9 -12 54.6 -52.2 l23.6 -23.3 8.5 0 c7.1 0 8.8 0.3 10.6 2 1.2 1.2 2.2 2.9 2.2 3.9 0 2.5 -82.8 85 -88.3 87.9 -5 2.6 -12.8 3.6 -17.7 2.1z m16.7 -3.2 c3.6 -1.9 83.3 -79.5 87.1 -84.9 1 -1.3 1 -2.3 0.2 -3.8 -1 -1.8 -2.1 -2 -10.3 -2 l-9.2 0 -38 37.5 c-21.5 21.1 -38.8 37.4 -39.8 37.5 -1.1 0 -17.1 -14.9 -40 -37.5 l-38.2 -37.5 -9.7 0 c-9 0 -9.8 0.2 -10.9 2.2 -1.3 2.3 -6.7 -3.2 66.2 68.5 10.7 10.6 21.1 19.9 23 20.7 5.2 2.3 14.6 2 19.6 -0.7z"/>
  <path fill="url(#lg0)" d="M164.4 185.6 c-1.7 -0.8 -4 -2.7 -5.1 -4.2 -1.2 -1.6 -9.3 -17.6 -18.1 -35.6 l-16 -32.8 -4.8 9.6 c-5.7 11.2 -11.7 18.4 -17.7 21.3 -4.2 2 -5.9 2.1 -45.1 2.1 -26 0 -41.4 -0.4 -42.7 -1 -5.1 -2.8 -6.5 -12.5 -2.4 -16.5 l2.4 -2.5 38.3 0 c34.5 0 38.6 -0.2 40.8 -1.7 3.8 -2.6 4.3 -3.5 13.7 -21.7 6.6 -12.9 9.4 -17.3 11.7 -18.7 4 -2.4 8.3 -2.4 12.3 0.1 3.4 2 3.3 1.8 28.5 53.9 l8.9 18.5 1.9 -3.2 c1.1 -1.8 3.3 -5.8 4.9 -9 4.4 -8.7 8.7 -13.9 13 -16.2 3.8 -1.9 5.8 -2 41 -2 l36.9 0 3 -3.7 c4.4 -5.7 7.8 -12.1 10.3 -19.3 3 -8.7 3.2 -24.9 0.5 -33 -7.4 -22.2 -25.1 -37.2 -47.6 -40.3 -20.4 -2.8 -43.4 9.9 -55.8 30.9 -9.8 16.5 -16 16.9 -26.2 1.8 -8.4 -12.4 -13.5 -17.9 -21.4 -23.2 -18.8 -12.6 -41.2 -13 -59.7 -1.1 -5.3 3.4 -13.7 11.6 -17.5 17.3 -9.6 14.1 -11.3 34.5 -4.5 52.2 2 5.2 2.5 7.6 1.8 8.3 -0.6 0.6 -5.2 1.1 -10.5 1.1 l-9.3 0 -1.9 -4.2 c-2.8 -6.4 -5 -18.7 -5 -27.7 0 -31.3 18.6 -58.6 48.3 -70.9 10.3 -4.3 17.9 -5.5 30.9 -5 20.5 0.9 34.3 7.4 50.9 23.8 l10.5 10.5 4.8 -5.8 c10.4 -12.6 26 -22.7 41.6 -26.8 7.1 -1.8 10.2 -2.1 20.4 -1.7 19.9 0.8 33.6 6.5 48.2 20.1 21.2 19.7 29.3 47.5 22.3 76.2 -1.3 5.6 -7.6 20.1 -8.4 19.3 -0.3 -0.2 0.6 -2.7 1.9 -5.5 5.6 -11.5 7.1 -18.8 7.1 -34.3 0 -13.7 -0.2 -15 -3.1 -23.3 -4.5 -12.4 -8.6 -18.9 -18.9 -29.3 -9.9 -10 -17 -14.5 -30 -19 -7.2 -2.5 -9.4 -2.8 -21.5 -2.8 -10.4 -0.1 -14.9 0.4 -19.5 1.8 -8.3 2.6 -18.9 8 -25.6 13.2 -5.8 4.4 -17.9 17 -17.9 18.5 0 2.2 -2.6 0.2 -12.2 -9.5 -11.4 -11.4 -19.6 -16.8 -32.4 -21.3 -7.1 -2.4 -9.3 -2.7 -21.4 -2.8 -11.5 0 -14.5 0.4 -20.4 2.3 -42.2 14.1 -63.9 55.3 -50.5 95.9 l2 6.2 8.6 0.3 c4.7 0.2 8.9 0.1 9.4 -0.2 0.4 -0.3 -0.5 -4.4 -2.1 -9 -7.9 -23.1 -3.4 -43.5 13.5 -60.6 12.4 -12.6 26.1 -18.1 42.5 -17.1 19.6 1.1 34.7 11 49.1 31.9 6.5 9.5 9 11.8 12.9 11.8 3.7 -0.1 4.9 -1.4 12.9 -13.2 8.4 -12.5 15.8 -19.6 25.6 -24.3 10.2 -5.1 18.4 -6.9 28 -6.2 18.4 1.3 35.5 11.9 45.4 28.2 12 19.8 10.2 46.6 -4.4 65.8 l-3.6 4.7 -36.7 0 c-46.7 0 -44.3 -0.8 -55.4 20 -2.9 5.5 -5.8 10 -6.5 10 -0.6 0 -7.4 -12.7 -15 -28.2 -21.7 -44.5 -20.3 -42.1 -24.5 -44.1 -3.2 -1.6 -4.3 -1.7 -7.3 -0.7 -4.4 1.4 -5.5 3 -15 21.7 -5 10 -8.9 16.3 -11.1 18.3 l-3.5 3 -38.5 0 -38.5 0 -2.6 2.6 c-2.2 2.2 -2.5 3.2 -2 6.7 0.4 2.8 1.4 4.9 3.2 6.5 l2.7 2.3 41.2 -0.3 41.1 -0.3 4.6 -2.9 c5.5 -3.5 10.1 -9.6 15.4 -20.3 2.2 -4.5 4.6 -8.4 5.3 -8.7 0.9 -0.4 6.4 9.8 18.3 33.9 11.1 22.5 17.8 35.1 19.6 36.4 1.6 1.4 4 2.1 6.7 2.1 5.7 0 7.6 -2.3 16.9 -20 4.2 -8 8.8 -15.7 10.2 -17 l2.7 -2.5 55 -0.5 55 -0.5 2.4 -2.8 c3.1 -3.7 3.3 -9.6 0.3 -12.3 -1.6 -1.5 -4.2 -2 -11.2 -2.5 l-9.2 -0.5 9.1 -0.2 c7.7 -0.2 9.5 0.1 11.6 1.8 4.6 3.6 4.1 12 -0.9 16 -2.5 2 -3.7 2 -55.5 2 -42.3 0 -53.5 0.3 -56.1 1.4 -2.8 1.1 -4.5 3.6 -11.9 17.7 -4.8 9.1 -9.8 17.5 -11.1 18.7 -3 2.9 -8.3 3.6 -12.3 1.8z"/>
 </g>
</svg>