<?xml version="1.0" encoding="utf-8"?>
<!DOCTYPE svg PUBLIC "-//W3C//DTD SVG 1.0//EN" "http://www.w3.org/TR/2001/REC-SVG-20010904/DTD/svg10.dtd">
<svg version="1.0" xmlns="http://www.w3.org/2000/svg" width="556px" height="409px" viewBox="0 0 556 409" preserveAspectRatio="xMidYMid meet">
   <defs>
      <linearGradient id="lg0" gradientUnits="userSpaceOnUse" x1="50.35971%" y1="3.9119804%" x2="50.35971%" y2="90.709045%">
         <stop offset="0%" style="stop-color:rgb(191,111,253);"></stop>
         <stop offset="13%" style="stop-color:rgb(153,72,241);"></stop>
         <stop offset="16%" style="stop-color:rgb(159,84,243);"></stop>
         <stop offset="83%" style="stop-color:rgb(118,47,247);"></stop>
         <stop offset="85%" style="stop-color:rgb(121,50,247);"></stop>
         <stop offset="100%" style="stop-color:rgb(99,29,234);"></stop>
      </linearGradient>
   </defs>
 <g fill="#fcfcfd">
 </g>
 <g fill="#f5effd">
  <path d="M215.3 198.5 c-2.9 -2 -4.7 -7.8 -3.9 -13.1 1 -7.7 12.7 -24.8 24.1 -35.2 7.4 -6.8 19.7 -13.4 29.5 -15.8 9 -2.3 30.1 -1.5 38 1.4 11.5 4.1 23.7 11.8 30.4 19.2 4.6 5.1 5.1 10.4 1.1 11.4 -1.8 0.5 -2.5 1.3 -2.5 2.9 0 1.3 -0.5 2.8 -1.2 3.5 -1.7 1.7 -6.9 1.5 -9.6 -0.4 -2 -1.4 -2.2 -1.4 -2.2 0 0 1.1 -1 1.6 -3 1.6 -2.1 0 -4.8 -1.5 -9.2 -5 -8.8 -7.1 -15.2 -9.5 -25.9 -9.5 -7.9 0 -9.1 0.3 -16.3 3.8 -9.4 4.7 -15.9 11 -25.2 24.4 -3.8 5.4 -7.5 10.3 -8.4 11 -2.2 1.8 -13.1 1.6 -15.7 -0.2z"/>
 </g>
 <g fill="#e8dbfd">
  <path d="M318.2 182.8 c-1.6 -3 -3.7 -6 -4.6 -6.7 -0.9 -0.8 -1.6 -2.8 -1.6 -4.9 l0 -3.5 2.2 1.9 c1.9 1.7 2.1 1.7 1.5 0.2 -1 -2.9 3.6 -3.4 7.6 -0.9 3.6 2.2 5.7 1.5 5.7 -2.2 0 -2.3 2.1 -4.5 3.9 -3.9 1 0.3 1.1 0 0.1 -1.8 -1.2 -2.2 -1.1 -2.2 1.6 -1.6 3.1 0.8 3.3 1.1 8.1 10 3.9 7.2 4.7 15.6 1.5 15.6 -1 0 -2.3 0.5 -3 1.2 -0.7 0.7 -5.1 1.3 -10.6 1.5 l-9.4 0.4 -3 -5.3z"/>
 </g>
 <g fill="#dbc6fd">
  <path d="M324 203.8 c0 -2.4 -0.7 -7 -1.5 -10.3 -1.5 -6.4 -1.9 -11.5 -0.9 -11.5 0.4 0 1.3 0.8 2 1.8 0.7 0.9 1.4 1.2 1.4 0.5 0 -0.7 1.2 -0.9 3.3 -0.7 5.8 0.8 8.9 0.5 10.8 -1.2 1 -0.9 2.3 -1.3 2.8 -0.9 0.7 0.3 1.1 -0.2 1.1 -1.4 0 -2.9 3.6 -2.8 4.4 0.2 0.8 3.2 0.7 12.7 -0.1 12.7 -4.6 0.1 -13.6 2.2 -14.8 3.4 -0.9 0.9 -1.5 3.3 -1.5 6.5 l0 5.1 -3.5 0 c-3.4 0 -3.5 -0.1 -3.5 -4.2z"/>
 </g>
 <g fill="#c6a6fc">
  <path d="M325.1 196.8 c0.1 -4.7 0.3 -5.7 0.9 -3.8 1.2 3.6 1.2 10 0 10 -0.6 0 -1 -2.7 -0.9 -6.2z"/>
  <path d="M328 198.9 c0 -2.2 0.6 -4.6 1.3 -5.3 1.8 -1.7 6.9 -3.7 9.2 -3.5 4.7 0.5 6.5 -0.1 6.5 -2.1 0 -1.3 0.7 -2 2 -2 1.8 0 2 0.7 2 8.4 l0 8.5 -10.5 0 -10.5 0.1 0 -4.1z"/>
 </g>
 <g fill="#ba7bfc">
  <path d="M335.5 212 c-1.1 -0.5 -4.4 -0.6 -7.2 -0.3 l-5.3 0.6 0 -5.7 c0 -3.1 0.5 -5.6 1 -5.6 0.6 0 1 -0.9 1 -2 0 -4 2 -1.9 2.1 2.3 0.2 2.9 0.3 3.4 0.6 1.5 0.3 -2 1.1 -2.9 2.6 -3 3.9 -0.3 6.2 -0.6 6.7 -0.8 1.6 -0.7 7 -0.6 7 0.1 0 0.5 0.5 0.9 1 0.9 0.6 0 1 -1.2 1 -2.6 0 -2.3 0.2 -2.4 1.5 -1 1.5 1.5 2.1 9.9 0.9 14.4 -0.6 1.9 -1.3 2.2 -5.8 2.1 -2.8 0 -6 -0.4 -7.1 -0.9z"/>
  <path fill="url(#lg0)" d="M361.5 95 c-15.6 -7.7 -30.5 -12.4 -49 -15.6 -13.7 -2.3 -16.7 -2.5 -35.5 -2.1 -16.9 0.4 -22.6 1 -32.5 3.1 -14.4 3 -32.5 9.1 -45.4 15.2 -5.2 2.4 -9.5 4.3 -9.5 4.2 -0.1 -0.2 -0.7 -1.3 -1.3 -2.5 -0.7 -1.3 -1.3 -3.5 -1.3 -5 0 -3.1 4.1 -6.1 13.2 -9.9 2.7 -1 4.8 -2.2 4.8 -2.6 0 -0.5 1 -0.8 2.2 -0.8 3.3 0 10.8 -3.3 10.8 -4.7 0 -0.7 1.1 -1.3 2.4 -1.3 1.3 0 3.5 -1 5 -2.1 2.2 -1.7 3.6 -2 7.1 -1.6 2.4 0.4 10.3 -0.2 17.7 -1.3 9.4 -1.3 19.9 -2 35.8 -2.1 21.3 -0.2 25.8 0.1 30.5 2.1 2.8 1.2 11 3 13.5 3 2.6 0 25.3 8.2 35 12.7 11.6 5.4 14 7.2 14 11.1 0 2.2 -0.5 3.2 -1.5 3.2 -0.9 0 -1.8 0.7 -2.1 1.5 -0.4 0.8 -0.9 1.5 -1.3 1.4 -0.3 0 -6 -2.7 -12.6 -5.9z"/>
  <path fill="url(#lg0)" d="M287.4 24.1 c-4.6 -0.4 -7.9 -1.2 -9 -2.3 -1.8 -1.5 -2 -1.5 -4.3 0.3 -1.6 1.3 -3.9 1.9 -7.1 1.9 l-4.7 0 -0.6 -5.2 c-0.2 -2.9 -0.2 -5.7 0.1 -6.2 0.5 -1 48 -0.1 52.5 1 2.3 0.5 2.7 1.2 2.7 3.9 0 5 -2.2 6.6 -8.9 6.5 -3.1 0 -7.4 0.2 -9.6 0.4 -2.2 0.2 -7.2 0.1 -11.1 -0.3z"/>
 </g>
 <g fill="#b566fb">
  <path d="M321 215.3 c0 -5 1.6 -9.4 3.8 -10.1 0.7 -0.2 1.2 0.5 1.2 1.7 0 1.8 0.3 1.9 2.4 1 1.8 -0.9 3.7 -0.7 7.7 0.4 3.8 1.2 5.7 1.3 6.6 0.5 1 -0.8 1.3 -0.7 1.4 0.3 0 0.8 0.5 0.1 1.1 -1.5 0.8 -2.1 1.3 -2.5 1.9 -1.5 1.1 1.8 1.1 9 0 10.7 -0.7 1.2 -14.3 3.1 -22.8 3.2 -3.3 0 -3.3 0 -3.3 -4.7z"/>
  <path fill="url(#lg0)" d="M154.6 118.1 c-1.1 -1.2 -1.6 -3.1 -1.4 -5.2 0.3 -3.1 1.4 -4 12.8 -11.5 6.9 -4.5 13.4 -9.1 14.6 -10.3 1.6 -1.6 3.4 -2.1 7.3 -2.1 5.1 0 6.5 1.1 3.5 2.8 -1.3 0.7 -1.3 1 -0.1 2.1 2.7 2.2 0.6 5 -7 9.1 -4 2.3 -11.6 7 -16.8 10.6 -5.2 3.5 -9.9 6.4 -10.3 6.4 -0.5 0 -1.7 -0.9 -2.6 -1.9z"/>
  <path fill="url(#lg0)" d="M393.9 113.4 c-3.5 -2.5 -10.3 -6.8 -15.1 -9.5 -8.3 -4.9 -8.6 -5.1 -7 -7 0.9 -1 2.3 -1.9 3.1 -1.9 1.1 0 1 -0.4 -0.5 -1.5 -1.8 -1.3 -1.6 -1.4 2.3 -1.5 4.3 0 8.8 1.5 11.1 3.7 0.7 0.7 2.4 1.3 3.8 1.3 1.3 0 2.4 0.6 2.4 1.3 0 0.8 2.7 3.3 6 5.7 5 3.6 6 4.8 6 7.3 0 2.6 -3 6.7 -5 6.7 -0.3 0 -3.5 -2.1 -7.1 -4.6z"/>
  <path fill="url(#lg0)" d="M258.3 46.3 c-1.3 -0.2 -2.3 -0.9 -2.3 -1.4 0 -0.5 -0.7 -0.9 -1.5 -0.9 -0.8 0 -1.5 0.5 -1.5 1 0 0.6 -1.6 1 -3.5 1 -3.3 0 -4.5 -0.8 -8.1 -5.3 -0.9 -1.1 -3.6 -1.3 -12.3 -1 -9.5 0.4 -11.4 0.2 -13.6 -1.4 -1.3 -1 -2.5 -2.5 -2.5 -3.3 -0.1 -1 -0.3 -1.1 -0.7 -0.2 -0.9 2.3 -19.3 0.5 -19.3 -1.9 0 -0.5 -0.7 -0.9 -1.6 -0.9 -1 0 -1.4 -0.7 -1.2 -2.2 0.2 -1.7 1.8 -2.6 7.3 -4.5 16.7 -5.7 45.9 -11.6 62 -12.5 l5 -0.3 0.3 4.3 c0.3 3.3 0.7 4.2 2.2 4.2 2.9 0 8.2 -5 7.7 -7.2 -0.5 -1.6 0.1 -1.8 5.1 -1.6 3.6 0.1 4.5 0.3 2.5 0.5 -4.1 0.5 -4.4 3.3 -0.7 6.2 2.8 2.2 6 2.7 8.3 1.2 1 -0.6 2.6 -0.5 4.7 0.4 2.8 1.1 3.5 1.1 6.3 -0.7 2.9 -1.9 3.3 -1.9 5.7 -0.4 3.3 2.3 6.3 1.2 7.1 -2.5 0.6 -3.4 0.2 -3.3 11.8 -1.3 16.8 2.9 50 12.5 52.8 15.3 1.5 1.5 -3.6 8.6 -7.5 10.6 -1.8 0.9 -5.3 1.9 -7.8 2.2 -4.5 0.5 -4.5 0.5 -5.8 -3.1 -1.4 -3.7 -2.9 -4.5 -5 -2.4 -0.6 0.6 -3.5 1.2 -6.4 1.4 -2.9 0.1 -6.1 0.5 -7 0.9 -0.9 0.4 -5.4 0.7 -10 0.8 -4.6 0.1 -8.6 0.6 -9 1.2 -1.7 2.3 -20.1 4.5 -21.3 2.5 -0.3 -0.5 -1.9 -1 -3.5 -1 -1.6 0 -3.2 0.5 -3.5 1 -0.7 1.2 -7.4 1.2 -13.5 0 -3.4 -0.6 -4.9 -0.5 -6.1 0.6 -1.5 1.3 -8.4 1.7 -13.6 0.7z"/>
 </g>
 <g fill="#a458fa">
  <path fill="url(#lg0)" d="M265.5 325.3 c-22.7 -1.1 -53.3 -10 -77 -22.4 -22.9 -12 -51.3 -34 -69.5 -54 -4.7 -5.1 -9.7 -10.6 -11.2 -12.2 -3.2 -3.4 -4 -9.7 -1.3 -9.7 1 0 1.5 -1 1.5 -3 0 -1.6 0.4 -3 0.8 -3 0.5 0 8.4 7.6 17.8 16.9 34.5 34.3 64.4 54 99.8 65.6 30.3 10 59.6 11.8 90.2 5.5 37.1 -7.7 75.4 -29.4 110 -62.3 5.6 -5.4 10.6 -9.7 11.1 -9.7 0.5 0 2 1.1 3.3 2.5 3.3 3.6 2.4 9.5 -2.2 13.2 -1.8 1.5 -5.5 4.9 -8.3 7.7 -2.7 2.8 -6.8 6.4 -9 8.1 -2.1 1.6 -4.6 3.6 -5.5 4.5 -0.9 0.8 -3.3 2.9 -5.5 4.7 -32 25.6 -68.3 41.9 -103 46.2 -8.6 1.1 -32.2 1.8 -42 1.4z"/>
  <path d="M331.4 224 c-11 -1.2 -11.4 -1.4 -11.4 -6.6 0 -3.7 0.3 -4.4 2 -4.4 1.3 0 2 0.7 2 1.9 0 1.5 0.6 1.8 2.8 1.5 1.5 -0.3 4.9 -0.4 7.5 -0.4 2.7 0.1 5.5 -0.4 6.2 -1 0.8 -0.7 1.8 -0.9 2.4 -0.6 0.5 0.4 1.2 -0.3 1.6 -1.4 0.4 -1.1 1.1 -1.7 1.7 -1.4 1.1 0.7 0.5 10.4 -0.7 12.4 -0.7 1.1 -3.4 1.1 -14.1 0z"/>
  <path fill="url(#lg0)" d="M118.3 151.6 c-2.8 -0.9 -3.3 -1.5 -3.3 -4.2 0 -2.6 1.4 -4.6 8.9 -12 4.9 -4.9 12.1 -11.6 16 -14.8 4 -3.3 7.5 -6.4 7.9 -7 1.3 -1.9 5.1 -3.6 8.3 -3.6 3.1 0 3.1 0.1 1.5 1.8 -1.5 1.8 -1.5 2 0.4 3.7 1.1 1 1.9 2.2 1.8 2.5 -0.2 0.4 -3.9 3.6 -8.3 7.1 -4.4 3.5 -12.9 11.1 -19 16.9 -10.8 10.3 -11.1 10.5 -14.2 9.6z"/>
  <path fill="url(#lg0)" d="M422.4 136.9 c-1.8 -2 -15.5 -13.7 -21.9 -18.7 l-2.9 -2.3 2.8 -2.4 c2.5 -2.2 2.6 -2.4 0.9 -3.4 -1.5 -0.9 -1.2 -1 1.9 -1.1 3 0 4.9 1 9.5 4.7 3.2 2.6 6.4 5.3 7.1 6 0.7 0.6 3.3 2.9 5.7 4.9 3.7 3 4.5 4.2 4.5 7 0 1.9 -0.4 3.4 -0.9 3.4 -0.5 0 -1.3 0.9 -1.6 2 -0.8 2.6 -2.7 2.5 -5.1 -0.1z"/>
  <path fill="url(#lg0)" d="M349 81.5 c-11.1 -4.4 -13.6 -5.7 -13.8 -7.6 -0.2 -1.2 0.2 -2.6 1 -3 1.8 -1.2 9.8 -1.1 9.8 0.1 0 0.6 1.2 1 2.7 1 3.9 0 11.3 3 11.3 4.6 0 0.8 1.1 1.4 2.5 1.4 2.3 0 2.5 0.4 2.5 4.5 0 3 -0.4 4.5 -1.2 4.4 -0.7 -0.1 -7.4 -2.5 -14.8 -5.4z"/>
  <path fill="url(#lg0)" d="M332.9 75.5 c-0.3 -0.2 -2.1 -0.7 -4 -0.9 -3.7 -0.5 -12.5 -2.4 -14.9 -3.3 -0.8 -0.3 -2.5 -0.5 -3.7 -0.4 -1.3 0.1 -2.3 -0.2 -2.3 -0.8 0 -0.6 -0.7 -0.8 -1.5 -0.5 -1.6 0.6 -1.9 -0.4 -0.9 -3 0.4 -1 1.8 -1.6 4 -1.6 1.9 0 3.4 -0.4 3.4 -1 0 -0.5 1.6 -1 3.5 -1 1.9 0 3.5 0.5 3.5 1 0 0.6 1 1 2.3 1.1 1.2 0 3.6 0.9 5.2 2 1.7 1.1 3.8 2.2 4.8 2.5 1.1 0.4 1.7 1.7 1.7 3.5 0 2.9 -0.2 3.3 -1.1 2.4z"/>
  <path fill="url(#lg0)" d="M246.6 71.3 c-1.2 -1.2 -0.6 -6.5 0.9 -8 1.2 -1.2 3.8 -1.4 13.5 -1.1 6.6 0.1 12 0 12 -0.4 0 -0.5 5.4 -0.8 12 -0.8 10.7 0 12.2 0.2 14 2 2.2 2.2 2.6 4.5 0.9 5.6 -0.6 0.4 -8.2 0.6 -16.8 0.5 -13.5 -0.2 -20.9 0.4 -33.2 2.4 -1.5 0.2 -2.9 0.1 -3.3 -0.2z"/>
  <path fill="url(#lg0)" d="M182 57.5 c-0.8 -0.9 -2.9 -1.5 -5.6 -1.5 -2.3 0 -4.5 -0.4 -4.8 -0.8 -0.3 -0.4 -2.8 -1.4 -5.5 -2.2 -2.8 -0.7 -5.1 -1.7 -5.1 -2.2 0 -0.4 -1.3 -0.8 -2.9 -0.8 -4.2 0 -6.1 -0.9 -6.1 -3 0 -2.1 17.9 -11.4 32.5 -17 8.6 -3.2 10 -3.6 9 -2 -0.3 0.6 0.1 1 0.9 1 0.9 0 1.6 0.4 1.6 0.9 0 0.5 1 0.7 2.2 0.3 1.4 -0.3 1.9 -0.2 1.4 0.6 -0.5 0.8 0.1 1.3 1.6 1.4 1.3 0 3.5 0.2 5 0.3 1.9 0.1 3 -0.5 3.9 -2.2 1.7 -3.1 3.8 -2.9 5.1 0.5 0.6 1.5 2.1 3.5 3.4 4.5 2.2 1.6 2.6 1.7 4 0.3 2 -2 3.3 -2 5.5 0 1.3 1.2 2.6 1.4 5.1 0.8 1.8 -0.4 3.6 -0.7 3.9 -0.6 0.4 0.1 2.3 0.2 4.3 0.4 2.2 0.1 3.6 0.7 3.6 1.5 0 0.7 1 2.3 2.1 3.4 1.9 1.9 2.3 1.9 3 0.7 0.9 -1.7 8.1 -1.5 8.7 0.3 0.2 0.5 0.8 0.6 1.3 0.3 0.6 -0.3 1.5 -0.1 2.2 0.4 1.9 1.5 5.5 0.8 7.7 -1.6 2.2 -2.3 5.6 -2.9 6.2 -1.1 0.2 0.6 2.8 1.5 5.7 2.1 4.9 0.9 5.5 0.7 7.8 -1.4 2 -1.9 2.5 -2 3.3 -0.8 0.8 1.3 1 1.2 1 -0.3 0 -2.2 3.2 -1.5 6.4 1.5 1.6 1.5 2.9 1.8 5.6 1.3 1.9 -0.4 4 -1 4.5 -1.5 0.6 -0.4 2.1 -0.6 3.3 -0.4 1.7 0.3 2.5 -0.1 2.9 -1.5 0.3 -1.1 1.1 -1.7 1.8 -1.4 0.8 0.2 2.2 0 3.2 -0.5 1.3 -0.8 2.2 -0.7 3.5 0.5 1.3 1.2 2.1 1.2 3.8 0.3 1.2 -0.6 3.3 -0.9 4.6 -0.6 1.7 0.5 2.6 0.2 3 -0.9 0.5 -1.2 1.5 -1.4 3.8 -1 4.3 0.9 7.8 0.7 9 -0.5 0.6 -0.6 2.9 -1 5.2 -1 3.9 0 4.4 0.3 5.5 3.4 1 2.7 1.6 3.2 3.3 2.8 1.2 -0.3 2.8 -1.1 3.7 -1.8 0.9 -0.8 1.8 -1.1 2.2 -0.8 0.3 0.3 1.8 -1.2 3.4 -3.5 3.4 -5 3.4 -5 20.6 3.1 11.7 5.6 14.3 7.7 11.7 9.3 -0.5 0.3 -1 3 -1 6 0 5.7 -0.7 6.5 -5.8 6.5 -1.6 0 -3.2 -0.8 -3.9 -1.9 -1.1 -1.7 -1.7 -1.8 -5.2 -0.9 -2.6 0.7 -6.3 0.7 -10.4 0.1 -4.7 -0.7 -6.6 -0.6 -7.5 0.3 -1.4 1.6 -16.8 1.7 -19.3 0.1 -1.3 -0.8 -2.1 -0.8 -3.1 0 -1.8 1.5 -11.8 2.8 -12.7 1.7 -1.5 -2.1 -5.2 -3.3 -8.1 -2.7 -3.2 0.6 -11 -1.4 -11 -2.9 0 -0.4 -2.2 -0.8 -4.8 -0.8 -3.7 0 -5.4 0.5 -6.8 2.1 -1.7 1.9 -2.6 2 -7.9 1.4 -3.3 -0.3 -12.3 -0.8 -20 -1.1 -7.7 -0.2 -15.6 -0.6 -17.5 -0.9 -2.7 -0.3 -4 0 -5.3 1.5 -1.3 1.6 -2.8 1.9 -7.4 1.8 -3.2 -0.1 -6.7 0.3 -7.8 0.9 -1.2 0.7 -8.1 1 -17.7 0.9 -13.1 -0.2 -16.1 -0.5 -17.6 -1.9 -1 -0.9 -2.5 -1.7 -3.2 -1.7 -2.2 0 -8 2.3 -8 3.2 0 1.5 -9.7 0.9 -11 -0.7z"/>
 </g>
 <g fill="#9a4bf4">
  <path fill="url(#lg0)" d="M273 324 c0 -1.3 0.5 -1.7 1.4 -1.4 1.7 0.7 5.2 -5.4 3.9 -6.7 -0.5 -0.5 -2.6 -1.3 -4.8 -1.8 -3.2 -0.7 -1.5 -0.9 8 -0.8 6.6 0 9.2 0.2 5.8 0.4 -5 0.3 -6.3 0.8 -6.8 2.3 -1.1 3.5 1.5 6 6.2 6 3.6 0 4.3 0.3 4.3 2 0 1.9 -0.7 2 -9 2 -8.3 0 -9 -0.2 -9 -2z"/>
  <path d="M329.2 306.5 c1.1 -1.2 14.8 -5.3 14.8 -4.5 0 0.5 -3 1.8 -6.6 3 -6.5 2 -9.2 2.5 -8.2 1.5z"/>
  <path fill="url(#lg0)" d="M437.6 248.2 c2.2 -1.5 2.2 -4 -0.1 -6.2 -1.5 -1.4 -2.5 -1.8 -3 -1.1 -0.3 0.6 -1.1 1.1 -1.8 1.1 -0.6 0 1.4 -2.6 4.5 -5.7 9.8 -10.1 23.8 -26.6 27.1 -32 2.3 -3.7 3.8 -5.3 5.4 -5.3 2.1 0 2.2 0.4 2.2 9 -0.1 8.3 -0.3 9.3 -2.5 11.5 -1.4 1.4 -2.8 2.5 -3.2 2.5 -0.4 0 -1.4 0.9 -2.2 2 -0.8 1.1 -2 2 -2.7 2 -0.6 0 -1.5 0.9 -1.8 2 -0.3 1.1 -1 2 -1.5 2 -0.5 0 -1.1 1.3 -1.5 3 -0.3 1.6 -1.4 3.2 -2.4 3.5 -0.9 0.3 -2.4 1.7 -3.4 3.2 -3.7 6 -7.5 9.3 -10.9 9.3 -1.8 0 -2.8 -0.4 -2.2 -0.8z"/>
  <path d="M328.4 239.7 c-2.3 -2.4 -5.1 -4.4 -9.7 -6.7 -4.2 -2.1 -4.7 -2.7 -4.7 -5.6 0 -4.5 4.9 -12.3 7.7 -12.4 1.6 0 2 0.5 1.6 1.9 -0.6 2.5 2.2 3.5 10.2 3.5 3.3 0.1 6.6 0.5 7.3 0.9 0.8 0.6 1.5 0.1 2.1 -1.5 0.8 -2.1 1 -2.1 1.6 -0.5 1.3 3.1 -0.3 8.7 -4.2 15 -3.4 5.5 -4.3 6.2 -7.3 6.4 -1.9 0.2 -4 -0.3 -4.6 -1z"/>
  <path fill="url(#lg0)" d="M103.2 232.8 c-0.7 -0.7 -1.2 -1.6 -1.2 -2.1 0 -1 -7.1 -10 -8.2 -10.5 -0.9 -0.4 -1 -5.8 -0.2 -9 0.4 -1.2 1.7 -2.5 3 -2.8 1.9 -0.5 2.9 0 4.7 2.2 1.2 1.6 4 4.9 6.3 7.4 3.6 3.9 4.1 5 3.7 8.2 -0.3 2.3 -1.1 3.8 -2.1 4 -1.4 0.3 -1.3 0.5 0.2 2.1 1.7 1.6 1.6 1.7 -1.6 1.7 -1.9 0 -3.9 -0.5 -4.6 -1.2z"/>
  <path fill="url(#lg0)" d="M443.5 158 c-5.4 -6.1 -12.3 -13.2 -15.2 -15.9 -5.1 -4.5 -5.3 -4.9 -4.2 -7.4 0.7 -1.5 1.7 -2.7 2.2 -2.7 0.5 0 0.4 -0.7 -0.3 -1.5 -1.1 -1.3 -0.8 -1.5 1.7 -1.5 2.4 0 4.4 1.5 10.2 7.5 4 4.1 7.7 7.5 8.2 7.5 0.5 0 0.9 0.6 0.9 1.3 0 0.8 0.9 2.2 2.1 3.3 4 3.6 7.9 10.4 7.9 13.9 0 2.6 -2 6.5 -3.4 6.5 -0.1 0 -4.7 -5 -10.1 -11z"/>
  <path fill="url(#lg0)" d="M103.6 164.3 c-1 -6.1 -0.7 -8.3 0.9 -8.3 0.8 0 2.2 -1.8 3.1 -4 0.9 -2.2 2.2 -4 3 -4 0.8 0 1.9 -0.9 2.6 -2 0.9 -1.4 2.4 -2 4.7 -2 3.3 0 3.4 0 1.6 2 -1.7 1.9 -1.7 2 0.1 2 5.4 0.1 4.9 1.7 -3.7 10.9 -4.6 5 -9.1 9 -10 9.1 -1.1 0 -1.8 -1.2 -2.3 -3.7z"/>
  <path fill="url(#lg0)" d="M167 99.6 l0 -5.7 6.7 0.3 c3.6 0.2 6.8 0.8 7 1.3 0.3 0.9 -3 3.4 -10.4 7.8 l-3.3 1.9 0 -5.6z"/>
  <path fill="url(#lg0)" d="M384.8 98.7 c-0.7 -0.7 -3.3 -2.1 -5.8 -3.1 -2.5 -1 -5.2 -2.4 -6 -3.1 -0.8 -0.7 -4.1 -2.5 -7.3 -4 -6.1 -2.9 -7.9 -4.5 -5.2 -4.5 1.3 0 1.6 -0.6 1.1 -2.5 -0.6 -2.4 -0.5 -2.5 4.8 -2.5 4.6 0 5.6 0.4 7 2.4 0.8 1.4 3 2.7 4.8 3.1 5 1 9.8 6.7 9.8 11.6 0 4.1 -0.9 4.8 -3.2 2.6z"/>
  <path fill="url(#lg0)" d="M184 89.4 c0 -2.3 0.5 -3.4 1.5 -3.4 0.8 0 2 -0.9 2.7 -2 0.7 -1.1 2.1 -2 3.1 -2 1.1 0 2.1 -0.9 2.4 -2 0.3 -1.3 1.7 -2.2 4.1 -2.6 l3.6 -0.7 -4.8 -1.5 c-3.8 -1.2 -5.4 -1.3 -8 -0.4 -4.4 1.6 -7.4 1.5 -9.2 -0.3 -0.9 -0.8 -2.8 -1.5 -4.4 -1.5 -1.6 0 -3 0.7 -3.4 1.5 -0.7 1.9 -6.9 2 -8.5 0.1 -0.8 -0.9 -2.5 -1.2 -5.7 -0.8 -2.9 0.3 -4.9 0.1 -5.3 -0.6 -1.1 -1.8 -11.1 -0.3 -11.8 1.7 -1.3 3.6 -3.6 5.1 -7.9 5.1 -3.3 0 -4.7 -0.5 -5.6 -2 -0.9 -1.4 -2.4 -2 -5 -2 -3.9 0 -5.8 -1.9 -5.8 -5.7 0.1 -2.1 12 -10.7 27.8 -20.1 10.4 -6.1 12.9 -7.2 11.7 -5.2 -0.3 0.6 -0.3 1 0.2 1.1 4.8 0.4 7.8 1.1 8.4 2.1 0.4 0.6 1.4 0.8 2.3 0.5 0.9 -0.4 1.6 -0.2 1.6 0.3 0 0.5 1 1.1 2.3 1.5 1.2 0.3 3.2 1.1 4.5 1.7 1.8 1 2.6 0.8 3.9 -0.5 1.6 -1.6 1.9 -1.5 4.5 1 3.1 3 6.4 3.7 7.3 1.6 0.2 -0.8 0.9 -1.2 1.4 -0.9 0.4 0.3 2.1 -0.5 3.7 -1.9 2.5 -2.1 3 -2.3 4.4 -1 0.9 0.8 2.5 1.5 3.5 1.5 1 0 2.6 0.6 3.4 1.4 2.5 2.1 6.6 2.7 8.6 1.2 1.4 -1 2.6 -1.1 4.7 -0.4 1.8 0.7 3.8 0.7 5.7 0 2.2 -0.8 3.2 -0.7 4.4 0.5 1.4 1.5 2.1 1.4 7.1 -0.1 3.1 -1 5.9 -2.2 6.2 -2.7 0.7 -1.2 4.6 -0.1 5.6 1.5 0.5 0.8 0.8 0.7 0.8 -0.2 0 -0.7 0.4 -1.1 0.9 -0.8 0.5 0.3 1.1 -0.1 1.5 -0.9 0.3 -0.8 1.3 -1.5 2.1 -1.5 0.9 0 1.3 -0.5 1 -1 -0.8 -1.3 -0.3 -1.3 3.2 0.1 3.5 1.4 10.8 1.8 15.1 0.8 1.9 -0.4 3.2 -0.3 3.2 0.3 0 0.5 0.3 0.7 0.8 0.5 0.4 -0.3 1.6 -0.1 2.7 0.3 1.3 0.5 2.9 0 4.8 -1.4 2.8 -2 2.9 -2 4.2 -0.2 0.8 1 2.6 1.8 4.2 1.8 1.5 0 3.6 0.5 4.6 1 1.4 0.7 2.4 0.5 4.1 -1.1 1.8 -1.7 3.8 -2.2 9.5 -2.5 5.2 -0.2 7.4 0 7.8 0.9 0.5 1.4 5.1 3 6.8 2.5 4.4 -1.2 10.4 0.4 12.6 3.4 0.4 0.4 0.9 0.3 1.3 -0.2 0.4 -0.6 1.3 -0.9 2.2 -0.5 0.8 0.3 2.2 -0.1 3.2 -1 3.1 -2.7 6 -3 8.4 -0.8 2.6 2.5 2.8 2.5 5.3 0.7 1.7 -1.2 2.3 -1.2 4.7 0 2.3 1.2 2.9 1.2 4.2 -0.2 0.9 -0.8 1.6 -1.8 1.6 -2.2 0 -0.4 0.4 -1.4 1 -2.2 0.7 -1.2 1.3 -1 3 1.3 1.7 2.1 2.7 2.5 4.9 2.1 1.6 -0.4 3.2 -0.1 3.5 0.5 0.9 1.4 5.3 0.4 8.6 -1.9 2.4 -1.7 2.4 -1.7 5 1.5 3.6 4.6 5.4 3.3 4.6 -3.1 -0.6 -4.2 -0.4 -5.1 1.2 -6.1 1.7 -1 3.3 -0.4 10.9 4.1 7.8 4.6 26.3 16.9 31.6 21 3.7 2.8 1.2 6 -6 7.6 -5.4 1.3 -12.7 0.5 -15.7 -1.6 -2.3 -1.6 -5.6 -1.9 -5.6 -0.5 0 1 -9.9 3.1 -14.6 3.1 -1.8 0 -3.6 -0.4 -3.9 -1 -0.3 -0.5 -1.5 -1 -2.6 -1 -1 0 -1.9 -0.4 -1.9 -0.9 0 -2.8 -9.6 -1.2 -11.5 1.9 -1.5 2.5 -17.5 0.1 -17.5 -2.6 0 -2.2 -15.8 -2.3 -19.8 -0.2 -3.5 1.9 -5.7 2.4 -3.2 0.8 0.9 -0.6 1 -1 0.3 -1 -2.3 0 -4.3 1.2 -4.3 2.7 0 1 -0.6 1.3 -1.6 0.9 -0.9 -0.3 -1.9 -0.6 -2.4 -0.6 -0.5 0 -1.5 -0.6 -2.2 -1.2 -3 -2.8 -8.8 -5.8 -12.3 -6.5 -1 -0.2 -2.2 -0.8 -2.6 -1.4 -0.4 -0.7 -0.9 -0.4 -1.3 0.6 -0.4 1.3 -1.3 1.5 -3.6 1 -1.6 -0.4 -3 -0.3 -3 0.2 0 1.3 -6.7 1.5 -7.5 0.3 -0.3 -0.6 -1.1 -0.8 -1.6 -0.4 -0.6 0.3 -2 -0.5 -3.3 -1.9 -2.6 -2.8 -7.2 -3.3 -9.4 -1 -1.2 1.2 -1.7 1.2 -3.2 -0.2 -1.4 -1.3 -1.9 -1.3 -2.3 -0.3 -0.4 1.1 -0.8 1.1 -2.7 0 -1.6 -1 -2.5 -1.1 -3 -0.3 -0.9 1.5 -8 2.1 -8 0.7 0 -0.6 -0.4 -0.5 -0.9 0.3 -0.8 1.2 -1.2 1.2 -2.5 0.2 -1.2 -1 -1.6 -1 -1.6 -0.2 0 0.7 -0.5 0.9 -1.2 0.4 -1.9 -1.1 -10.1 -1 -11.3 0.2 -0.5 0.6 -1 1.9 -1 3 0 1.4 -0.8 2.1 -2.5 2.3 -1.4 0.2 -5.1 1 -8.4 1.8 -5.1 1.2 -6 1.2 -7 0 -0.9 -1.3 -1.4 -1.2 -3.5 0.4 -1.3 1.1 -1.9 2 -1.5 2.1 0.5 0.1 -0.2 0.4 -1.6 0.8 -1.5 0.4 -2.8 0.3 -3.2 -0.3 -0.5 -0.7 -0.8 -0.5 -0.8 0.4 0 1.7 -10.5 6.4 -12.1 5.5 -0.5 -0.4 -0.9 -0.3 -0.9 0.2 0 0.4 -2.1 1.7 -4.8 2.7 -2.6 1.1 -6.4 3 -8.4 4.3 -2 1.2 -5.3 2.5 -7.3 2.7 -3.4 0.4 -3.5 0.4 -3.5 -3z"/>
 </g>
 <g fill="#903ff0">
  <path d="M269.7 265.3 c-0.4 -0.3 -0.7 -2 -0.7 -3.7 0 -2.6 0.6 -3.4 4 -5 2.8 -1.3 5 -1.7 7.8 -1.3 3 0.5 4.3 0.2 6 -1.3 1.2 -1.1 3.4 -2 5 -2 1.6 0 3.7 -0.9 4.7 -2 1 -1.1 2.4 -2 3.1 -2 0.8 0 1.7 -1.2 2 -2.6 0.6 -2.4 1 -2.5 5.3 -2.2 5.4 0.4 6.8 -1.9 2.6 -4.2 -4.1 -2.2 -3.5 -6.9 1.5 -11.4 2.2 -2 5 -3.6 6.2 -3.6 1.7 0 1.9 0.3 1 1.2 -1.5 1.5 -1.6 3.2 -0.2 2.3 0.6 -0.3 1 -0.1 1 0.5 0 0.6 0.4 0.9 0.9 0.6 0.5 -0.3 1.1 0.1 1.5 0.9 0.3 0.8 1.2 1.5 1.9 1.5 0.8 0 2.3 0.8 3.5 1.8 6.4 5.4 5.8 5.1 7.6 3.4 1.5 -1.5 1.6 -1.3 1.6 1.9 0 2.9 -0.9 4.4 -5.2 8.6 -9.3 9.1 -22.6 15.5 -38.2 18.2 -6.6 1.2 -21.9 1.5 -22.9 0.4z"/>
  <path fill="url(#lg0)" d="M89.5 217.9 c-0.4 -1.7 -0.4 -6.2 0 -10 0.6 -6.2 0.9 -6.9 2.9 -6.9 1.4 0.1 3.2 1.7 5.3 4.8 l3.2 4.7 -2.2 1.2 c-1.2 0.7 -1.8 1.2 -1.3 1.3 0.5 0 0.3 0.7 -0.4 1.5 -1 1.1 -0.9 1.8 0.4 3.1 2.3 2.2 1.1 3.4 -3.4 3.4 -3.5 0 -3.9 -0.3 -4.5 -3.1z"/>
  <path fill="url(#lg0)" d="M86.4 198.3 c-0.3 -1 -1 -2.6 -1.5 -3.5 -2.9 -5.6 0.5 -11.8 6.6 -11.8 3.4 0 3.7 0.2 2.9 2.3 -0.4 1.2 -0.8 5 -0.8 8.5 l-0.1 6.2 -3.3 0 c-2.2 0 -3.4 -0.5 -3.8 -1.7z"/>
  <path fill="url(#lg0)" d="M95.7 178.3 c-0.4 -0.3 -0.7 -3.3 -0.7 -6.5 0 -4.3 0.4 -6 1.5 -6.4 0.8 -0.4 1.5 -1.5 1.5 -2.5 0 -1 0.6 -1.9 1.4 -1.9 0.8 0 1.6 -0.7 2 -1.5 0.3 -1 1.8 -1.5 4.3 -1.4 2.1 0.1 3.1 0.3 2.2 0.6 -1.1 0.3 -1.4 1.2 -1.1 3.4 0.3 2.1 0.9 2.9 1.8 2.5 2.4 -0.9 1.6 0.4 -4.2 7.5 -5.3 6.5 -7.2 7.8 -8.7 6.2z"/>
  <path fill="url(#lg0)" d="M133 130.5 c0 -0.8 -0.4 -1.5 -1 -1.5 -2.1 0 -0.9 -6.2 1.7 -9.8 3.6 -4.8 4.2 -5.2 7.9 -5.2 1.9 0 3.4 -0.6 3.8 -1.5 0.3 -0.8 1.5 -1.5 2.7 -1.5 2 0 2.1 -0.4 1.5 -4.6 -0.3 -2.6 -0.6 -5.2 -0.6 -5.8 0 -0.6 -2.7 -2 -5.9 -3 -10 -3.2 -21.1 -0.9 -21.1 4.4 0 1.2 -1.1 2 -3.6 2.4 -1.9 0.4 -3.7 1.3 -4 2.1 -0.4 1 -3.2 1.3 -11.7 1.1 -6.2 0 -11.8 -0.5 -12.5 -0.9 -0.8 -0.5 -3 0.2 -5.8 1.7 -5.2 2.9 -11.4 3.5 -11.4 1.1 0 -2.2 21.5 -23.2 34.9 -34.1 10.5 -8.6 15.2 -11.7 12.2 -8 -0.9 1.1 -1 2 -0.1 3.5 1.2 2.4 3 2.7 4.9 0.9 1 -1.1 1.8 -0.7 3.9 2 3.1 3.7 4.2 3.9 6.7 1.2 1 -1.1 1.4 -2 1 -2 -0.4 0 0 -0.9 1 -2 1.2 -1.3 2.5 -1.7 4.5 -1.4 1.5 0.4 3 0.1 3.4 -0.4 0.8 -1.3 8.8 -0.3 9.9 1.2 0.5 0.7 1.4 0.3 2.7 -1.3 l2.1 -2.4 3.9 3.2 c3.5 2.8 4 2.9 4.9 1.4 0.6 -1.1 2.2 -1.8 4.3 -1.8 1.8 -0.1 3.8 -0.4 4.4 -0.8 0.6 -0.3 2.2 0.5 3.6 1.8 2.2 2 2.8 2.2 4.4 1 2.2 -1.5 10 -1.4 13.1 0.3 1.7 1 2.2 0.9 2.7 -0.4 0.5 -1.3 1.5 -1.5 4.1 -1.1 2.3 0.4 4.8 -0.1 7.7 -1.5 4.9 -2.4 6.6 -1.8 8.5 3 1.3 3.2 1.3 3.2 -1.6 3.2 -1.7 0 -3.4 -0.7 -3.8 -1.4 -0.7 -1.3 -1.2 -1.3 -4 0.1 -1.8 0.8 -3.2 1.8 -3.1 2.2 0.2 1.6 -0.3 3.1 -0.9 2.9 -1.9 -0.5 -11.4 2.5 -10.3 3.2 0.9 0.6 0.7 1.1 -0.8 1.9 -1.1 0.6 -2.7 1.1 -3.4 1.1 -0.7 0 -1.9 0.9 -2.6 2 -0.7 1.1 -1.9 2 -2.7 2 -0.9 0 -1.2 0.8 -1 2.1 0.3 1.5 0 1.9 -1.1 1.5 -0.8 -0.3 -1.7 0.1 -2.1 1 -0.9 2.5 -5.5 4.1 -10 3.6 -4.3 -0.4 -4.3 -0.4 -4.3 2.9 0 3.1 -0.8 3.9 -8.8 9.4 -4.8 3.3 -9 5.9 -9.4 5.7 -0.5 -0.1 -0.8 0.2 -0.8 0.7 0 0.5 -3 3.4 -6.7 6.6 -3.8 3.1 -7.8 6.5 -9 7.6 -1.9 1.5 -2.3 1.6 -2.3 0.4z"/>
  <path fill="url(#lg0)" d="M420.3 125.8 c-2.1 -1.8 -5.2 -4.5 -6.8 -6 -5 -4.4 -21.8 -16.8 -22.8 -16.8 -0.5 0 -0.6 -0.7 -0.3 -1.5 0.3 -1 0.1 -1.5 -0.7 -1.3 -0.6 0.1 -2.2 -0.2 -3.5 -0.6 -1.6 -0.5 -2.1 -1.3 -1.7 -2.6 0.6 -1.9 -4.3 -8.2 -6.7 -8.6 -3.2 -0.5 -6.8 -2.5 -7.7 -4.2 -1 -1.9 -6.1 -2.8 -6.1 -1.1 0 0.5 -0.4 0.9 -1 0.9 -0.5 0 -1 -0.8 -1 -1.7 0 -1.3 -0.3 -1.4 -0.8 -0.6 -0.6 1 -1.3 0.9 -3 -0.3 -1.2 -0.8 -2 -1.9 -1.7 -2.3 0.6 -1.1 -8.1 -4.4 -9.4 -3.6 -0.6 0.3 -2.2 0.3 -3.6 -0.1 -2 -0.5 -2.3 -0.9 -1.3 -1.5 1 -0.7 0.9 -0.9 -0.4 -0.9 -3.2 0 -1.9 -1.9 2.6 -4 5.2 -2.3 6 -2.4 8.6 -0.8 1.6 1 2.3 0.9 4 -0.7 2 -1.8 2.2 -1.8 3.1 -0.2 0.7 1.1 2.2 1.7 4.4 1.7 2.4 0 3.5 0.5 3.5 1.5 0 0.8 0.3 1.4 0.8 1.3 0.4 -0.1 2 0.4 3.5 1 3.5 1.5 6.4 1.5 7.2 0.2 2.1 -3.5 14.1 -5.2 16.9 -2.5 0.8 0.8 2.1 1.5 2.8 1.5 0.8 0 1.9 0.5 2.4 1 1.8 1.8 11.4 -0.8 13.9 -3.8 1.9 -2.2 2.5 -2.4 3.8 -1.3 2.9 2.3 9.1 5.1 11.7 5.2 7.2 0.2 13.2 -2.5 10.7 -5 -0.7 -0.7 -0.7 -1.1 -0.1 -1.1 1.1 0 16.1 12.2 24.9 20.2 4.6 4.2 4.9 4.7 3.8 6.9 -0.7 1.3 -1.4 4.4 -1.5 6.9 l-0.3 4.5 -7.5 -0.3 c-4.7 -0.2 -8.1 -0.9 -9.1 -1.8 -2.1 -1.8 -6.8 -1.8 -7.5 0.1 -1 2.4 -8.3 2 -11.1 -0.7 -1.3 -1.2 -2.3 -1.6 -2.3 -1 0 1.8 -6.1 1.4 -7.5 -0.4 -0.6 -0.9 -2.4 -1.6 -4 -1.6 -1.6 0 -3.4 0.7 -4 1.6 -0.7 0.9 -2.4 1.6 -3.9 1.6 -3.1 0 -3.5 1.5 -0.6 2.3 1.3 0.3 2.2 1.7 2.6 3.6 0.5 2.6 1.1 3.1 3.4 3.1 2.1 0 3.4 0.8 4.9 3.3 1.1 1.7 2.9 3.9 4 4.7 2.6 1.8 2.9 7.5 0.5 8.4 -2.2 0.8 -1.9 0.9 -6.1 -2.6z"/>
  <path fill="url(#lg0)" d="M324.8 70.3 c-3.1 -1.6 -3.5 -2.8 -1.3 -3.7 0.8 -0.3 1.5 -1.2 1.5 -2 0 -2 1.8 -3 3.3 -1.8 0.7 0.6 2.3 1.2 3.6 1.4 2.3 0.3 2.3 0.3 -1 3.9 -3.2 3.4 -3.5 3.5 -6.1 2.2z"/>
 </g>
 <g fill="#8333f1">
  <path fill="url(#lg0)" d="M288.3 327.9 c-2.3 -0.7 -3.3 -1.6 -3.3 -2.9 0 -2.1 1.5 -2.5 14.3 -3.5 4.3 -0.3 8.4 -0.8 9.2 -1.2 2.4 -0.9 1.9 4.7 -0.7 6.8 -1.6 1.5 -3.6 1.9 -9.2 1.8 -3.9 0 -8.6 -0.5 -10.3 -1z"/>
  <path fill="url(#lg0)" d="M335 319.5 c-0.7 -0.8 -1.9 -1.5 -2.6 -1.5 -0.8 0 -1.4 -0.6 -1.4 -1.2 0 -0.7 3.6 -2.5 7.9 -3.9 l7.9 -2.6 0.6 2.1 c0.3 1.1 0.6 3.3 0.6 4.7 0 2.2 -0.6 2.8 -3.1 3.3 -5.1 1 -8.6 0.7 -9.9 -0.9z"/>
  <path fill="url(#lg0)" d="M197.1 314 c-2.6 -2.5 -3.1 -3.8 -3.1 -7.6 0 -5.3 -0.3 -5.3 11.3 -0.1 7.1 3.2 7.9 4.6 5.1 8.5 -2.4 3.5 -9.2 3.1 -13.3 -0.8z"/>
  <path fill="url(#lg0)" d="M360.8 308.3 c-3.8 -1 -1.4 -3.4 8.3 -8.4 15.1 -7.7 35.5 -21.7 43.9 -29.9 0.9 -0.9 3.3 -2.9 5.5 -4.5 2.1 -1.7 7.2 -6.3 11.3 -10.2 4.1 -4 7.8 -7.3 8.3 -7.3 0.5 0 0.9 -0.7 0.9 -1.7 0 -0.9 0.3 -1.4 0.6 -1 0.6 0.6 9.4 -9.1 9.4 -10.4 0 -0.4 0.9 -1 1.9 -1.4 1.2 -0.4 1.8 -1.2 1.4 -2.1 -0.3 -0.7 0 -1.4 0.6 -1.4 0.6 0 1.1 -0.7 1.1 -1.5 0 -0.8 0.4 -1.5 0.8 -1.5 0.5 0 1.4 -1.2 2 -2.6 0.7 -1.4 1.6 -2.3 2 -2 0.5 0.3 1.6 -0.6 2.6 -1.9 1 -1.4 2.2 -2.3 2.6 -2 0.4 0.2 1.3 -0.7 2 -2 0.7 -1.3 1.7 -2.2 2.2 -1.9 1.3 0.8 0.9 -1.3 -0.6 -2.8 -0.9 -0.9 -1.1 -2 -0.5 -2.9 0.4 -0.9 1 -2.8 1.3 -4.3 0.4 -2.2 0.2 -2.7 -1.1 -2.2 -1.2 0.5 -1.3 0.2 -0.7 -1.1 1.4 -3.3 1.6 -9.2 0.4 -12.8 -0.7 -2 -4.5 -7.9 -8.6 -13.1 -6.6 -8.5 -7.3 -9.7 -5.9 -11 1.9 -1.9 1.9 -2.8 0 -4.4 -2.4 -2 -1.8 -3 2 -3 4.2 0 8.5 1.9 8.5 3.7 0 0.8 0.7 2.1 1.5 2.9 0.8 0.9 1.5 2.6 1.5 4 0 1.3 0.4 2.4 0.8 2.4 0.5 0 1.6 1.6 2.5 3.5 0.9 2 2.4 3.8 3.2 4.1 1 0.4 1.5 2 1.5 4.5 0 2.1 0.5 3.9 1 3.9 0.6 0 1 1.4 1 3 0 1.7 0.5 3 1.1 3 2.2 0 3.9 3 3.9 6.8 0 2.2 0.4 4.2 1 4.4 0.5 0.2 1.2 2.8 1.6 5.9 l0.6 5.7 -3.6 1.3 c-3.8 1.4 -4 1.8 -3.6 9.2 l0.2 4.7 -5.5 0 c-6.2 0 -5.8 -0.5 -7.3 10.3 -0.5 3.9 -1 4.7 -2.8 4.7 -3 0.1 -5.6 2.3 -5.6 4.9 0 1.6 -0.6 2.1 -2.5 2.1 -1.5 0 -3.1 0.9 -4.1 2.5 -0.9 1.4 -2.3 2.5 -3 2.5 -0.8 0 -1.4 0.9 -1.4 2 0 1.6 -0.7 2 -3 2 -2.3 0 -3.1 0.5 -3.6 2.5 -0.5 2.2 -1.2 2.5 -5 2.5 -3.7 0 -4.4 0.3 -4.4 1.9 0 1.1 -0.4 2.3 -1 2.6 -0.5 0.3 -1 1.5 -1 2.5 0 2.6 -3.7 5 -7.7 5 -2.3 0 -3.3 0.5 -3.8 2 -0.5 1.5 -1.5 2 -4.1 2 -3.2 0 -3.4 0.2 -3.4 3.6 0 5.1 -2 6.6 -8.3 6.2 l-5.2 -0.3 -0.3 4.8 -0.3 4.7 -3.8 0 c-2 0 -4.1 0.4 -4.6 0.9 -0.6 0.6 -3 1.1 -5.5 1.3 -3.8 0.3 -4.5 0.7 -5 2.8 -0.5 2.3 -1.1 2.5 -6.5 2.7 -3.3 0 -6.8 -0.1 -7.7 -0.4z"/>
  <path fill="url(#lg0)" d="M179.7 305.3 c-1.1 -0.3 -2.7 -1.3 -3.8 -2.4 -1 -1 -2.6 -1.9 -3.4 -1.9 -0.8 0 -1.5 -0.4 -1.5 -0.9 0 -1.9 -3.2 -4.1 -6 -4.1 -2 0 -3.1 -0.6 -3.5 -2 -0.4 -1.4 -1.5 -2 -3.4 -2 -2.7 0 -7.1 -3.5 -7.1 -5.7 0 -0.6 -1.1 -1.8 -2.5 -2.7 -1.7 -1.1 -2.5 -2.6 -2.5 -4.4 0 -2.6 -0.2 -2.8 -3.5 -2.4 -5.1 0.6 -8.5 -0.5 -8.5 -2.8 0 -1.2 -1.3 -2.5 -3.5 -3.5 -3.5 -1.7 -3.9 -2.4 -5 -8.7 -0.5 -3.1 -1 -3.8 -2.9 -3.8 -2.4 0 -4.8 -2.2 -5.9 -5.2 -0.4 -1.3 -1.7 -1.8 -4.2 -1.8 -2.8 0 -3.8 -0.5 -4.7 -2.5 -0.6 -1.3 -1.8 -2.7 -2.7 -3 -2.1 -0.6 -5.1 -5.6 -5.1 -8.4 0 -1.8 -0.6 -2.1 -4.9 -2.1 -4.8 0 -5 -0.1 -6.1 -3.5 -0.6 -1.9 -1 -5.4 -0.8 -7.7 0.3 -3.8 0 -4.3 -1.9 -4.6 -1.9 -0.3 -2.3 -1 -2.3 -4.1 0 -2.1 0.3 -4.1 0.7 -4.4 0.3 -0.4 0.5 -3.5 0.4 -7 -0.2 -4.8 0.2 -6.7 1.3 -7.6 1.2 -1 1.9 -1.1 3 -0.2 1.1 0.9 1.5 0.9 1.8 -0.1 0.3 -0.7 1.4 0.7 2.5 3.2 1.4 3.3 1.6 4.6 0.7 4.8 -0.6 0.2 -1 1.1 -0.7 2.2 0.3 1 0 2.7 -0.6 3.8 -0.8 1.5 -0.8 2.3 0 2.8 0.8 0.4 0.7 0.9 -0.2 1.5 -1.2 0.7 -1.2 0.9 0 0.9 0.8 0 1.1 0.6 0.7 1.5 -0.4 1.2 0 1.4 1.7 1 1.7 -0.3 3 0.6 6.2 4.8 2.2 2.8 4 5.5 4 5.8 0 0.4 1.8 2.4 4 4.6 2.2 2.1 8.3 8.5 13.5 14.2 15.3 16.6 39 35.8 58.3 47.2 8.8 5.2 9.9 6.7 7.3 10.2 -1.3 1.6 -4.8 2 -8.9 1z"/>
  <path d="M260 263.9 c-1.9 -0.5 -5.4 -1.6 -7.7 -2.5 -4.1 -1.5 -4.2 -1.7 -4.9 -7.1 -0.9 -7.1 0.9 -10.6 5.6 -11.1 1.7 -0.2 3.7 0.1 4.4 0.7 1 0.8 1.7 0.7 2.6 -0.4 1.6 -2 7.6 -2 8.4 0 0.8 2.2 3.4 1.8 4.1 -0.5 0.5 -1.7 1.5 -2 5.7 -2 8.5 0 25.1 -5.5 27.3 -9 0.3 -0.5 2.2 -1 4.2 -1 3.4 0 3.5 0.1 2 1.8 -1.6 1.7 -1.6 1.9 0.8 3.2 1.4 0.7 2.5 1.8 2.5 2.3 0 0.6 0.7 1.9 1.7 2.9 0.9 1.1 1.1 1.8 0.5 1.8 -0.7 0 -1.2 0.7 -1.2 1.5 0 0.8 -1.2 1.7 -2.7 2.1 -1.6 0.3 -3.4 0.8 -4.2 1 -0.7 0.2 -2 -0.1 -2.7 -0.7 -1.1 -0.9 -1.4 -0.7 -1.5 0.7 -0.1 1.1 -0.1 2.2 0 2.7 0 0.4 -0.7 0.7 -1.6 0.7 -0.9 0 -2.6 0.9 -3.8 2 -1.2 1.2 -3.5 2.2 -5.1 2.3 -1.6 0.1 -3.8 1 -4.9 2 -1.4 1.3 -3.4 1.7 -7 1.6 -4.8 -0.1 -11.2 2.1 -9.8 3.4 0.3 0.4 1.8 0.7 3.2 0.8 2.4 0 2.4 0.1 0.6 0.9 -2.6 1.1 -12.1 1.1 -16.5 -0.1z"/>
  <path fill="url(#lg0)" d="M533.7 200.3 c-2.2 -0.6 -3.7 -4.2 -3.7 -8.9 0 -3.2 0.2 -3.4 3.5 -3.4 2.5 0 3.5 -0.4 3.5 -1.6 0 -0.9 0.7 -1.4 1.8 -1.2 2 0.4 2.7 5 1.7 11.5 -0.6 4.5 -1.6 5 -6.8 3.6z"/>
  <path fill="url(#lg0)" d="M87 184.3 c0 -3 0.8 -5.8 2.3 -8.2 1.2 -1.9 2.7 -4.5 3.2 -5.6 0.6 -1.1 2.2 -2.1 3.6 -2.3 2.2 -0.3 2.5 0 2.5 3.5 -0.1 2.5 0.4 3.7 1.2 3.5 1.8 -0.3 1.6 0.2 -2.5 6.3 -2.8 4.1 -4.2 5.4 -5.5 4.9 -1 -0.3 -1.8 -0.1 -1.8 0.4 0 0.6 -0.7 1.2 -1.5 1.6 -1.2 0.4 -1.5 -0.4 -1.5 -4.1z"/>
  <path fill="url(#lg0)" d="M524 177.2 c-2 -0.6 -2.6 -1.5 -2.8 -4.6 -0.3 -3.1 0.2 -4.4 2.2 -6.3 3.4 -3.1 7.9 -3 10.5 0.3 2.3 2.9 4.6 9.2 3.7 10.1 -0.9 1 -10.8 1.3 -13.6 0.5z"/>
  <path fill="url(#lg0)" d="M506.1 163.3 c-0.6 -2.1 -1.1 -4.6 -1.1 -5.5 0 -2.2 -2.3 -2.3 -4.4 -0.3 -0.8 0.8 -2.8 1.5 -4.4 1.5 -2.4 0 -3.3 -0.6 -4.3 -2.9 -1 -2.3 -2.2 -3.1 -5 -3.6 -2.1 -0.4 -4.5 -1.3 -5.6 -2 -1 -0.8 -3.5 -1.5 -5.5 -1.5 -2 0 -3.9 -0.4 -4.2 -0.9 -0.4 -0.5 -4 -1.2 -8.1 -1.6 -4.1 -0.4 -7.5 -1.1 -7.5 -1.5 0 -0.5 -0.9 -0.6 -2.1 -0.3 -1.4 0.4 -1.7 0.9 -1 1.6 2.1 2.1 1 9.7 -1.3 9.7 -1.7 0 -8.8 -7.5 -8 -8.3 0.4 -0.4 0.3 -0.7 -0.2 -0.7 -0.5 0 -5.7 -4.7 -11.5 -10.5 -8.9 -8.7 -10.3 -10.6 -8.7 -11.1 1.8 -0.5 1.8 -0.7 -0.5 -2.7 -1.3 -1.2 -3.2 -3.4 -4.2 -4.9 -0.9 -1.6 -2.4 -2.8 -3.2 -2.8 -0.8 0 -1.2 0.4 -0.9 0.8 0.2 0.4 0.1 1.4 -0.4 2.2 -0.7 1.2 -1.2 1.1 -2.9 -0.4 -1.5 -1.4 -1.8 -2.3 -1.1 -4.2 0.6 -1.6 0.6 -2.4 -0.1 -2.4 -0.6 0 -0.7 -0.5 -0.4 -1 0.3 -0.6 -0.2 -1.3 -1.2 -1.7 -1 -0.4 -2.4 -1.5 -3.1 -2.5 -0.8 -1.1 -2.1 -1.7 -3 -1.4 -1.6 0.5 -6.2 -2.4 -6.2 -3.9 0 -3.2 10.1 -4.3 13.5 -1.5 1.3 1.1 1.8 1 3 -0.6 2 -2.8 12.1 -2.7 14.1 0 0.8 1.1 1.4 1.5 1.4 0.9 0 -0.6 1.2 -1.5 2.7 -2 2.3 -0.8 3.1 -0.5 5.1 1.9 2.9 3.4 3.4 3.5 6.7 0.2 1.9 -1.9 3 -2.3 3.7 -1.6 0.6 0.6 2.4 0.8 3.9 0.5 2.1 -0.4 3.3 0 4.6 1.5 1.2 1.4 3.2 2.2 6.2 2.4 5.1 0.3 6.3 -1.2 3.5 -4.3 -1.7 -1.9 -1.6 -2 0.9 -4.7 2.5 -2.6 2.6 -2.9 1 -4.5 -1 -0.9 -1.3 -1.7 -0.7 -1.7 1.4 0 19.8 19 30.5 31.5 16.7 19.6 22.1 26.7 21.6 28.6 -0.4 1.4 0 1.9 1.4 1.9 1.6 0 10.8 10.6 9.8 11.4 -3.9 2.9 -7.4 4.6 -11.7 5.5 -8.9 1.9 -10 1.6 -11.1 -2.6z"/>
  <path fill="url(#lg0)" d="M51.5 155.3 c-6.8 -0.6 -8.5 -2 -8.5 -7.1 0 -4.1 0.7 -5.3 7.8 -14 13.5 -16.7 24.4 -28.5 25.2 -27.2 0.5 0.8 2.2 0.3 5.6 -1.7 7.2 -4.3 8 -4.4 10.8 -2.2 1.4 1.1 2.6 1.7 2.6 1.2 0 -1.1 10.8 -0.9 13.4 0.2 1.3 0.6 2.1 0.3 2.8 -0.8 0.4 -0.9 2.4 -1.9 4.4 -2.3 2.2 -0.4 3.3 -1.1 3 -1.9 -0.5 -1.5 4.7 -6.9 5.7 -5.9 0.4 0.4 1.2 0.2 1.9 -0.4 0.7 -0.5 3.2 -0.8 5.5 -0.6 2.4 0.2 5.4 -0.3 7 -1.1 2.5 -1.3 2.8 -1.3 3.1 0.1 0.5 2 4.4 3.5 11 4.1 4.2 0.3 5.8 0.1 7.3 -1.3 1.8 -1.6 2.1 -1.6 3.5 -0.2 2.9 2.9 0.3 6.7 -4.1 5.8 -0.5 -0.1 -2.5 0.2 -4.5 0.5 -3.4 0.7 -3.4 0.7 -1.5 2.3 2.5 2.1 3 6.2 0.8 6.2 -1.2 0 -1.4 0.7 -1 2.9 0.7 3.4 0 4.4 -2.3 3.1 -1.2 -0.6 -2.1 -0.3 -3.4 1.2 -1.2 1.3 -2.6 1.8 -4.1 1.6 -1.3 -0.3 -2.7 -0.2 -3.2 0.1 -1.9 1.4 -6.3 8.1 -5.4 8.1 0.6 0 1.1 0.7 1.1 1.6 0 1.8 -21.1 23.4 -22.9 23.4 -0.7 0 -0.9 0.5 -0.6 1 1.1 1.8 -0.7 1 -2.6 -1.2 -1.1 -1.1 -1.9 -2.9 -1.9 -4 0 -1.3 -0.7 -1.8 -3 -1.8 -2.6 0 -3.3 -0.6 -4.7 -4 -1.1 -2.6 -2.3 -3.8 -3.1 -3.5 -0.8 0.3 -1.8 0.5 -2.3 0.5 -0.5 0 -0.9 0.9 -0.9 2 0 1.1 -0.6 2 -1.3 2 -0.8 0 -2.2 0.9 -3.2 2 -1 1.1 -2.5 2 -3.4 2 -0.9 0 -2.5 0.7 -3.5 1.5 -1.1 0.8 -3.9 1.5 -6.3 1.5 -3.2 0 -4.3 0.4 -4.3 1.5 0 1.1 -1.1 1.5 -4 1.5 -2.9 0 -4.2 0.5 -5 2 -1.1 2 -2.1 2.2 -11.5 1.3z"/>
  <path fill="url(#lg0)" d="M90.4 94.4 c-2.1 -1.5 -2.1 -1.6 3.5 -6.9 3.1 -2.9 5.8 -5.2 6 -4.9 0.2 0.2 -0.4 1.3 -1.5 2.5 -1 1.1 -2.4 3.9 -2.9 6.2 -1.2 4.6 -2.1 5.2 -5.1 3.1z"/>
 </g>
 <g fill="#6d25f3">
  <path fill="url(#lg0)" d="M255 374.9 c-44.8 -5 -91 -23 -130.9 -51.2 -33.2 -23.5 -66.2 -57.6 -89.7 -92.8 -9.2 -13.8 -11.5 -18.5 -13.9 -27.4 -1.9 -7.5 -1.9 -14.8 0.1 -23.5 1.8 -8 5 -13.6 16.4 -28.5 l8.4 -10.9 0.7 3.4 c0.4 1.8 0.5 3.8 0.3 4.5 -0.8 2 4.2 4 7 2.7 1.8 -0.8 2.7 -0.7 3.8 0.4 1.3 1.3 1.7 1.2 3.2 -1.1 1.5 -2.3 2.3 -2.6 5.1 -2.1 3 0.6 3.3 0.4 4 -2.1 1.2 -5 2.6 -5.7 5 -2.7 2.2 2.7 2.3 2.8 4.8 1.1 1.5 -0.9 3.3 -1.7 4 -1.7 0.8 0 2.2 -0.9 3.2 -2 1 -1.1 2.4 -2 3.1 -2 0.7 0 1.4 -1 1.6 -2.2 0.2 -1.3 0.5 -2.1 0.8 -1.8 0.3 0.2 1.6 -0.3 2.9 -1.2 3.2 -2.3 6.2 -0.7 8.4 4.3 1.2 2.7 2.3 4 3.5 3.8 3.3 -0.3 4.2 0.1 4.2 1.9 0 1.1 0.9 3 2.1 4.3 1.8 2.1 1.9 2.4 0.5 2.7 -0.9 0.2 -1.4 0.8 -1.1 1.3 0.4 0.5 0.1 0.9 -0.5 0.9 -0.6 0 -0.8 0.5 -0.5 1 0.3 0.6 0.1 1 -0.4 1 -0.6 0 -1.1 0.7 -1.1 1.6 0 0.9 -0.9 1.8 -1.9 2.1 -1.3 0.3 -1.8 1 -1.4 2.1 0.4 1 0.2 1.3 -0.5 0.8 -0.7 -0.4 -1.5 -0.1 -1.8 0.8 -0.3 0.9 -1.2 1.6 -1.9 1.6 -0.8 0 -1.2 0.8 -1 2 0.2 1.1 -0.2 2 -0.9 2 -1.1 0 -5.6 5.2 -5.6 6.5 0 0.3 -1.1 2.3 -2.5 4.3 -1.4 2 -2.5 4.9 -2.5 6.4 0 1.6 -0.5 2.8 -1.1 2.8 -0.5 0 -0.7 0.4 -0.4 1 0.3 0.5 0.1 1 -0.5 1 -0.6 0 -0.5 0.9 0.4 2.2 0.8 1.3 1.6 2.8 1.6 3.3 0.3 1.9 1 1.8 1 -0.1 0 -1.6 0.2 -1.7 1 -0.4 0.5 0.8 1 2.4 1 3.5 0 1.6 -0.2 1.7 -0.9 0.6 -0.8 -1.2 -1.2 -1.2 -2.5 -0.2 -1.2 1 -1.4 2.5 -1 5.9 0.3 2.5 0.7 4.9 0.9 5.2 0.3 0.4 -0.2 1.6 -1 2.6 -1.9 2.5 -1.9 3.5 -0.1 2.8 0.8 -0.3 2.5 0.4 3.7 1.5 1.3 1.2 1.7 2.1 1 2.1 -1.4 0 -1.1 3.1 0.4 4.3 0.6 0.4 0.4 1.1 -0.7 1.7 -1.4 0.9 -1.5 1.5 -0.6 4.1 0.9 2.6 1.5 3 4.2 2.9 5.8 -0.3 6.6 -0.1 6.6 2.3 0 2.6 3.3 8 4.3 7 0.4 -0.3 0.7 0 0.7 0.7 0 0.7 0.3 1 0.7 0.7 0.4 -0.4 1.2 0.6 1.9 2.2 1.1 2.7 1.6 2.9 4.7 2.4 3 -0.5 3.6 -0.2 4.2 1.8 1.1 3.5 3.5 5.9 5.9 5.9 2.4 0 5 4.7 4 7.3 -0.5 1.5 2.4 5 3.7 4.5 1.2 -0.5 3.9 2.5 3.9 4.3 0 2.4 3.7 3.5 5.8 1.6 2.8 -2.4 4.9 -2.7 6.4 -0.9 1.6 1.9 1.7 3.1 0.4 5.1 -0.7 1 -0.1 2 1.7 3.6 1.5 1.1 2.7 2.5 2.7 3.1 0 1.1 4 5.2 5.3 5.3 0.4 0.1 1.6 0.1 2.6 0.1 1.1 0 2.3 0.9 2.6 2.1 0.5 1.6 1 1.8 1.8 1 0.9 -0.9 0.8 -1.4 -0.3 -2.1 -1.7 -1.1 0 -1.3 2.4 -0.4 0.9 0.3 1.3 1.1 0.9 1.7 -0.4 0.7 0 0.8 1.1 0.4 1.4 -0.5 1.7 -0.3 1.2 0.8 -0.4 1.1 0.1 1.5 1.7 1.5 1.4 0 1.8 0.3 1 0.8 -1.6 1 -0.5 2.4 3 3.9 1.5 0.7 2.7 1.7 2.7 2.3 0 0.7 0.8 0.9 2 0.5 1.3 -0.4 2 -0.2 2 0.7 0 0.7 0.8 0.1 1.7 -1.2 0.9 -1.4 1.7 -2.6 1.9 -2.8 0.1 -0.2 2.4 0.9 5.1 2.5 3.7 2.2 4.7 3.3 4.5 5 -0.3 2.4 5 8.3 7.5 8.3 0.8 0 2.1 -1.3 3.1 -2.9 l1.6 -2.9 6.6 2.5 c8.9 3.4 21.8 7 32 8.9 6.9 1.3 34.3 4.1 43.8 4.5 1.2 0.1 2.2 0.5 2.2 1.1 0 1.5 9 0.5 11.1 -1.3 1.4 -1.2 1.6 -1.8 0.7 -2.2 -0.7 -0.2 0.5 -0.8 2.7 -1.1 6 -1.1 13.4 -2.7 18.9 -4.2 6.3 -1.8 8.6 -1.8 10.5 0 1 0.9 2.7 1.2 4.3 0.9 2.2 -0.4 2.6 -0.9 1.8 -2.2 -1.3 -2.6 -0.2 -3.5 8.8 -7.4 7.2 -3.1 8.8 -3.4 11.4 -2.5 2.3 0.8 3.2 0.8 3.8 -0.2 0.6 -1 0.9 -0.9 1.3 0.1 0.4 1.1 0.7 1.2 1.8 0.2 1 -1 1 -1.3 0.1 -1.3 -0.7 0 -0.2 -1.2 1.2 -2.7 1.4 -1.5 2.3 -3 2 -3.5 -0.3 -0.4 -0.1 -0.8 0.4 -0.8 0.6 0 1.3 0.7 1.6 1.5 0.7 1.9 4.3 1.6 7.9 -0.8 1.5 -1 2.7 -1.4 2.7 -0.9 0 0.4 0.9 0.8 2 0.9 2.4 0.2 2.6 -1.4 0.3 -3.9 -1.6 -1.8 -1.5 -1.9 0.5 -3.4 1.2 -0.8 2.2 -2.1 2.2 -2.9 0 -2 2.1 -3 3 -1.5 0.4 0.7 2.1 1.2 3.6 1.2 1.6 0 3.2 0.5 3.6 1.2 0.5 0.7 0.8 0.4 0.8 -0.7 0 -1.1 0.4 -1.5 1.2 -1.1 0.7 0.5 0.9 0.2 0.5 -0.9 -0.3 -0.8 -0.2 -2.8 0.2 -4.4 0.6 -2.4 1.2 -2.8 3.8 -2.5 2.6 0.3 3.2 -0.1 4.1 -2.7 1.1 -3.2 3 -3.9 4.9 -2 0.9 0.9 1.8 0.8 3.8 -0.5 2 -1.3 2.3 -2 1.5 -3.5 -0.8 -1.5 -0.5 -2 1.3 -2.5 1.7 -0.5 1.9 -0.8 0.8 -1.5 -1.9 -1.2 -0.6 -4.1 1.9 -4.1 1.1 0 2 -0.4 2 -1 0 -1.8 2 -1.1 2.1 0.8 0 1.1 0.2 1.2 0.6 0.4 0.4 -0.9 0.9 -1 1.8 -0.2 1 0.8 1.4 0.4 1.9 -1.5 0.5 -2 1.3 -2.5 3.6 -2.5 2.3 0 3 -0.4 3 -2 0 -1.1 0.6 -2 1.4 -2 0.7 0 2.1 -1.1 3 -2.5 1.1 -1.6 2.6 -2.5 4.2 -2.5 2.3 0 2.5 -0.3 2 -2.5 -0.5 -1.9 -0.2 -2.5 0.9 -2.5 0.9 0 1.8 -0.7 2.2 -1.6 0.4 -1 1.3 -1.4 2.8 -1 1.9 0.5 2.2 0.2 1.8 -1.3 -0.3 -1 0 -2.2 0.7 -2.6 0.8 -0.5 0.8 -1 0 -2 -1.4 -1.6 -0.4 -5.5 1.3 -5.5 0.7 0 0.6 -0.4 -0.3 -1 -2.6 -1.7 0.9 -3 6.8 -2.6 4.7 0.4 5.3 0.3 4.7 -1.2 -1.4 -3.5 -1.8 -8.2 -0.7 -8.2 0.6 0 0.9 -0.7 0.6 -1.5 -0.4 -1 0 -1.5 1.2 -1.5 2.7 -0.1 6.9 -2.6 5.6 -3.4 -0.5 -0.3 -0.8 -1.5 -0.5 -2.6 0.4 -1.4 0 -2 -1 -2 -2.2 0 -3.2 -2 -1.6 -3.1 1 -0.6 1 -0.9 0.2 -0.9 -0.9 0 -1 -0.7 -0.3 -2.5 0.8 -2 0.6 -2.5 -0.6 -2.5 -0.8 0 -1.2 -0.5 -0.9 -1 0.4 -0.7 -0.2 -0.9 -1.9 -0.4 -2.8 0.7 -3.1 0 -1.7 -3.9 0.8 -2 0.6 -2.7 -0.6 -3.1 -1.1 -0.5 -1.4 -1.6 -1.1 -4.1 0.2 -2.2 -0.1 -3.6 -0.9 -3.9 -0.7 -0.3 -2.1 -2.1 -3 -4.1 -0.9 -1.9 -2.3 -3.5 -3 -3.5 -2 0 -2.8 -3 -1.2 -4.1 1.1 -0.7 1.1 -0.9 0.1 -0.9 -0.7 0 -1 -0.4 -0.7 -1 0.3 -0.6 -0.1 -1 -0.9 -1 -0.9 0 -1.3 -0.7 -1.1 -1.9 0.4 -1.9 -3.8 -4.6 -5.5 -3.6 -0.5 0.3 -2 -1.1 -3.3 -3.2 -2.1 -3.3 -2.2 -3.9 -0.9 -5.2 1.3 -1.3 1.1 -1.8 -1.4 -3.7 -2.7 -2.3 -2.8 -2.3 -0.9 -4.3 1 -1.2 2.2 -2.1 2.7 -2.1 0.6 0 2.2 -0.9 3.6 -2.1 2.5 -1.9 2.7 -1.9 3.9 -0.3 0.7 0.9 1.4 2.1 1.5 2.6 0.2 0.6 1.5 0.4 3.1 -0.3 2.4 -1.1 2.9 -1 4.1 0.6 1.2 1.7 1.6 1.7 3 0.6 1.4 -1.2 2 -1.1 4 0.8 2 1.9 2.4 2 3.6 0.6 1.1 -1.3 1.7 -1.1 5.3 1.5 2.2 1.6 4.4 2.7 4.9 2.4 0.5 -0.3 1.5 0 2.3 0.6 0.8 0.7 2.2 1 3 0.6 0.9 -0.3 1.5 0 1.5 0.9 0 0.9 0.5 2.4 1.2 3.4 1 1.6 1.4 1.7 2.5 0.5 0.8 -0.8 2.5 -1.4 3.8 -1.4 1.3 0 2.6 -0.4 3 -1 0.3 -0.6 1.5 -0.5 3 0.2 2.6 1.2 3.1 2.7 1.6 4.4 -1.2 1.3 0.7 7.6 2.1 6.8 0.6 -0.4 2.7 -0.9 4.6 -1.1 1.9 -0.2 5 -1.5 7 -2.8 1.9 -1.3 3.9 -2.2 4.4 -1.9 0.8 0.5 6.8 9 6.8 9.7 0 0.2 -1.1 0.2 -2.4 0 -2.7 -0.6 -8.3 3.7 -7.2 5.5 0.9 1.5 6.1 2.2 9.6 1.2 2.8 -0.8 3.2 -0.6 4.1 1.8 1.6 4.3 2.7 10.9 2.1 13.7 -0.4 2.3 -0.8 2.5 -4 1.9 -3.1 -0.6 -3.4 -0.5 -2.9 1 0.4 1 0.7 2.2 0.7 2.7 0 1.6 4.4 2.8 5.3 1.5 0.5 -0.6 0.6 1.3 0.3 4.3 -0.9 9.4 -8.5 22.7 -26.5 46.6 -35.4 47.2 -80 84.3 -126.3 105.1 -20.9 9.4 -48.1 17.4 -70.8 20.9 -12.5 1.9 -48.8 2.8 -61 1.4z"/>
  <path fill="url(#lg0)" d="M515.8 152.3 c-2.2 -0.6 -3.1 -4.8 -1.6 -7.3 0.7 -1.1 1.5 -2 1.8 -2 0.5 0.1 7 8.4 6.7 8.6 -0.8 0.5 -5.5 1 -6.9 0.7z"/>
  <path d="M501.5 127 c-2.7 -3 -1.2 -3.4 1.5 -0.5 1.3 1.4 1.9 2.5 1.3 2.5 -0.5 0 -1.8 -0.9 -2.8 -2z"/>
 </g>
 <g fill="#7a27e2">
  <path d="M266.8 299.3 c-2.1 -0.3 -2.8 -1 -2.8 -2.6 0.1 -2.5 2.2 -5.7 3.7 -5.7 0.6 0 1.6 -0.7 2.3 -1.5 0.7 -0.8 2.5 -1.5 4.1 -1.5 1.8 0 3.4 -0.8 4.1 -2 0.9 -1.3 2.4 -2 4.5 -2 l3.3 0 0 -6 0 -6 3 0 c2.7 0 3 -0.3 3 -3 0 -2.6 0.4 -3 3.6 -3.6 2.3 -0.4 3.8 -1.3 4.1 -2.4 0.6 -2.1 7 -4 13.7 -4 4.5 0 4.6 -0.1 4.6 -3.2 0 -2.8 1 -4.2 6.6 -9.2 15.1 -13.5 22.4 -31.7 21.1 -52.5 -0.7 -12.6 -6.7 -26.5 -15.4 -36.2 -6.5 -7.2 -19.3 -15.3 -29.8 -18.9 -3.7 -1.2 -5.1 -2.2 -5.3 -3.8 -0.2 -1.4 0.2 -2.2 1.1 -2.2 1 0 1.6 -2.1 2 -8.2 1.1 -13.5 1.1 -13.8 -1.8 -13.8 -2.9 0 -4.2 -2.5 -5.2 -9.8 l-0.6 -4.5 6 0.6 c11.7 1.2 29 7.8 41.3 15.8 24.2 15.5 40.9 41.9 45.1 70.8 1.5 10.7 0.6 28 -2 38.6 -9.5 38.8 -41.3 68.2 -82.1 75.9 -7.5 1.5 -25.3 1.9 -32.2 0.9z"/>
  <path d="M243.8 258.4 c-3.9 -2.1 -17.8 -15.4 -17.8 -17 0 -0.8 -1.5 -2.9 -3.4 -4.7 -3.9 -3.7 -5.6 -8.7 -5.6 -16.9 0 -4.1 0.4 -5.9 1.5 -6.6 0.9 -0.5 1.8 -2.9 2.2 -6 0.6 -5.1 0.7 -5.2 3.8 -5.2 3.2 0 9 2.3 10 4.1 0.4 0.5 1.7 0.9 3 0.9 1.8 0 2.5 0.7 3 3.3 1.3 5.7 5.8 12.8 11.8 18.3 6.4 5.7 12 8.8 19.4 10.5 2.7 0.7 5.4 1.3 6.1 1.5 1.7 0.5 1.5 3.4 -0.3 3.4 -0.8 0 -1.5 0.4 -1.5 0.9 0 1.2 -5.9 7.1 -7.1 7.1 -0.5 0 -0.9 -0.5 -0.9 -1.1 0 -0.6 -0.8 -2.2 -1.9 -3.5 -1.6 -2.1 -2 -2.2 -3.1 -0.9 -1.4 1.7 -7.1 2 -8.7 0.4 -1.5 -1.5 -4.8 3.8 -3.3 5.5 0.5 0.8 0.8 2 0.5 2.8 -0.4 0.9 0.1 1.8 0.9 2.1 0.9 0.4 1.6 1.1 1.6 1.7 0 1.4 -7 1 -10.2 -0.6z"/>
 </g>
 <g fill="#6f1ed9">
  <path d="M253.5 296.4 c-25.7 -7.1 -49.4 -24.5 -61.9 -45.6 -29.9 -50.1 -11.7 -114.8 40.5 -143.2 5 -2.7 16.8 -7.6 18.4 -7.6 0.3 0 1.2 7.2 2.1 16.8 l0.7 6.2 -2.7 0 c-1.6 0 -3.8 1.1 -5.3 2.6 -1.6 1.6 -4.2 2.8 -6.5 3.1 -4.8 0.7 -8.8 4.3 -8.8 8 -0.1 4 -4.2 8.3 -7.9 8.3 -1.6 0 -3.3 -0.5 -3.6 -1 -0.3 -0.6 -1.1 -1 -1.8 -1 -0.6 0 0.1 1.1 1.6 2.5 1.5 1.4 2.7 3.4 2.7 4.4 0 1.5 1.1 2 5.4 2.5 4.1 0.6 5.6 1.2 6.3 2.9 0.8 1.8 0.2 3.1 -3.9 8.2 -5.7 6.9 -13.2 18.9 -14.1 22.4 -0.8 3.1 1.5 8.6 4.1 10 5.2 2.8 9.8 0.8 14.1 -6.3 1.3 -2 2.8 -3.6 3.5 -3.6 2.2 0 3.6 6.5 3.6 16.8 0 8.4 -0.3 10.2 -1.5 10.2 -0.8 0 -1.5 -0.7 -1.5 -1.6 0 -1.2 -0.6 -1.5 -2.4 -1 -1.6 0.4 -2.6 0.1 -2.9 -0.8 -0.3 -0.8 -2 -2.1 -3.8 -3 -3.7 -1.9 -4.2 -2 -3.4 -0.6 0.8 1.4 -1.6 9.3 -3.2 10.3 -3.2 2 -0.5 12.9 4.3 17.4 1.9 1.8 3.4 3.9 3.4 4.7 0 1.9 14.3 15.2 18.4 17.1 6.3 2.9 15.9 5.6 23.8 6.7 13.8 2 32.6 -2.1 45.3 -9.8 3.2 -1.9 5.9 -3.4 6 -3.4 0.6 0 -0.2 4.7 -0.9 5.8 -0.4 0.6 -0.2 2 0.3 3 1.4 2.7 -0.5 4.2 -5.2 4.2 -2.3 0 -3.6 0.4 -3.2 1 0.3 0.6 0.2 1 -0.4 1 -0.5 0 -1.2 -0.4 -1.5 -0.9 -1 -1.5 -8.4 0.9 -8.9 2.9 -0.3 1.1 -1.8 2 -4.1 2.4 -3.5 0.7 -4.6 1.9 -2.6 3.1 1.9 1.2 1 3.5 -1.6 4.5 -1.9 0.7 -3.1 0.7 -4 -0.1 -2.1 -1.7 -1.9 3.9 0.2 6.3 1.6 1.6 1.5 1.9 -0.7 3.8 -1.5 1.2 -3.4 1.9 -4.8 1.6 -1.7 -0.3 -3 0.3 -4.4 2 -1.3 1.7 -2.5 2.2 -4.1 1.8 -1.4 -0.3 -2.7 0.1 -3.5 1 -0.8 0.9 -1.9 1.6 -2.6 1.6 -0.6 0 -1.8 1.1 -2.5 2.5 -1.6 3.1 -2.9 3.1 -14.5 -0.1z"/>
  <path d="M335.1 164.4 c-0.1 -0.6 -1.9 -3.2 -4.1 -5.7 -4.3 -4.9 -5.4 -7.4 -1.7 -3.9 1.8 1.7 2.6 1.9 3.6 0.9 1 -0.9 1.4 -0.8 2.2 0.6 0.6 0.9 1.7 1.7 2.4 1.7 1.7 0 2 1.6 0.4 2.5 -0.6 0.4 -1.4 1.7 -1.9 2.9 -0.5 1.1 -0.9 1.6 -0.9 1z"/>
  <path d="M313.5 144.9 c-1.6 -1 -2.5 -1.9 -2 -1.9 0.6 0 1.5 -1 2 -2.2 0.8 -1.7 1.8 -2.2 3.9 -2.1 4.1 0.3 4.4 1.2 1.4 3.8 -1.9 1.7 -2.3 2.6 -1.5 3.4 1.7 1.7 -0.5 1.2 -3.8 -1z"/>
  <path d="M292 136.8 c-2.5 -0.5 -8.4 -0.8 -13.3 -0.6 l-8.7 0.3 0 -3.1 c0 -1.7 0.3 -3.4 0.7 -3.8 1.1 -1 0.3 -13 -0.8 -13.4 -0.5 -0.2 -0.9 -1.9 -0.9 -3.7 0 -2.3 0.5 -3.4 1.8 -3.8 1.1 -0.2 2.1 -1.4 2.5 -2.6 0.5 -1.9 0.1 -2.1 -3.8 -2.1 -4.4 0 -5.5 -1 -5.5 -5 0 -2.5 6 -3.4 20.1 -2.8 11 0.5 13.6 1.1 10.9 2.8 -1.2 0.8 -1.2 1 -0.1 1 0.8 0 1.1 0.6 0.7 1.5 -1 2.7 1.1 6.5 3.7 6.5 2.3 0 2.5 0.4 3 7.8 0.3 4.2 0.1 8.1 -0.4 8.6 -1.4 1.5 -1.1 4.8 0.6 6.6 2.1 2.4 0.9 5 -2.4 5 -2 0 -2.3 0.2 -1.1 1 1.2 0.8 1.1 1 -0.5 0.9 -1.1 -0.1 -4 -0.5 -6.5 -1.1z"/>
 </g>
 <g fill="#6417cb">
  <path d="M276.5 263.9 c-5.5 -0.4 -12 -1.4 -14.5 -2.3 -3 -1 -3.5 -1.4 -1.5 -1.1 19.7 3.1 18.8 3.1 38 -0.1 1.7 -0.2 0.1 0.7 -3.4 2.1 -3.5 1.4 -6.9 2.4 -7.5 2.4 -0.6 -0.1 -5.6 -0.5 -11.1 -1z"/>
  <path d="M273 243.3 c-12.9 -2 -27.4 -12.2 -32.8 -23 -2.8 -5.6 -3.4 -8.9 -3.3 -17.3 0.1 -4.9 -0.4 -8.9 -1.4 -11.3 l-1.6 -3.8 4.8 -6.7 c16.3 -22.7 37.3 -30.7 59 -22.4 18.9 7.2 31.7 28.5 28.4 47.3 -4.3 24.8 -27.8 41.3 -53.1 37.2z"/>
  <path d="M229.5 157.9 c-0.6 -1.7 -0.9 -1.8 -2.2 -0.7 -1.2 1 -1.8 0.9 -2.9 -0.6 -0.9 -1.3 -2.1 -1.7 -3.9 -1.4 -2.1 0.4 -2.5 0.1 -2.5 -1.7 0 -3.2 -5.7 -9 -7.5 -7.5 -0.9 0.7 -1.5 0.8 -2 0.1 -0.7 -1.3 3.5 -5 7.4 -6.7 2.6 -1.1 3.2 -1 4.6 0.7 1.7 1.8 1.8 1.8 3.9 -0.8 1.1 -1.5 1.9 -3.7 1.8 -4.9 -0.4 -3.2 4.8 -8 9.5 -8.6 2.7 -0.4 5.1 -1.7 7.8 -4.3 2.2 -2.2 4.1 -3.3 4.3 -2.7 0.2 0.7 0.8 1.2 1.4 1.2 0.7 0 0.8 -1.2 0.3 -3.2 -0.3 -1.8 -0.8 -3.8 -0.9 -4.5 -0.1 -0.7 -1 -2 -1.9 -3.1 -2.1 -2.3 -2.1 -3.2 0 -4.8 1.7 -1.3 1.7 -1.3 -0.2 -1.4 -3.8 0 0 -2 7.9 -4 10 -2.5 12.3 -2.5 13.1 0 0.5 1.7 1.2 1.9 4.8 1.4 6.3 -0.9 7.6 1.1 4.7 7.1 -1.2 2.5 -2.8 4.5 -3.6 4.5 -1.1 0 -1 0.5 0.6 2.2 2.3 2.5 2.4 2.9 0.8 6.2 -0.9 2.1 -0.8 2.9 0.5 4.4 2.2 2.4 2.1 2.8 -0.4 6.3 -1.1 1.6 -1.8 3.3 -1.4 3.9 0.3 0.5 -0.7 1.2 -2.2 1.6 -12.7 2.7 -24.6 8.9 -33.7 17.5 -3.5 3.2 -6.6 5.9 -6.9 5.9 -0.3 0 -0.9 -0.9 -1.2 -2.1z"/>
 </g>
</svg>